<svg id="Layer_1" data-name="Layer 1" xmlns="http://www.w3.org/2000/svg" viewBox="0 0 691.56 345.98"><defs><style>.cls-1{fill:#f5f5f5;}.cls-2{fill:#e0e0e0;}.cls-3{fill:none;}.cls-4{fill:#263238;}.cls-5{fill:#455a64;}.cls-6{fill:#ffbe9d;}.cls-7{fill:#a36957;}.cls-8{fill:#ff725e;}.cls-9{fill:#196af9;}.cls-10{fill:#407bff;}.cls-11{fill:#fafafa;}.cls-12{opacity:0.2;}.cls-13{fill:#fff;}.cls-14{fill:#eb996e;}.cls-15{fill:#b78876;}.cls-16{fill:#aa6550;}</style></defs><title>discussing_two_peoples</title><g id="freepik--background-complete--inject-71"><path class="cls-1" d="M723,253.73l-6.21-10.81-9.71,1.43-8-10.08,4.13-10-10.83-7.19-8.09,8.15-10.65-1.86-4.31-12.53-13,1.37-.73,10.95L646,228l-10.21-7.23-10.36,7.55,5.38,11.59-6.16,9.29-11.19-.6-2.93,13.81,10.65,4.1.92,11.6-11,6.35,5.28,12,11.43-1.78,7.57,8.74-4,10.9,10.47,7.39,8.17-8.84,11.34,3.07,3.53,11.7,12.6-.85,1.62-10.51,10.81-6.2,8.84,7.05,11.18-8.33-5.67-9.8,5.51-9.87,11.34.83,3.47-12.85-9.73-5.26-1.29-11.71Zm-43.9,37.81a25.47,25.47,0,1,1,9.41-34.77A25.47,25.47,0,0,1,679.1,291.54Z" transform="translate(-33.03 -65.37)"/><path class="cls-1" d="M132.85,381.32c19.16-16.56,21.08-43.81,17.78-67.8-.55-4-.55-8.28-2.82-11.61s-7-5.27-10.41-3.21c-2.84,1.71-3.78,5.32-5.15,8.36a23.63,23.63,0,0,1-8.49,10c-2.43,1.59-5.51,2.73-8.18,1.6-3.66-1.56-4.56-6.3-5-10.3L108.47,286c-.39-4-.8-8.07-2.43-11.74s-4.75-6.9-8.66-7.57-8.38,2-8.78,6c-.17,1.67.34,3.32.4,5s-.52,3.59-2,4.21-3.26-.33-4.58-1.38c-4.54-3.61-7.87-8.52-11-13.42S65.19,257.18,61,253.16s-9.73-7-15.49-6.7S34,250.89,33.15,256.66s3,11.15,7.05,15.34a89.4,89.4,0,0,0,20.4,15.79c1.35.76,2.81,1.59,3.45,3,1.14,2.57-1.11,5.48-3.65,6.63-2.88,1.29-6.14,1.32-9.22,2s-6.31,2.41-7.18,5.47c-1.22,4.26,2.64,8.18,6.29,10.64a77,77,0,0,0,24,10.72c3,.77,6.24,1.4,8.82,3.22s4.38,5.26,3.24,8.22-4.72,4.25-7.86,4-6.06-1.64-9.11-2.44c-5.71-1.51-12.76-.4-15.79,4.71-2,3.36-1.74,7.72-.19,11.32s4.25,6.56,7.08,9.25c9.86,9.42,22,16.57,35.18,19.67s25.12,3.08,37.3-2.85" transform="translate(-33.03 -65.37)"/><path class="cls-2" d="M135,399.13a175.65,175.65,0,0,0-9.92-32.26,359.45,359.45,0,0,0-18.19-37.08l-5.27-9.47c-1.73-3.11-3.45-6.19-5.32-9.1a180.84,180.84,0,0,0-11.7-16.09c-4-4.94-7.92-9.49-11.64-13.71S65.67,273.34,62.29,270a144,144,0,0,0-17.16-14.8c-2.16-1.57-3.87-2.74-5-3.52-.56-.37-1-.66-1.34-.87a2.69,2.69,0,0,0-.46-.28,2.72,2.72,0,0,0,.42.34l1.3.93c1.14.82,2.82,2,5,3.64a152.37,152.37,0,0,1,17,14.9c3.35,3.39,6.88,7.27,10.58,11.49s7.62,8.79,11.57,13.73a183,183,0,0,1,11.62,16.06c1.85,2.89,3.56,5.95,5.3,9.06s3.48,6.28,5.26,9.47a368.68,368.68,0,0,1,18.2,37,179.28,179.28,0,0,1,10,32.1" transform="translate(-33.03 -65.37)"/><path class="cls-2" d="M96.08,311.22a7.91,7.91,0,0,0,.22-1.75c.1-1.12.18-2.76.26-4.78.15-4,.17-9.61.18-15.77s.1-11.72.32-15.74c.1-2,.2-3.64.28-4.77a7.32,7.32,0,0,0,0-1.75,8.43,8.43,0,0,0-.33,1.72c-.17,1.12-.35,2.75-.51,4.76-.36,4-.54,9.62-.54,15.78v20.54A8.64,8.64,0,0,0,96.08,311.22Z" transform="translate(-33.03 -65.37)"/><path class="cls-2" d="M43.72,306.91a10.33,10.33,0,0,0,2.08,0c1.33,0,3.25-.06,5.63,0,4.76,0,11.33.29,18.57.89s13.76,1.46,18.46,2.2c2.36.36,4.26.69,5.57.92a12.36,12.36,0,0,0,2,.29,9.93,9.93,0,0,0-2-.57c-1.3-.32-3.19-.74-5.54-1.16-4.7-.88-11.23-1.8-18.49-2.42a183.8,183.8,0,0,0-18.63-.68c-2.39,0-4.32.16-5.65.27A12.31,12.31,0,0,0,43.72,306.91Z" transform="translate(-33.03 -65.37)"/><path class="cls-2" d="M124.35,366a3.23,3.23,0,0,0,.29-.66c.18-.53.41-1.17.68-1.95.59-1.7,1.38-4.17,2.31-7.24,1.88-6.14,4.19-14.71,6.62-24.19s4.67-18.06,6.41-24.23c.86-3,1.56-5.47,2.08-7.3.23-.8.41-1.46.56-2a2.19,2.19,0,0,0,.14-.71,3.27,3.27,0,0,0-.28.67c-.19.53-.42,1.17-.69,1.95-.59,1.69-1.38,4.17-2.31,7.24-1.87,6.14-4.19,14.7-6.62,24.19s-4.67,18.06-6.41,24.23c-.85,3-1.56,5.47-2.08,7.3l-.55,2A2.82,2.82,0,0,0,124.35,366Z" transform="translate(-33.03 -65.37)"/><path class="cls-2" d="M53.82,351a2.18,2.18,0,0,0,.7.21l2.06.46,7.55,1.62c6.38,1.36,15.17,3.35,24.87,5.56s18.53,4.11,24.94,5.34c3.2.62,5.8,1.1,7.6,1.39l2.08.32a3,3,0,0,0,.73.06,3,3,0,0,0-.71-.21l-2-.46L114,363.71c-6.38-1.37-15.17-3.35-24.88-5.56S70.64,354,64.23,352.8c-3.2-.62-5.8-1.09-7.6-1.38l-2.08-.33A3,3,0,0,0,53.82,351Z" transform="translate(-33.03 -65.37)"/><path class="cls-3" d="M613,192.82l-3.69-6.42-5.78.85-4.77-6,2.46-6L594.79,171,590,175.86l-6.33-1.11-2.56-7.44-7.7.81-.44,6.51-5.73,2.92-6.07-4.3L555,177.73l3.2,6.9-3.66,5.52-6.66-.36L546.13,198l6.34,2.44.54,6.9-6.56,3.77,3.14,7.12,6.79-1.06,4.5,5.2-2.35,6.48,6.23,4.39,4.85-5.25,6.75,1.82,2.09,7,7.49-.51,1-6.25,6.42-3.68,5.26,4.19,6.65-5-3.36-5.86,3.27-5.86,6.74.49L614,206.7l-5.79-3.13-.77-7ZM586.9,215.3a15.14,15.14,0,1,1,5.59-20.67,15.15,15.15,0,0,1-5.59,20.67Z" transform="translate(-33.03 -65.37)"/><path class="cls-2" d="M586.91,215.3a25.86,25.86,0,0,0,2.9-2.32,14.39,14.39,0,0,0,2.61-3.45A14.93,14.93,0,0,0,589,190.8a13.86,13.86,0,0,0-3.64-2.26,14,14,0,0,0-4.31-1.15,14.83,14.83,0,0,0-15.26,8.76,15,15,0,0,0,13.37,21,14.2,14.2,0,0,0,4.3-.51,23.92,23.92,0,0,0,3.47-1.34,1,1,0,0,1-.2.14l-.64.35a6,6,0,0,1-1.06.5,10.05,10.05,0,0,1-1.51.54,14,14,0,0,1-4.36.61,15.26,15.26,0,0,1-14.91-12.62,14.57,14.57,0,0,1-.13-4.42,14.33,14.33,0,0,1,1.2-4.45,15.33,15.33,0,1,1,27.38,13.72,13.81,13.81,0,0,1-2.73,3.45,9.11,9.11,0,0,1-1.23,1,5.58,5.58,0,0,1-1,.66l-.62.37C587,215.27,586.92,215.31,586.91,215.3Z" transform="translate(-33.03 -65.37)"/><path class="cls-2" d="M613,192.82l-.34.25-1,.73-4.17,2.88v-.08c.22,1.89.49,4.23.8,7l-.06-.09,5.8,3.12h.09v.1c-.61,2.3-1.3,4.88-2,7.64v.13H612l-6.74-.48.16-.09L602,219.8v-.18c1,1.81,2.19,3.8,3.37,5.85l.09.15-.14.1-6.64,5-.12.09-.13-.1-5.26-4.19h.24l-6.42,3.7.11-.16c-.29,1.93-.62,4.07-1,6.25v.18H586l-7.49.52h-.19l-.06-.18-2.1-7,.17.17-6.74-1.82.25-.07L565,233.36l-.15.17-.18-.13L558.42,229l-.16-.12.07-.18c.74-2,1.54-4.25,2.35-6.48l.05.26-4.5-5.2.23.09-6.79,1.06h-.2l-.08-.19c-1-2.25-2.07-4.68-3.14-7.11l-.1-.22.21-.12.14-.08c2.15-1.23,4.3-2.46,6.42-3.69l-.13.25q-.27-3.48-.54-6.9l.17.22L546,198.24l-.2-.08V198c.59-2.77,1.17-5.5,1.74-8.21v-.21h.22l6.65.35-.22.12,3.67-5.52v.24c-1.09-2.34-2.15-4.63-3.2-6.9l-.08-.18.16-.11,6.16-4.48.14-.1.14.09,6.06,4.31H567l5.73-2.91-.12.19c.15-2.24.3-4.4.44-6.52v-.18h.18l7.69-.8h.17v.16l2.56,7.45-.15-.13,6.33,1.12h-.17l4.82-4.83.1-.1.12.07,6.43,4.29.1.07v.12c-.93,2.24-1.73,4.16-2.47,6v-.14l4.75,6h-.1l5.78-.82h0v.05l2.75,4.89.66,1.19c.15.26.21.38.21.38s-.09-.13-.25-.39-.39-.67-.7-1.18l-2.81-4.81h.08l-5.77.87h-.06v0l-4.79-6v-.14c.74-1.79,1.52-3.72,2.44-6l.06.18-6.45-4.25h.21c-1.5,1.53-3.07,3.12-4.8,4.86l-.06.07h-.1L583.62,175h-.11v-.11c-.83-2.38-1.68-4.85-2.58-7.45l.22.14-7.7.82.2-.2c-.14,2.12-.28,4.28-.43,6.52v.12l-.11.06-5.73,2.92-.13.06-.11-.08L561,173.44h.28l-6.15,4.49.08-.3,3.2,6.89.06.13-.08.11-3.66,5.53-.08.12h-.14l-6.66-.35.26-.2q-.86,4-1.73,8.21l-.16-.3,6.33,2.44.15.06v.16q.27,3.42.54,6.9v.16l-.15.09-6.42,3.68-.14.09.11-.33,3.13,7.11-.27-.15,6.79-1h.14l.1.1c1.55,1.79,3.08,3.57,4.5,5.2l.1.12v.14c-.82,2.23-1.62,4.44-2.36,6.47l-.09-.29,6.22,4.4h-.33l4.86-5.25.1-.11h.15l6.74,1.83h.13v.13c.72,2.42,1.44,4.8,2.09,7l-.24-.17,7.49-.5-.21.2c.34-2.18.67-4.32,1-6.25v-.11l.09-.05,6.43-3.68.12-.07.12.09,5.25,4.2h-.25l6.65-4.94v.25c-1.18-2-2.32-4-3.35-5.86l0-.09,0-.09,3.28-5.86.06-.09h.1l6.74.51-.16.11c.75-2.76,1.46-5.33,2.09-7.63l.06.15-5.77-3.15h0v-.06l-.74-7v-.05h0l4.19-2.78,1.08-.71Z" transform="translate(-33.03 -65.37)"/></g><g id="freepik--Floor--inject-71"><path class="cls-4" d="M695.4,401.67c0,.15-142.45.26-318.13.26s-318.16-.11-318.16-.26,142.42-.26,318.16-.26S695.4,401.53,695.4,401.67Z" transform="translate(-33.03 -65.37)"/></g><path class="cls-4" d="M668.51,263.89l-55,137.57H459L508.1,262a2.53,2.53,0,0,1,2.38-1.69l155.68.1a2.54,2.54,0,0,1,2.54,2.52A2.61,2.61,0,0,1,668.51,263.89Z" transform="translate(-33.03 -65.37)"/><path class="cls-5" d="M660,267.86,609.51,391.11a1.44,1.44,0,0,1-1.34.89H467.48a1.41,1.41,0,0,1-1.36-1.88l44.77-123.25a1.44,1.44,0,0,1,1.35-.94H658.7a1.41,1.41,0,0,1,1.4,1.42A1.45,1.45,0,0,1,660,267.86Z" transform="translate(-33.03 -65.37)"/><polygon class="cls-4" points="580.45 336.31 579.08 336.31 370.55 336.31 370.55 326.63 574.75 326.63 580.45 336.31"/><path class="cls-6" d="M454.11,269.23s-4.23,50.28-13.34,52.73c-24.8,6.66-53.17,1.73-63.13-.23-1.12-1-2.41-2.12-3.87-3.56a15.48,15.48,0,0,1-3-4.3,24,24,0,0,1-2.27-6.19c-.24-2-2.75-2.7-3.64-1.09s-1.26,7.76,2.08,13.36a2.64,2.64,0,0,1-1.42,3.45,3.1,3.1,0,0,1-.4.13c-4.21,1.56-19.05,6.17-21.45,7.3-2.13,1-4.19,2.82-1.95,3.19s14.5-1.4,14.5-1.4-16.11,2-15.71,4.32c.27,1.61,4.61,2.38,15.13,0,0,0-13.26,1.73-14.64,3.12-3.13,3.14,12.84,1.21,12.84,1.21-11.18,1.45-11.06.87-11.18,2.4-.09,1.15,2.44,1.61,8.58,1.68,5,.06,10.12,1.12,17.7,1.63h0s95.85,27.11,109-15.07c7.11-22.74,7.15-31.39,9.61-46.29" transform="translate(-33.03 -65.37)"/><path class="cls-7" d="M360.55,340.56c0,.28-3.37.87-7.62,1.31s-7.71.58-7.72.29,3.39-.87,7.62-1.31S360.51,340.28,360.55,340.56Z" transform="translate(-33.03 -65.37)"/><path class="cls-7" d="M360.45,336.21c0,.28-3.56,1.11-8,1.85s-8.16,1.12-8.21.85,3.55-1.11,8-1.86S360.4,335.93,360.45,336.21Z" transform="translate(-33.03 -65.37)"/><path class="cls-7" d="M360.31,331.69c.05.28-3.34,1.12-7.57,1.88s-7.71,1.15-7.76.88,3.34-1.13,7.57-1.89S360.26,331.41,360.31,331.69Z" transform="translate(-33.03 -65.37)"/><polygon class="cls-4" points="545.47 289.68 551.7 325.97 454.51 325.97 458.23 297.77 545.47 289.68"/><path class="cls-8" d="M464,230.41s-14.13,42.43-13.22,44.12l31.09,7.21Z" transform="translate(-33.03 -65.37)"/><path class="cls-9" d="M464,230.41s-14.13,42.43-13.22,44.12l31.09,7.21Z" transform="translate(-33.03 -65.37)"/><path class="cls-10" d="M490.59,310.11l-3,60.73,93.89-10.63-14.69-58.7s-10.1-68.06-28.51-75.6a173.49,173.49,0,0,0-19.53-6.29,90,90,0,0,0-36.1-2.68l-1.89.25A20.14,20.14,0,0,0,464,230.41s-.33,20.9,6.09,34.74Z" transform="translate(-33.03 -65.37)"/><path class="cls-5" d="M512.82,390.19c-.14,0-.35-4.93-.46-11s-.09-11,0-11,.36,4.94.47,11S513,390.19,512.82,390.19Z" transform="translate(-33.03 -65.37)"/><path class="cls-5" d="M518,370.91a.8.8,0,0,1,.41-.27,1.85,1.85,0,0,1,2.28,1.28,1.76,1.76,0,0,1,.07.56,2.18,2.18,0,0,1-1.45,2,2.34,2.34,0,0,1-2.36-.66,2.27,2.27,0,0,1-.57-1.9c.21-1.16.92-1.55.93-1.49a4,4,0,0,0-.56,1.53A1.91,1.91,0,0,0,518.5,374a1.61,1.61,0,0,0,1.79-1.55,1.46,1.46,0,0,0-.73-1.36A2.12,2.12,0,0,0,518,370.91Z" transform="translate(-33.03 -65.37)"/><path class="cls-5" d="M580.05,376.85a1.82,1.82,0,0,1-.38.29,12.29,12.29,0,0,1-1.13.75A23.71,23.71,0,0,1,574,380a25.52,25.52,0,0,1-29.35-9.47,23.52,23.52,0,0,1-2.44-4.35c-.25-.54-.38-1-.49-1.27a1,1,0,0,1-.12-.46s.29.59.79,1.64a27.11,27.11,0,0,0,7.64,9.46,25,25,0,0,0,16.67,5.38,26.31,26.31,0,0,0,7.19-1.28,26,26,0,0,0,4.54-1.94A13.93,13.93,0,0,1,580.05,376.85Z" transform="translate(-33.03 -65.37)"/><path class="cls-11" d="M504.24,257.4a8.87,8.87,0,0,1-1.12,1.09,30.53,30.53,0,0,1-3.35,2.63,13.59,13.59,0,0,1-5.9,2.33,15.36,15.36,0,0,1-7.6-1.53c-2.53-1.11-4.8-2.4-7-3.2a12.62,12.62,0,0,0-6.08-.86,8.14,8.14,0,0,0-3.85,1.49c-.78.6-1.11,1.06-1.15,1a1.24,1.24,0,0,1,.22-.34,5.37,5.37,0,0,1,.81-.84,7.81,7.81,0,0,1,3.92-1.69,12.73,12.73,0,0,1,6.29.77c2.27.79,4.56,2.08,7.05,3.17a15.07,15.07,0,0,0,7.35,1.53,13.25,13.25,0,0,0,5.75-2.16,37.66,37.66,0,0,0,3.42-2.48A10.13,10.13,0,0,1,504.24,257.4Z" transform="translate(-33.03 -65.37)"/><path class="cls-11" d="M479.61,233.65a6.5,6.5,0,0,1-1.8,1.59,15.33,15.33,0,0,1-11.13,2.43,6.46,6.46,0,0,1-2.3-.7c0-.08.91.17,2.35.34a17.28,17.28,0,0,0,10.88-2.38C478.86,234.18,479.55,233.58,479.61,233.65Z" transform="translate(-33.03 -65.37)"/><path class="cls-11" d="M564.5,290.86a5.72,5.72,0,0,1-.65.55,11,11,0,0,1-2.15,1.2,17.73,17.73,0,0,1-8.93.81,57.38,57.38,0,0,1-6.1-1.26,49.14,49.14,0,0,0-7-1.35,24.87,24.87,0,0,0-7.74.56,50,50,0,0,0-8,2.66c-5.33,2.21-10.37,4.62-15.35,5.65a29.06,29.06,0,0,1-13.31-.34,69.49,69.49,0,0,1-8.57-2.75l-2.28-.91a5.34,5.34,0,0,1-.77-.35,4.47,4.47,0,0,1,.81.25l2.31.82a75.57,75.57,0,0,0,8.58,2.58,29.11,29.11,0,0,0,13.13.23c4.9-1,9.9-3.44,15.25-5.67a49.44,49.44,0,0,1,8.06-2.67,25,25,0,0,1,7.9-.54,49,49,0,0,1,7,1.41q3,.81,6,1.32a17.81,17.81,0,0,0,8.81-.64A14,14,0,0,0,564.5,290.86Z" transform="translate(-33.03 -65.37)"/><path class="cls-11" d="M490.09,328s0-.07.13-.19l.43-.55a10.73,10.73,0,0,1,2-1.74,13.52,13.52,0,0,1,3.81-1.78,18.13,18.13,0,0,1,5.53-.68c4.18.06,8.89,1.79,13.83,4a79.82,79.82,0,0,0,7.89,3.12,23.81,23.81,0,0,0,8.9,1.25,21.06,21.06,0,0,0,8.5-2.82c2.59-1.4,4.95-3,7.34-4.31a24.94,24.94,0,0,1,7.22-2.82,18.67,18.67,0,0,1,15.46,4.25,13.42,13.42,0,0,1,2.41,2.64.69.69,0,0,1-.17-.17c-.13-.13-.28-.3-.46-.5a8.4,8.4,0,0,0-.78-.8,11.88,11.88,0,0,0-1.13-1,19,19,0,0,0-8.65-4,18.76,18.76,0,0,0-6.6,0,24.25,24.25,0,0,0-7.06,2.81c-2.37,1.31-4.72,2.92-7.33,4.34a21.54,21.54,0,0,1-8.71,2.89,24.41,24.41,0,0,1-9.09-1.28,77.53,77.53,0,0,1-7.93-3.17c-4.92-2.22-9.56-3.95-13.66-4.07a18.41,18.41,0,0,0-5.43.6,13.28,13.28,0,0,0-3.77,1.67A13.75,13.75,0,0,0,490.09,328Z" transform="translate(-33.03 -65.37)"/><path class="cls-11" d="M574.89,360.08a16.62,16.62,0,0,0-1.77-3.23,16.06,16.06,0,0,0-8.14-5.58,19.46,19.46,0,0,0-6.82-.91,30.53,30.53,0,0,0-7.81,1.41,61.66,61.66,0,0,0-8.2,3.26c-2.78,1.29-5.62,2.74-8.62,4.05a46.78,46.78,0,0,1-9,3.05,34.35,34.35,0,0,1-8.88.58A52,52,0,0,1,501,359.3c-4-1.51-7.14-3-9.31-4l-2.47-1.2-.64-.33-.21-.13a.75.75,0,0,1,.24.08l.65.28,2.52,1.12c2.18,1,5.34,2.37,9.35,3.84a52.18,52.18,0,0,0,14.53,3.27,33.7,33.7,0,0,0,8.74-.6,46.85,46.85,0,0,0,9-3c3-1.3,5.82-2.74,8.62-4a63.12,63.12,0,0,1,8.27-3.26,30.13,30.13,0,0,1,7.93-1.38,19.8,19.8,0,0,1,7,1,16,16,0,0,1,8.19,5.81,11.87,11.87,0,0,1,1.31,2.43c.09.28.17.5.23.68A.49.49,0,0,1,574.89,360.08Z" transform="translate(-33.03 -65.37)"/><g class="cls-12"><path d="M503.33,368.83c9.53-.38,19.07-3.56,26.36-9.71,10-8.42,14.91-21.64,16-34.66s-1.23-26-3.54-38.9a176.24,176.24,0,0,0-21.57,40.5c-3.54,9.44-6.65,19.75-14.49,26.08-2.8,2.26-6.14,3.95-8.33,6.8s-2.66,7.55.25,9.67l2.58.84" transform="translate(-33.03 -65.37)"/></g><path class="cls-6" d="M434.47,369.33a22.62,22.62,0,0,0,6,1.93,14.74,14.74,0,0,0,5,.22c.78-.1,1.51-.21,2.21-.32a17.49,17.49,0,0,0,8.69-4.07c10.83-9.41,40.15-39.15,45.38-45.88,6.3-8.09,8.07-61.57,8.07-61.57L545,265.4s-.63,38.54-9.28,68.53c-5.51,19.07-72,58.3-72.08,58.34-4.93,5.4-10.47,11.25-13.88,14.1-7.09,5.94-7.63,5.32-8.18,4.37-1.48-2.53,12.07-10.92,8.11-10.81s-15.38,12.19-16.82,9.48c-1.88-3.54,12.48-12.06,13.64-12.87s0-2.52-1-1.73c-1.45,1.13-17,12.66-18.86,9.21-1-1.92,2.57-3.47,2.57-3.47s15.33-9.71,14.39-11.31-10.14,3.77-13.12,5.81-5.08,1.44-4.9-.6c.13-1.39,9.08-7.86,12.07-9.81s11.26-7.15,5.09-7.9-10.62-3.67-11.28-5.29S432.82,368.31,434.47,369.33Z" transform="translate(-33.03 -65.37)"/><path class="cls-8" d="M523.07,224.79a20.16,20.16,0,0,1,18.49,5.69c4.1,4.27,8.22,11.42,7.87,22.75-.69,22.11-2.43,29.65-2.43,29.65l-43.35-1.5,1.7-37.15S508.7,227.82,523.07,224.79Z" transform="translate(-33.03 -65.37)"/><path class="cls-9" d="M523.07,224.79a20.16,20.16,0,0,1,18.49,5.69c4.1,4.27,8.28,12,7.93,23.31-.68,22.11-2.49,29.09-2.49,29.09l-43.35-1.5,1.76-36.58S508.7,227.82,523.07,224.79Z" transform="translate(-33.03 -65.37)"/><path class="cls-11" d="M548.64,270c0,.05-.5-.44-1.46-1.12a14.36,14.36,0,0,0-4.55-2,17.52,17.52,0,0,0-7.35-.25,41.25,41.25,0,0,0-8.57,3.05,51,51,0,0,1-8.63,3.25,20.68,20.68,0,0,1-7.52.36,13.32,13.32,0,0,1-4.82-1.6,8.91,8.91,0,0,1-1.14-.79,2.17,2.17,0,0,1-.36-.32c0-.05.54.38,1.59.93a14.82,14.82,0,0,0,4.78,1.42,21,21,0,0,0,7.36-.47,53,53,0,0,0,8.53-3.26,40.67,40.67,0,0,1,8.7-3.05,17.52,17.52,0,0,1,7.52.38,13.46,13.46,0,0,1,4.57,2.21,8,8,0,0,1,1,.93A2.2,2.2,0,0,1,548.64,270Z" transform="translate(-33.03 -65.37)"/><path class="cls-11" d="M546.87,238.7a9.45,9.45,0,0,1-1.43.61,16.67,16.67,0,0,1-1.72.59c-.72.21-1.45.45-2.32.64a47.86,47.86,0,0,1-6.18,1.09,59.78,59.78,0,0,1-7.69.28,54.43,54.43,0,0,1-7.64-.84,40.77,40.77,0,0,1-6.06-1.64,20.53,20.53,0,0,1-2.24-.9,14.6,14.6,0,0,1-1.64-.8,7.45,7.45,0,0,1-1.33-.8,10.52,10.52,0,0,1,1.42.62,14.28,14.28,0,0,0,1.66.71,22.39,22.39,0,0,0,2.25.82,44.3,44.3,0,0,0,6,1.52,58.16,58.16,0,0,0,7.57.79,64.6,64.6,0,0,0,7.62-.24,53.42,53.42,0,0,0,6.14-1c.88-.17,1.65-.37,2.33-.56s1.27-.34,1.74-.5A7.89,7.89,0,0,1,546.87,238.7Z" transform="translate(-33.03 -65.37)"/><path class="cls-4" d="M500.2,176.68a3,3,0,0,0,4.65,2.81c1.78-1.28,1.6-4,.89-6s-1.79-4.22-1.21-6.33c.45-1.61,1.78-2.8,2.75-4.16a9.45,9.45,0,0,0,1.35-8.32,8,8,0,0,0-6.36-5.32c-2.95-.34-6.31,1.07-8.73-.65-1.76-1.24-2.24-3.66-3.7-5.25-2.26-2.46-6.21-2.29-9.42-1.33s-6.37,2.54-9.71,2.24c-2.78-.24-5.28-1.77-8-2.53A14.65,14.65,0,0,0,447,164.63a9.35,9.35,0,0,0,5.19,3.74" transform="translate(-33.03 -65.37)"/><path class="cls-6" d="M495.3,239.42h0a16.64,16.64,0,0,1-19.36-13.32c-1-5.15-1.76-9.5-1.76-9.5s-13.39.2-15.78-12.82-5.06-41.62-5.06-41.62l-.17-1.73c14-9.07,32-8.42,46.76-.61l.44,2.69,8.47,58.68A16.64,16.64,0,0,1,495.3,239.42Z" transform="translate(-33.03 -65.37)"/><path class="cls-13" d="M480.68,193.88l-8.37,4.06a5,5,0,0,0,6.19,1C482.16,196.82,480.68,193.88,480.68,193.88Z" transform="translate(-33.03 -65.37)"/><path class="cls-14" d="M474.12,216.42a30.91,30.91,0,0,0,16.19-7.73s-2.42,10.07-15.64,11.11Z" transform="translate(-33.03 -65.37)"/><path class="cls-6" d="M501,171.29c.27-.14,9.6-2.38,9.91,8.88s-11.17,7.85-11.2,7.53S501,171.29,501,171.29Z" transform="translate(-33.03 -65.37)"/><path class="cls-14" d="M503.09,183.65c.05,0,.2.13.54.28a2,2,0,0,0,1.47,0c1.17-.47,2.12-2.39,2.12-4.42a6.61,6.61,0,0,0-.62-2.8,2.29,2.29,0,0,0-1.52-1.46,1,1,0,0,0-1.14.57c-.15.32-.07.54-.13.56s-.25-.18-.17-.65a1.31,1.31,0,0,1,.43-.72,1.48,1.48,0,0,1,1.07-.31,2.76,2.76,0,0,1,2.1,1.69,6.64,6.64,0,0,1,.77,3.12c0,2.27-1.12,4.43-2.73,4.94a2.05,2.05,0,0,1-1.8-.25C503.12,183.92,503.05,183.67,503.09,183.65Z" transform="translate(-33.03 -65.37)"/><path class="cls-4" d="M451.08,168s8.43,2.74,18-3.8c6.29-4.3,13.94-7,15.86-5.9s3.24,8,10.21,9.14c0,0,1.35,13.34,6.58,12.14s-.89-21.3-.89-21.3l-13.31-7.08-14.5-.73-15.35,3.87-8.12,6.58Z" transform="translate(-33.03 -65.37)"/><path class="cls-4" d="M500.28,147a9.06,9.06,0,0,0-5.15,2.9A4.83,4.83,0,0,1,500.28,147Z" transform="translate(-33.03 -65.37)"/><path class="cls-4" d="M494.12,142.57a8.76,8.76,0,0,1,.9,4.12,8.3,8.3,0,0,1-.5,3,2.56,2.56,0,0,1-.61,1.09,21.38,21.38,0,0,0,.59-4.06C494.46,144.44,494,142.61,494.12,142.57Z" transform="translate(-33.03 -65.37)"/><path class="cls-4" d="M457.34,181.12a1.93,1.93,0,0,0,2,1.84,1.84,1.84,0,0,0,1.88-1.8v0a1.9,1.9,0,0,0-1.94-1.83,1.83,1.83,0,0,0-1.94,1.72Z" transform="translate(-33.03 -65.37)"/><path class="cls-4" d="M457.29,179.65c.25.24,1.64-.91,3.7-1s3.62.86,3.83.59c.1-.11-.16-.55-.84-1a5.3,5.3,0,0,0-3.08-.78,5,5,0,0,0-2.93,1.11C457.36,179.08,457.17,179.54,457.29,179.65Z" transform="translate(-33.03 -65.37)"/><path class="cls-4" d="M477.6,180.06a1.91,1.91,0,0,0,2,1.74,1.83,1.83,0,0,0,1.8-1.86v-.05a1.91,1.91,0,0,0-2-1.74,1.81,1.81,0,0,0-1.8,1.84Z" transform="translate(-33.03 -65.37)"/><path class="cls-4" d="M477,178.57c.26.22,1.6-1,3.65-1.18s3.66.68,3.86.41-.19-.55-.89-1a5.3,5.3,0,0,0-3.12-.64,5.12,5.12,0,0,0-2.87,1.25C477.08,178,476.9,178.47,477,178.57Z" transform="translate(-33.03 -65.37)"/><path class="cls-4" d="M471.07,194.5a13.75,13.75,0,0,0-3.39-.27c-.53,0-1-.06-1.16-.41a2.8,2.8,0,0,1,.2-1.59c.37-1.31.76-2.69,1.16-4.14,1.6-5.88,2.7-10.7,2.46-10.77S468.62,182,467,187.87c-.38,1.45-.75,2.83-1.09,4.16a3,3,0,0,0-.07,2.08,1.36,1.36,0,0,0,.93.68,3.39,3.39,0,0,0,.9,0A13.41,13.41,0,0,0,471.07,194.5Z" transform="translate(-33.03 -65.37)"/><path class="cls-4" d="M475.76,172.44c.26.54,2.28.08,4.71.13s4.45.53,4.72,0c.12-.25-.27-.74-1.11-1.2a8.16,8.16,0,0,0-7.18-.1C476.05,171.71,475.65,172.19,475.76,172.44Z" transform="translate(-33.03 -65.37)"/><path class="cls-4" d="M457,174.14c.41.43,1.77-.19,3.47-.38s3.17,0,3.45-.51c.12-.25-.15-.7-.82-1.08a5.1,5.1,0,0,0-5.58.72C457,173.43,456.83,173.93,457,174.14Z" transform="translate(-33.03 -65.37)"/><path class="cls-4" d="M94.29,267.69l53.59,134H298.3l-47.79-135.8a2.45,2.45,0,0,0-2.32-1.65l-151.62.1a2.46,2.46,0,0,0-2.45,2.47A2.64,2.64,0,0,0,94.29,267.69Z" transform="translate(-33.03 -65.37)"/><path class="cls-5" d="M102.54,271.35l49.21,120a1.41,1.41,0,0,0,1.3.86h137a1.38,1.38,0,0,0,1.4-1.36,1.5,1.5,0,0,0-.08-.47l-43.6-120a1.41,1.41,0,0,0-1.32-.91H103.84a1.37,1.37,0,0,0-1.4,1.34A1.4,1.4,0,0,0,102.54,271.35Z" transform="translate(-33.03 -65.37)"/><polygon class="cls-4" points="114.85 336.31 116.19 336.31 319.27 336.31 319.27 326.88 120.41 326.88 114.85 336.31"/><path class="cls-15" d="M383,271.18s3.75-4.87,1.22-10.48-9.34-12-9.34-12c-2-.51.64-11.81,1.79-15.56s-.14-5.78-2.19-5c-1.39.56-5.18,11.93-6.23,15.65-.57,2-1.64,6-2.94,8.22-1.08,1.81-2.32,2.38-3.57-.46-2.75-6.26-7.17-10.06-9-10.27s-2.79,2.39-1.22,3.81a25.32,25.32,0,0,1,3.89,5.68,16.61,16.61,0,0,1,1.84,5.21c.27,1.58.46,3,.61,4.26a40.37,40.37,0,0,1-.08,9.45L320,314.19l-8.22-30.13-.76-2.32L278.6,293.8c-1,.25,7,23.85,12,38.51a26.63,26.63,0,0,0,15.09,16h0a26.61,26.61,0,0,0,31.62-9l40.33-58.55-.87-.59.82.37Z" transform="translate(-33.03 -65.37)"/><path class="cls-16" d="M377.94,251.61a4.63,4.63,0,0,1-.32,1.1l-1.07,2.93L374.92,260a8.62,8.62,0,0,1-1.23,2.51,2.34,2.34,0,0,1-1.39.79,1.7,1.7,0,0,1-1.55-.62,2.55,2.55,0,0,1-.58-1.52,5.8,5.8,0,0,1,.17-1.5c.23-.93.47-1.81.71-2.65.49-1.68,1-3.16,1.47-4.39s.89-2.22,1.2-2.89a4.2,4.2,0,0,1,.54-1,6,6,0,0,1-.35,1.09c-.25.69-.62,1.69-1,2.93s-.9,2.73-1.36,4.4c-.23.84-.46,1.72-.67,2.63a2.86,2.86,0,0,0,.31,2.57,1.19,1.19,0,0,0,1.08.45,1.84,1.84,0,0,0,1.08-.61,8.36,8.36,0,0,0,1.16-2.36l1.74-4.28,1.22-2.87A6,6,0,0,1,377.94,251.61Z" transform="translate(-33.03 -65.37)"/><path class="cls-16" d="M381.76,256a3.46,3.46,0,0,1-.28,1c-.21.61-.54,1.48-1,2.56s-.9,2.36-1.48,3.78a4.2,4.2,0,0,1-1.5,2,2.27,2.27,0,0,1-1.34.4,2,2,0,0,1-1.33-.6,3.14,3.14,0,0,1-.82-2.58,13,13,0,0,1,.49-2.39,30.76,30.76,0,0,1,1.34-3.85c.45-1.06.87-1.9,1.17-2.48a3.59,3.59,0,0,1,.52-.86c.08,0-.53,1.33-1.35,3.48A37.21,37.21,0,0,0,375,260.3a13.74,13.74,0,0,0-.44,2.3,2.69,2.69,0,0,0,.67,2.17,1.57,1.57,0,0,0,2,.14,3.75,3.75,0,0,0,1.33-1.76l1.58-3.73c.45-1.06.83-1.91,1.1-2.5A3.78,3.78,0,0,1,381.76,256Z" transform="translate(-33.03 -65.37)"/><path class="cls-16" d="M383.86,260.45a15.56,15.56,0,0,1-.76,2.85c-.27.88-.57,1.9-1,3.05a2.7,2.7,0,0,1-1.27,1.58,1.49,1.49,0,0,1-1.17,0,1.89,1.89,0,0,1-.9-.75,3.51,3.51,0,0,1-.4-2.11,12.25,12.25,0,0,1,1.31-5,10.93,10.93,0,0,1,1.17-1.83c.32-.4.53-.6.56-.58a22.84,22.84,0,0,0-1.4,2.57,14.29,14.29,0,0,0-.93,3,12.49,12.49,0,0,0-.2,1.83,3.24,3.24,0,0,0,.33,1.81,1.13,1.13,0,0,0,1.42.52,2.21,2.21,0,0,0,1-1.28c.38-1.09.74-2.09,1.07-3A17,17,0,0,1,383.86,260.45Z" transform="translate(-33.03 -65.37)"/><path class="cls-16" d="M371,270.1c-.09,0,0-.79-.1-2a12.58,12.58,0,0,0-4.25-8.44c-.94-.82-1.62-1.21-1.58-1.28a4.81,4.81,0,0,1,1.81,1,11.31,11.31,0,0,1,4.39,8.7A5,5,0,0,1,371,270.1Z" transform="translate(-33.03 -65.37)"/><path class="cls-4" d="M161,391.35l97.78.5L260,374.6l-76.28-33.94A59.18,59.18,0,0,0,171,368.49l-10,22.86" transform="translate(-33.03 -65.37)"/><path class="cls-5" d="M207.17,358.15a6.43,6.43,0,0,1-.88,1,14.55,14.55,0,0,1-1.14,1.08,18.38,18.38,0,0,1-1.6,1.32,19.53,19.53,0,0,1-2.07,1.43,27,27,0,0,1-2.51,1.43,30.66,30.66,0,0,1-12.76,3.27,27.86,27.86,0,0,1-2.89,0,23.27,23.27,0,0,1-2.5-.26,17.22,17.22,0,0,1-2-.39,11.33,11.33,0,0,1-1.52-.4,5.66,5.66,0,0,1-1.25-.45c0-.11,1.83.5,4.86.88.75.08,1.58.18,2.47.19h2.85A32.53,32.53,0,0,0,198.76,364c.89-.46,1.74-.88,2.5-1.36s1.4-.88,2.07-1.37C205.8,359.47,207.09,358.07,207.17,358.15Z" transform="translate(-33.03 -65.37)"/><path class="cls-5" d="M233.76,389.9a27.86,27.86,0,0,1,1.18-3.32c.83-2.16,1.87-4.91,3-7.94s2.24-5.76,3.09-7.92a23.81,23.81,0,0,1,1.4-3.24,23.12,23.12,0,0,1-1.06,3.37c-.72,2-1.75,4.87-2.94,8s-2.32,5.89-3.18,7.89c-.43,1-.79,1.8-1.06,2.35A3.49,3.49,0,0,1,233.76,389.9Z" transform="translate(-33.03 -65.37)"/><path class="cls-5" d="M234.31,366.68a2.83,2.83,0,0,0-1.31,1.25,1.84,1.84,0,0,0,.09,1.79,1.9,1.9,0,0,0,3.51-.55,1.86,1.86,0,0,0-.46-1.73,2.93,2.93,0,0,0-1.62-.8,1,1,0,0,1,.53-.08,2.28,2.28,0,0,1,1.35.62,2.17,2.17,0,0,1,.66,2.11,2.35,2.35,0,0,1-4.38.68,2.19,2.19,0,0,1,0-2.21,2.21,2.21,0,0,1,1.09-1C234.1,366.63,234.3,366.65,234.31,366.68Z" transform="translate(-33.03 -65.37)"/><path class="cls-8" d="M300.44,245.39s14.3,42.06,13.49,43.78L285,297.1Z" transform="translate(-33.03 -65.37)"/><path class="cls-9" d="M300.44,245.39s14.3,42.06,13.49,43.78L285,297.1Z" transform="translate(-33.03 -65.37)"/><path class="cls-10" d="M277,315.08l-9.13,38.73-5.93,21.67-78.25-34.82,24.84-40s13.6-55.63,32.79-65.91c14-7.48,25.8-4.88,27.57-4.88l16.67,2.31c.37,0,.73.11,1.09.18,8.89,1.75,14.92,10.06,14.46,19.1-.36,7.24-1.57,19.49-5.56,28.65C290.2,292.42,277,315.08,277,315.08Z" transform="translate(-33.03 -65.37)"/><path class="cls-11" d="M264.84,366.79l-.57-.26a14.07,14.07,0,0,1-1.62-.88,19.42,19.42,0,0,1-9-15.18,14,14,0,0,1,1.33-6.86,10.08,10.08,0,0,1,2.28-3.1,7.27,7.27,0,0,1,3.64-1.79,8.55,8.55,0,0,1,9.37,7.65v0a9.53,9.53,0,0,1-.86,4.73,11.52,11.52,0,0,1-7.54,6.35,15.77,15.77,0,0,1-10.5-1,24.32,24.32,0,0,1-8.68-7,36.94,36.94,0,0,1-3.3-4.75,20.13,20.13,0,0,1-2.26-5.47,13.08,13.08,0,0,1-.07-6,9.74,9.74,0,0,1,3.13-5.27,8,8,0,0,1,6-1.74,6.5,6.5,0,0,1,3,1.13,6.34,6.34,0,0,1,2,2.5,8.5,8.5,0,0,1,.11,6.29,11.26,11.26,0,0,1-3.83,4.9,24.21,24.21,0,0,1-22.8,2.59,20.35,20.35,0,0,1-8.63-7,18.25,18.25,0,0,1-3.39-10,13.66,13.66,0,0,1,.82-5.07,9.28,9.28,0,0,1,2.87-4.06,7.91,7.91,0,0,1,4.5-1.67,6,6,0,0,1,4.37,1.51,6.36,6.36,0,0,1,1.92,4,8.44,8.44,0,0,1-.62,4.21,10.16,10.16,0,0,1-5.77,5.19,19.49,19.49,0,0,1-6.88,1.26,26.29,26.29,0,0,1-10.92-2.22,25.41,25.41,0,0,1-6-3.7c-.63-.52-1.08-.94-1.37-1.23l-.44-.45s.17.13.48.41.76.69,1.39,1.19a26.39,26.39,0,0,0,16.87,5.71,19.08,19.08,0,0,0,6.76-1.28,12.18,12.18,0,0,0,3.22-1.91,8,8,0,0,0,2.91-7.11,6,6,0,0,0-1.81-3.75,5.63,5.63,0,0,0-4.08-1.38,7.44,7.44,0,0,0-4.26,1.59,9,9,0,0,0-2.72,3.88,13.18,13.18,0,0,0-.77,4.9,17.75,17.75,0,0,0,3.32,9.76,19.8,19.8,0,0,0,8.44,6.84,23.65,23.65,0,0,0,22.28-2.54,10.78,10.78,0,0,0,3.66-4.67,7.94,7.94,0,0,0-.1-5.89,5.72,5.72,0,0,0-1.86-2.3,6.06,6.06,0,0,0-2.76-1,7.53,7.53,0,0,0-5.55,1.63,9.23,9.23,0,0,0-3,5,12.59,12.59,0,0,0,.06,5.79,26.31,26.31,0,0,0,5.46,10,23.94,23.94,0,0,0,8.49,6.88,15.34,15.34,0,0,0,10.18,1,11,11,0,0,0,7.26-6.09,8.87,8.87,0,0,0,.84-4.51,8.15,8.15,0,0,0-8.88-7.35h0a7,7,0,0,0-3.47,1.69,9.92,9.92,0,0,0-2.22,3,13.89,13.89,0,0,0-1.33,6.69,19,19,0,0,0,3.72,10.3,19.38,19.38,0,0,0,5.07,4.82c.51.33,1,.63,1.58.91Z" transform="translate(-33.03 -65.37)"/><path class="cls-11" d="M288.32,292.08s-.07-.07-.19-.22l-.53-.66a16.18,16.18,0,0,1-1.67-2.8,18.86,18.86,0,0,1-1.26-11.78,15.89,15.89,0,0,1,3.69-7.41,5.12,5.12,0,0,1,2-1.26,3.1,3.1,0,0,1,2.44.23,4.06,4.06,0,0,1,1.7,1.85,6.17,6.17,0,0,1,.53,2.5,15.71,15.71,0,0,1-3.55,9.82,15.53,15.53,0,0,1-4.23,3.68,11.42,11.42,0,0,1-5.54,1.64,8.11,8.11,0,0,1-5.4-2,10.68,10.68,0,0,1-3.16-4.64,15.64,15.64,0,0,1-.85-5.34,18.16,18.16,0,0,1,.64-5.14,7.13,7.13,0,0,1,1.14-2.27,3.58,3.58,0,0,1,2.1-1.38,3.39,3.39,0,0,1,2.41.43,5.48,5.48,0,0,1,1.68,1.64,7,7,0,0,1,.91,2,8.5,8.5,0,0,1,.31,2.13,10.83,10.83,0,0,1-.66,3.95A14.16,14.16,0,0,1,277,282.7a26.44,26.44,0,0,1-4.15,3.06c-1.22.73-2.19,1.24-2.85,1.58l-.75.38a1.31,1.31,0,0,1-.27.12l.24-.16.73-.43c.64-.37,1.6-.91,2.79-1.66a26.64,26.64,0,0,0,4.06-3.11,14.07,14.07,0,0,0,3.69-5.55,10.59,10.59,0,0,0,.61-3.82,7.53,7.53,0,0,0-.32-2,6.5,6.5,0,0,0-.86-1.92,4.7,4.7,0,0,0-1.55-1.49,2.86,2.86,0,0,0-2.08-.37c-1.48.3-2.42,1.82-2.89,3.34a18.31,18.31,0,0,0-.6,5,15.39,15.39,0,0,0,.84,5.17,10.23,10.23,0,0,0,3,4.41,7.61,7.61,0,0,0,5.07,1.87,11.08,11.08,0,0,0,5.28-1.57,15.16,15.16,0,0,0,4.1-3.55,15.36,15.36,0,0,0,3.46-9.49,5.76,5.76,0,0,0-.48-2.31,3.67,3.67,0,0,0-1.49-1.65,2.72,2.72,0,0,0-2.09-.21,4.63,4.63,0,0,0-1.8,1.15A15.82,15.82,0,0,0,285,276.7a18.48,18.48,0,0,0-.28,6.71,19.06,19.06,0,0,0,1.36,4.91,20.46,20.46,0,0,0,1.57,2.82l.49.69C288.28,292,288.33,292.07,288.32,292.08Z" transform="translate(-33.03 -65.37)"/><path class="cls-15" d="M264.37,280.31s0,35.56,8.9,38.93c24.21,9.16,53.17,7.05,63.36,6.09,1.22-.85,2.63-1.89,4.23-3.19l3.37-2.81s16,3.05,15.76,3.89-6.24,2.78-12.42,1.39a2.67,2.67,0,0,0,1.1,3.61,2.59,2.59,0,0,0,.38.17c4.07,2,18.49,8.09,20.78,9.47,2,1.23,3.92,3.25,1.64,3.39s-14.41-2.85-14.41-2.85,16,3.6,15.34,5.9c-.44,1.59-4.87,1.93-15.19-1.5,0,0,13.13,3.06,14.38,4.6,2.83,3.46-13-.08-13-.08,11.07,2.58,11,2,11,3.53,0,1.16-2.61,1.37-8.77.83-5-.44-10.27.11-17.93-.14h0S244,369.15,235,325.52c-4.86-23.53-4-32.21-5-47.41" transform="translate(-33.03 -65.37)"/><path class="cls-16" d="M351.88,345.93c-.07.27,3.3,1.2,7.52,2.08s7.67,1.34,7.72,1.06-3.32-1.21-7.51-2.08S352,345.65,351.88,345.93Z" transform="translate(-33.03 -65.37)"/><path class="cls-16" d="M352.42,341.57c-.07.28,3.46,1.47,7.88,2.67s8.08,1.94,8.15,1.66-3.45-1.47-7.88-2.66S352.5,341.3,352.42,341.57Z" transform="translate(-33.03 -65.37)"/><path class="cls-16" d="M353,337.05c-.08.28,3.24,1.46,7.41,2.65s7.62,1.93,7.7,1.65-3.24-1.46-7.41-2.65S353.09,336.78,353,337.05Z" transform="translate(-33.03 -65.37)"/><path class="cls-8" d="M246.13,245.52a18.35,18.35,0,0,0-16.61,7.73c-3.36,4.7-6.45,12.26-4.93,23.47,3,21.88,5.39,29.18,5.39,29.18l40.21-6.37-5.5-36.7S259.84,246.9,246.13,245.52Z" transform="translate(-33.03 -65.37)"/><path class="cls-9" d="M246.13,245.52a18.35,18.35,0,0,0-16.61,7.73c-3.36,4.7-6.45,12.26-4.93,23.47,3,21.88,5.39,29.18,5.39,29.18l40.21-6.37-5.5-36.7S259.84,246.9,246.13,245.52Z" transform="translate(-33.03 -65.37)"/><path class="cls-16" d="M347.44,320a4.94,4.94,0,0,1-.86-.11c-.56-.09-1.4-.26-2.45-.41a2.89,2.89,0,0,0-1.56.62,14.64,14.64,0,0,0-1.65,1.29,46,46,0,0,0-3.61,3.65h0a36.15,36.15,0,0,1-9.58,1.46,109.19,109.19,0,0,1-11.44-.47c-9.22-.65-17.6-1.16-23.62-2-3-.4-5.43-.82-7.09-1.17-.84-.16-1.47-.33-1.91-.43a3.58,3.58,0,0,1-.66-.19,2.59,2.59,0,0,1,.68.09l1.92.33c1.67.29,4.1.65,7.11,1,6,.74,14.37,1.2,23.61,1.85,4,.31,7.85.59,11.39.5a37,37,0,0,0,9.47-1.36l-.09.06a42.15,42.15,0,0,1,3.7-3.62,13.46,13.46,0,0,1,1.72-1.28,3,3,0,0,1,1.73-.62c1.08.2,1.88.4,2.44.52A4,4,0,0,1,347.44,320Z" transform="translate(-33.03 -65.37)"/><path class="cls-11" d="M267.43,279.05a1.58,1.58,0,0,1-.31.09l-.93.2-1.53.15a14.9,14.9,0,0,1-2.11-.09,15.67,15.67,0,0,1-8.49-3.71,14.06,14.06,0,0,1-2.71-3,12.5,12.5,0,0,1-1.87-4.06,7.44,7.44,0,0,1-.19-2.4,4.19,4.19,0,0,1,.94-2.36,3.39,3.39,0,0,1,2.4-1.09,5.52,5.52,0,0,1,2.61.65,9.15,9.15,0,0,1,3.81,4,11,11,0,0,1,1.14,5.67,10.15,10.15,0,0,1-2.11,5.64,12.74,12.74,0,0,1-11.31,4.77A15.26,15.26,0,0,1,236.19,277a11.68,11.68,0,0,1-2.23-5.6,6.94,6.94,0,0,1,.34-3,6.15,6.15,0,0,1,1.62-2.43,4.85,4.85,0,0,1,2.55-1.28,4.41,4.41,0,0,1,2.74.45,6.16,6.16,0,0,1,3.12,4.12,10.73,10.73,0,0,1,0,4.85,13.48,13.48,0,0,1-1.71,4.13,12.74,12.74,0,0,1-11.39,6,12.56,12.56,0,0,1-3.59-.65,7.06,7.06,0,0,1-1.17-.49s.41.16,1.21.39a13.3,13.3,0,0,0,9.08-.57,12.54,12.54,0,0,0,5.54-4.9,12.85,12.85,0,0,0,1.64-4,10.47,10.47,0,0,0,0-4.66,5.7,5.7,0,0,0-2.9-3.81,4.07,4.07,0,0,0-2.47-.4,4.38,4.38,0,0,0-2.3,1.17,5.82,5.82,0,0,0-1.48,2.24,6.57,6.57,0,0,0-.31,2.75,11.5,11.5,0,0,0,2.15,5.36A14.75,14.75,0,0,0,246.82,283a12.2,12.2,0,0,0,10.85-4.56,10.27,10.27,0,0,0,.95-10.79,9.85,9.85,0,0,0-1.53-2.2,8.13,8.13,0,0,0-2.06-1.58,5,5,0,0,0-2.39-.61,2.84,2.84,0,0,0-2.08.93,3.75,3.75,0,0,0-.85,2.11,7.21,7.21,0,0,0,.16,2.27,12.42,12.42,0,0,0,1.78,3.94,14.16,14.16,0,0,0,2.62,3,15,15,0,0,0,2.92,2,15.78,15.78,0,0,0,5.39,1.74A15.48,15.48,0,0,0,267.43,279.05Z" transform="translate(-33.03 -65.37)"/><path class="cls-4" d="M246.28,168.12a11.72,11.72,0,0,0-20.83-2.54c-1.52,2.3-2.17,5-3.13,7.65s-2.37,5.22-4.8,6.53c-2.84,1.54-6.58,1-9.16,3-2.88,2.15-3,6.9-.54,9.56s6.61,3.24,10,1.91a20.34,20.34,0,0,0-1.37,6.58,6.88,6.88,0,0,0,2.88,5.81,6.69,6.69,0,0,0,6.53-.12,15.71,15.71,0,0,0,4.95-4.65,16.44,16.44,0,0,0,1.65,4.55,5.64,5.64,0,0,0,3.77,2.8,5.47,5.47,0,0,0,5.07-2.49,12.45,12.45,0,0,0,1.83-5.61,40.38,40.38,0,0,0-.94-14.61c-.75-3.06-1.81-6.19-1.22-9.28s3.63-6,6.64-5.06" transform="translate(-33.03 -65.37)"/><path class="cls-5" d="M206.86,189.21a1.59,1.59,0,0,0,.51.24,13.75,13.75,0,0,0,1.55.45,15.31,15.31,0,0,0,13.75-3.9,15.8,15.8,0,0,0,3.14-4.21,21.25,21.25,0,0,0,1.76-5.33,29.84,29.84,0,0,1,1.46-5.25,8.88,8.88,0,0,1,3-3.85,9.74,9.74,0,0,1,8-1.55,11.76,11.76,0,0,1,5,2.71c1,.92,1.46,1.56,1.52,1.51s-.07-.19-.27-.5a9.87,9.87,0,0,0-1-1.24,11.34,11.34,0,0,0-5.09-3,10.22,10.22,0,0,0-8.6,1.49,9.61,9.61,0,0,0-3.28,4.15,29.59,29.59,0,0,0-1.53,5.39,21,21,0,0,1-1.67,5.14,15.3,15.3,0,0,1-10.36,8,16.16,16.16,0,0,1-5.76.18A21.54,21.54,0,0,0,206.86,189.21Z" transform="translate(-33.03 -65.37)"/><path class="cls-5" d="M233.23,207.68a2.27,2.27,0,0,0,.4-.27,4.74,4.74,0,0,0,1-1,9.32,9.32,0,0,0,1.78-4.73,18.7,18.7,0,0,0-.85-7.43c-.76-2.7-1.93-5.56-2.38-8.68a12.66,12.66,0,0,1,1.64-8.46,12.27,12.27,0,0,1,5.22-4.82,13.51,13.51,0,0,1,4.7-1.31,15.75,15.75,0,0,0,1.82-.13,5,5,0,0,0-1.84-.19,12.48,12.48,0,0,0-4.92,1.11,12.62,12.62,0,0,0-5.63,4.94,13.27,13.27,0,0,0-1.8,9c.47,3.27,1.68,6.14,2.47,8.78a18.92,18.92,0,0,1,1,7.16,9.42,9.42,0,0,1-1.46,4.6C233.69,207.2,233.17,207.62,233.23,207.68Z" transform="translate(-33.03 -65.37)"/><path class="cls-4" d="M300,188.73c7.84-18.13-2.91-29.17-9.91-33.13-4.17-2.36-9.13-2.86-13.91-3a51,51,0,0,0-14.09,1.29,25.35,25.35,0,0,0-12.2,6.87c-5.73,6.14-7,15.23-6.5,23.61a65.73,65.73,0,0,0,8.35,28.2,7,7,0,0,0,2.45,2.86,2.58,2.58,0,0,0,3.39-.62" transform="translate(-33.03 -65.37)"/><path class="cls-15" d="M286.56,234l-.29-9.54s11.15-1.85,13.46-16.4c1.15-7.24.79-19.1.18-28.8a15.37,15.37,0,0,0-16.3-14.38c-.23,0-.47,0-.7.06l-25.23,2.67a5.11,5.11,0,0,0-4.58,5.19h0l3.35,62.45a15,15,0,0,0,15,14.24h0a15,15,0,0,0,15.12-14.88C286.57,234.41,286.57,234.2,286.56,234Z" transform="translate(-33.03 -65.37)"/><path class="cls-4" d="M297.39,187.48a1.88,1.88,0,0,1-1.8,1.89,1.81,1.81,0,0,1-1.93-1.66v0a1.87,1.87,0,0,1,1.8-1.88,1.79,1.79,0,0,1,1.93,1.64Z" transform="translate(-33.03 -65.37)"/><path class="cls-4" d="M297.34,185.39c-.24.24-1.65-.81-3.66-.8s-3.48,1-3.69.76.12-.55.77-1a5.18,5.18,0,0,1,3-.92,5,5,0,0,1,2.9.94C297.24,184.84,297.45,185.28,297.34,185.39Z" transform="translate(-33.03 -65.37)"/><path class="cls-4" d="M277.27,188a1.88,1.88,0,0,1-1.8,1.89,1.81,1.81,0,0,1-1.93-1.66v0a1.87,1.87,0,0,1,1.8-1.88,1.81,1.81,0,0,1,1.93,1.66Z" transform="translate(-33.03 -65.37)"/><path class="cls-4" d="M277.6,185.76c-.23.24-1.65-.8-3.65-.8s-3.48,1-3.7.77.13-.55.77-1a5.1,5.1,0,0,1,3-.91,5,5,0,0,1,2.91.94C277.5,185.21,277.71,185.65,277.6,185.76Z" transform="translate(-33.03 -65.37)"/><path class="cls-4" d="M284.89,200.65a13.38,13.38,0,0,1,3.26-.59c.51-.05,1-.15,1.08-.5a2.53,2.53,0,0,0-.34-1.52l-1.52-3.91c-2.1-5.56-3.63-10.13-3.4-10.21s2.11,4.36,4.22,9.91c.5,1.38,1,2.68,1.45,3.93a3,3,0,0,1,.27,2,1.25,1.25,0,0,1-.85.75,3.2,3.2,0,0,1-.87.12A13.49,13.49,0,0,1,284.89,200.65Z" transform="translate(-33.03 -65.37)"/><path class="cls-16" d="M286.27,224.41a37.07,37.07,0,0,1-19.48-5.2s4.73,10,19.29,8.63Z" transform="translate(-33.03 -65.37)"/><path class="cls-16" d="M284,205.49a3.64,3.64,0,0,0-3.25-1.35,3.36,3.36,0,0,0-2.28,1.23,2.1,2.1,0,0,0-.16,2.39,2.45,2.45,0,0,0,2.64.67,7.52,7.52,0,0,0,2.56-1.54,2.17,2.17,0,0,0,.58-.59.68.68,0,0,0,0-.75" transform="translate(-33.03 -65.37)"/><path class="cls-4" d="M279,202c.32,0,.33,2.16,2.19,3.7s4.19,1.31,4.21,1.62c0,.13-.52.42-1.5.45a5.41,5.41,0,0,1-3.51-1.23,4.67,4.67,0,0,1-1.7-3.1C278.59,202.57,278.83,202,279,202Z" transform="translate(-33.03 -65.37)"/><path class="cls-4" d="M278.5,182.24c-.19.55-2.2.29-4.55.58s-4.27.92-4.58.43c-.14-.23.19-.75,1-1.27a8,8,0,0,1,7-.77C278.15,181.56,278.59,182,278.5,182.24Z" transform="translate(-33.03 -65.37)"/><path class="cls-4" d="M296.6,179.57c-.36.46-1.74,0-3.4,0s-3.07.3-3.4-.18c-.14-.23.08-.68.7-1.12a4.66,4.66,0,0,1,2.76-.74,4.72,4.72,0,0,1,2.71.91C296.56,178.88,296.75,179.35,296.6,179.57Z" transform="translate(-33.03 -65.37)"/><path class="cls-4" d="M299.91,179.21c-2.54-12.4-6-7.49-9.91-13.41-5.66,5.73-18.69,12.33-26.64,13.63a5.21,5.21,0,0,0-2.33.75c-1.22.91-1.32,2.67-1.32,4.2a54.35,54.35,0,0,1-1.06,12.85,20.92,20.92,0,0,1-6.21,11.09c-4.8-10.11-5.28-21.87-3.13-32.86.88-4.49,2.36-9.19,5.94-12,2.56-2,5.86-2.86,9.08-3.45,7.95-1.46,16.36-1.81,23.93,1s13.45,6.33,14.46,14.35" transform="translate(-33.03 -65.37)"/><path class="cls-5" d="M244.93,170.5a7.81,7.81,0,0,0,1.63.89,14,14,0,0,0,2,.81l1.28.45,1.48.37a38,38,0,0,0,7.44,1,45.57,45.57,0,0,0,18.05-3c1.3-.58,2.56-1.05,3.66-1.68l1.6-.86,1.42-.91a20.47,20.47,0,0,0,2.32-1.72l.92-.74.7-.71a8.93,8.93,0,0,0,1.23-1.38c-.13-.14-1.9,1.84-5.49,4.06l-1.41.85-1.6.8c-1.09.6-2.34,1-3.62,1.58a50.72,50.72,0,0,1-8.74,2.32,52.21,52.21,0,0,1-9,.65,41.16,41.16,0,0,1-7.34-.83A67.36,67.36,0,0,1,244.93,170.5Z" transform="translate(-33.03 -65.37)"/><path class="cls-5" d="M249.05,160.7a6.38,6.38,0,0,0,1.25,1,11.2,11.2,0,0,0,1.62,1l1.05.57,1.23.52a38,38,0,0,0,14.29,2.55,64.22,64.22,0,0,0,14.43-1.61c1.82-.41,3.27-.82,4.25-1.15a6.29,6.29,0,0,0,1.51-.58c0-.13-2.25.48-5.87,1.16a76.42,76.42,0,0,1-14.32,1.36,41.14,41.14,0,0,1-14.08-2.27A58.41,58.41,0,0,1,249.05,160.7Z" transform="translate(-33.03 -65.37)"/><path class="cls-5" d="M293.76,157.54c0-.09-.5-.19-1.28,0a5.31,5.31,0,0,0-3.78,4.57c-.05.8.14,1.27.24,1.26a8,8,0,0,1,1.58-3.6C292,158.09,293.8,157.77,293.76,157.54Z" transform="translate(-33.03 -65.37)"/><path class="cls-4" d="M218.6,173.21a1.66,1.66,0,0,0-.43-.52,3.27,3.27,0,0,0-1.8-.79,4.53,4.53,0,0,0-3,.69,3.87,3.87,0,0,0-1.77,3.68,5.35,5.35,0,0,0,2.79,4.13,5.53,5.53,0,0,0,5.66-.59,6.39,6.39,0,0,0,2.09-2.41,8.64,8.64,0,0,0,.77-3.2c.15-2.2-.23-4.42.17-6.58a12.25,12.25,0,0,1,7.77-9,11.25,11.25,0,0,1,9.74,1.2,12.61,12.61,0,0,1,4.6,5.06c.72,1.48.87,2.41,1,2.39a2.16,2.16,0,0,0-.08-.67,9.07,9.07,0,0,0-.59-1.85,12.43,12.43,0,0,0-4.58-5.41,12.59,12.59,0,0,0-4.6-1.87,11.16,11.16,0,0,0-5.7.44,12.88,12.88,0,0,0-8.33,9.54c-.42,2.36,0,4.6-.16,6.68a7.65,7.65,0,0,1-.68,2.9,5.68,5.68,0,0,1-1.81,2.14,4.88,4.88,0,0,1-4.92.61,4.8,4.8,0,0,1-2.52-3.59,3.38,3.38,0,0,1,1.44-3.24,4.26,4.26,0,0,1,2.75-.75A4,4,0,0,1,218.6,173.21Z" transform="translate(-33.03 -65.37)"/><path class="cls-4" d="M256.81,179.77a5.09,5.09,0,0,0,1.51.12h4.14a44.66,44.66,0,0,0,13.46-2.32,23.3,23.3,0,0,0,11-8,15.45,15.45,0,0,0,1.95-3.68,5,5,0,0,0,.38-1.48,30.1,30.1,0,0,1-2.8,4.82,24.08,24.08,0,0,1-10.81,7.62,50,50,0,0,1-13.21,2.52A52.76,52.76,0,0,0,256.81,179.77Z" transform="translate(-33.03 -65.37)"/><path class="cls-4" d="M236.16,215.31a2.84,2.84,0,0,0,.69,1.38,5.32,5.32,0,0,0,3.77,1.84,8.22,8.22,0,0,0,5.83-2.2,5.21,5.21,0,0,0,1.78-3.37,3.71,3.71,0,0,0-1.9-3.65,2.92,2.92,0,0,0-3.85,1.36,2.47,2.47,0,0,0,.15,2.12,3.11,3.11,0,0,0,1.43,1.37,4.7,4.7,0,0,0,3.46.06,6.23,6.23,0,0,0,2.49-1.61,6.61,6.61,0,0,0,1.85-3.77,2.84,2.84,0,0,0-.09-1.53c-.07,0,0,.55-.22,1.48a6.81,6.81,0,0,1-1.94,3.41,5.78,5.78,0,0,1-2.31,1.37,4,4,0,0,1-2.91-.09,2.1,2.1,0,0,1-1.17-2.5,2.15,2.15,0,0,1,2.77-.93,3,3,0,0,1,1.44,2.86,4.61,4.61,0,0,1-1.5,2.88,7.85,7.85,0,0,1-5.29,2.16,5.26,5.26,0,0,1-3.56-1.47C236.42,215.8,236.23,215.28,236.16,215.31Z" transform="translate(-33.03 -65.37)"/><path class="cls-5" d="M319.59,392.25c0,.14-36.3.26-81.07.26s-81.08-.12-81.08-.26,36.29-.26,81.08-.26S319.59,392.11,319.59,392.25Z" transform="translate(-33.03 -65.37)"/><path class="cls-1" d="M350.41,75a44.4,44.4,0,0,0-43.57,62.27C312,148.94,322,158,326.41,170c3,8.18,3.26,17.2,6.35,25.35,6.35,16.76,25.74,27.42,43.29,23.81,10.54-2.16,20-8.75,30.76-9.42,11.52-.72,24.64,5.14,33.77-1.94,6.38-5,7.46-14.45,5.15-22.18s-7.29-14.33-11.38-21.29-7.42-15-5.9-22.93c1.37-7.19,6.47-13,9.67-19.59a39.26,39.26,0,0,0-38.07-56.34c-9.16.65-17.75,4.47-26.56,7S360.27,75.34,350.41,75" transform="translate(-33.03 -65.37)"/><path class="cls-10" d="M372.38,104.39s-16.95-.17-22.78,14.56.85,21.84,3.46,26.17,9.62,13.75,9.68,22.63l22.77-.15a60.49,60.49,0,0,1,8-22.22c6.81-11.34,6-19.61,4.14-24.55S389.72,103.66,372.38,104.39Z" transform="translate(-33.03 -65.37)"/><path class="cls-4" d="M376.85,167.14l0-.37a8.59,8.59,0,0,0-.13-1c-.11-1-.25-2.3-.44-4-.35-3.5-.88-8.59-1.11-14.91-.05-1.58-.09-3.23-.08-5s0-3.52.19-5.38a15,15,0,0,1,1.52-5.57,8.59,8.59,0,0,1,4.47-4.11,5.76,5.76,0,0,1,6.08,1.44,4.27,4.27,0,0,1,1.17,3.13,5.45,5.45,0,0,1-1.29,3.17,7.05,7.05,0,0,1-2.8,2.06,13.71,13.71,0,0,1-3.39,1,39.71,39.71,0,0,1-7.14.52,42.47,42.47,0,0,1-7.12-.66,13.52,13.52,0,0,1-3.34-1.11,8.58,8.58,0,0,1-2.75-2.1,6.49,6.49,0,0,1-1.5-3,5.08,5.08,0,0,1,.54-3.31,4.63,4.63,0,0,1,2.46-2.19,4.08,4.08,0,0,1,3.19.29,6.14,6.14,0,0,1,2.3,2.14,8.36,8.36,0,0,1,1.1,2.76,34.53,34.53,0,0,1,.31,5.75c0,3.71.07,7.17.09,10.33,0,6.3.07,11.4.1,14.94,0,1.76,0,3.12,0,4.07l0,1v0a7,7,0,0,0,0-1c0-.94-.05-2.31-.08-4.06-.05-3.55-.12-8.65-.21-14.95,0-3.15-.09-6.61-.13-10.32a34,34,0,0,0-.33-5.7,8,8,0,0,0-1-2.75,5.75,5.75,0,0,0-2.19-2,3.76,3.76,0,0,0-2.94-.27,4.26,4.26,0,0,0-2.26,2,4.68,4.68,0,0,0-.51,3.09A6.14,6.14,0,0,0,361,134a10.15,10.15,0,0,0,5.89,3.15,42.79,42.79,0,0,0,7.05.65,39.79,39.79,0,0,0,7.07-.51,14.15,14.15,0,0,0,3.32-.94A7.17,7.17,0,0,0,387,134.4a5.2,5.2,0,0,0,1.21-3,4,4,0,0,0-1.08-2.9,5.44,5.44,0,0,0-5.72-1.35,8.24,8.24,0,0,0-4.32,3.94,15.07,15.07,0,0,0-1.5,5.46,51.41,51.41,0,0,0-.18,5.35c0,1.72,0,3.37.05,4.94.2,6.32.69,11.39,1,14.92l.38,4c0,.45.06.8.08,1.06A1.24,1.24,0,0,1,376.85,167.14Z" transform="translate(-33.03 -65.37)"/><polygon class="cls-2" points="329.7 102.05 352.55 101.69 352.8 116.13 346.16 124.05 337.4 124.42 329.98 115.56 329.7 102.05"/><path class="cls-5" d="M379.19,189.42a6.19,6.19,0,0,0-4.58-1.86,6,6,0,0,0-4.33,2.26Z" transform="translate(-33.03 -65.37)"/><path class="cls-4" d="M385.22,180.31a3.57,3.57,0,0,1-.83-.35c-.52-.25-1.29-.58-2.26-.93a22.2,22.2,0,0,0-15.75.33c-.95.39-1.71.75-2.22,1a6,6,0,0,1-.81.39,3.75,3.75,0,0,1,.74-.51,18.26,18.26,0,0,1,2.2-1.13,21,21,0,0,1,15.92-.33,20.38,20.38,0,0,1,2.24,1A5,5,0,0,1,385.22,180.31Z" transform="translate(-33.03 -65.37)"/><path class="cls-4" d="M385.25,176.81a6.71,6.71,0,0,1-.83-.36c-.52-.24-1.29-.58-2.26-.92a22.19,22.19,0,0,0-15.75.33,23.34,23.34,0,0,0-2.22,1,4,4,0,0,1-.81.39,5.4,5.4,0,0,1,.74-.51,19.76,19.76,0,0,1,2.2-1.12,21,21,0,0,1,15.92-.33,16.62,16.62,0,0,1,2.24,1A4,4,0,0,1,385.25,176.81Z" transform="translate(-33.03 -65.37)"/><path class="cls-4" d="M385.07,173.47a4.22,4.22,0,0,1-.82-.35c-.53-.25-1.3-.58-2.27-.93a22.16,22.16,0,0,0-15.74.33c-1,.39-1.71.75-2.22,1a6.16,6.16,0,0,1-.82.39,3.82,3.82,0,0,1,.75-.51,18.13,18.13,0,0,1,2.19-1.13,21.07,21.07,0,0,1,15.93-.33,20.38,20.38,0,0,1,2.24,1A4.93,4.93,0,0,1,385.07,173.47Z" transform="translate(-33.03 -65.37)"/><g class="cls-12"><path class="cls-13" d="M360,145.15c-.31.35-1.1.29-2.24-.3a13,13,0,0,1-4-3.53,20,20,0,0,1-3.51-7.19,21.15,21.15,0,0,1,4.16-19,19.84,19.84,0,0,1,6.19-5.07,12.82,12.82,0,0,1,5.09-1.54c1.27-.06,2,.21,2.16.66.29,1-1.84,2.34-4.38,4.92a26.86,26.86,0,0,0-3.85,4.84,21.61,21.61,0,0,0-2.76,6.68,22.15,22.15,0,0,0-.29,7.22,27.57,27.57,0,0,0,1.48,6C359.29,142.25,360.66,144.39,360,145.15Z" transform="translate(-33.03 -65.37)"/></g><g class="cls-12"><path class="cls-13" d="M367.3,153.23a3.2,3.2,0,1,1-3.14-3.54A3.36,3.36,0,0,1,367.3,153.23Z" transform="translate(-33.03 -65.37)"/></g><path class="cls-4" d="M345.05,109.73a78,78,0,0,1-6.48-4.68c-3.48-2.68-6.32-4.89-6.27-5a69.65,69.65,0,0,1,6.48,4.68C342.26,107.41,345.11,109.65,345.05,109.73Z" transform="translate(-33.03 -65.37)"/><path class="cls-4" d="M349.84,103.38a24.08,24.08,0,0,1-2.71-3.09A25.31,25.31,0,0,1,344.68,97a24.25,24.25,0,0,1,2.72,3.09A23.16,23.16,0,0,1,349.84,103.38Z" transform="translate(-33.03 -65.37)"/><path class="cls-4" d="M360.27,101.92c-.09,0-1.25-3.19-2.59-7.19s-2.35-7.28-2.26-7.31,1.25,3.19,2.59,7.19S360.36,101.89,360.27,101.92Z" transform="translate(-33.03 -65.37)"/><path class="cls-4" d="M373.08,99.15a20.48,20.48,0,0,1-.68-3.64,19,19,0,0,1-.33-3.69,19.62,19.62,0,0,1,.68,3.64A19,19,0,0,1,373.08,99.15Z" transform="translate(-33.03 -65.37)"/><path class="cls-4" d="M385.65,103.49c-.1,0,.87-3.83,2.16-8.5s2.42-8.44,2.51-8.41-.88,3.83-2.17,8.5S385.74,103.52,385.65,103.49Z" transform="translate(-33.03 -65.37)"/><path class="cls-4" d="M396.24,108.72a25.19,25.19,0,0,1,2.13-3.56,24.26,24.26,0,0,1,2.42-3.36,25.19,25.19,0,0,1-2.13,3.56A24.26,24.26,0,0,1,396.24,108.72Z" transform="translate(-33.03 -65.37)"/><path class="cls-4" d="M413,106.53c.05.08-2.89,2.3-6.58,5s-6.72,4.76-6.78,4.68,2.89-2.3,6.58-5S413,106.45,413,106.53Z" transform="translate(-33.03 -65.37)"/></svg>