<svg xmlns="http://www.w3.org/2000/svg" width="88.276" height="184.096" viewBox="0 0 88.276 184.096">
  <g id="Group_40857" data-name="Group 40857" transform="translate(-997.906 -3286.904)">
    <text id="ideat" transform="translate(1046.182 3463)" fill="#3a3a3a" font-size="33" font-family="SegoeUI-Bold, Segoe UI" font-weight="700"><tspan x="-39.671" y="0">Ideat</tspan></text>
    <g id="Group_40847" data-name="Group 40847" transform="translate(998.916 3287.904)">
      <path id="Path_25240" data-name="Path 25240" d="M-3082.413-52.953c0,2.808-.016,5.617.007,8.425a6.9,6.9,0,0,1-.9,3.526c-3.632,6.526-7.218,13.078-10.81,19.626a1.371,1.371,0,0,1-1.277.878,1.384,1.384,0,0,1-1.261-.9c-3.731-6.8-7.486-13.587-11.192-20.4a4.437,4.437,0,0,1-.481-2.023c-.037-5.815-.028-11.631-.015-17.447,0-.9.082-1.8.145-2.7a.99.99,0,0,1,.983-1.053c1.754-.041,3.51-.033,5.265-.044.066,0,.132,0,.2.008,1.411.073,1.433-.006,1.285-1.4a20.4,20.4,0,0,1,.07-2.431c.006-.391-.076-.783-.077-1.174-.01-3.074-.022-6.147-.01-9.221.006-1.387.078-2.773.1-4.16.017-.9-.036-.946-.919-.949a7.474,7.474,0,0,1-3.753-.575,4.83,4.83,0,0,1-2.353-5.193,4.583,4.583,0,0,1,4.093-3.758,4.672,4.672,0,0,1,5.4,4.791c.008.538.016,1.078,0,1.616-.017.473.166.709.658.68.811-.049,1.622-.122,2.433-.125.722,0,1.444.09,2.167.118.488.019.607-.138.6-.712a7.408,7.408,0,0,1,.726-4.166,4.333,4.333,0,0,1,2.673-2.038,4.7,4.7,0,0,1,4.984,1.312,4.677,4.677,0,0,1,.839,5.2,4.449,4.449,0,0,1-4.2,2.836c-.551.031-1.105.008-1.658.013-.794.006-.88.089-.872.873q.063,6.261.128,12.523c.011,1.338,0,2.675-.015,4.012-.005.349-.093.7-.127,1.044-.065.675.124.9.8.884.923-.023,1.844-.117,2.767-.118.791,0,1.584.069,2.374.138.754.067,1.084.454,1.086,1.309.011,3.594,0,7.189,0,10.783Zm-3.521,11.44h-18.808a1.694,1.694,0,0,0,.072.3q2.392,4.354,4.784,8.706a.954.954,0,0,0,.979.51c2.319-.037,4.639-.07,6.958-.053a1.25,1.25,0,0,0,1.25-.754c1.269-2.35,2.564-4.687,3.849-7.028C-3086.564-40.353-3086.282-40.872-3085.933-41.513Zm-6.18-40.481h.128c0-.552-.014-1.1,0-1.656.018-.579-.26-.8-.813-.751a12.243,12.243,0,0,1-1.373.122c-.967-.015-1.934-.061-2.9-.13-.636-.045-.881.209-.854.841.062,1.431.132,2.863.125,4.294q-.031,6.7-.125,13.4c-.008.6.209.861.811.818.811-.056,1.622-.123,2.433-.127.656,0,1.313.081,1.969.123.5.033.752-.189.7-.705-.044-.479-.12-.957-.125-1.436-.013-1.2.011-2.405.012-3.608Q-3092.111-76.4-3092.113-81.994Zm-4.713,19.508c-1.086-.129-1.1-.129-1.081.986.018.9.118,1.8.121,2.7q.021,6.494,0,12.987a4.6,4.6,0,0,1-.1.843c-.125.652.063.9.737.906.263,0,.527-.029.79-.037a23.308,23.308,0,0,1,2.9-.058c1.373.131,1.328.2,1.334-1.144q.037-8.328.118-16.655c0-.443-.17-.678-.62-.65s-.871.11-1.307.119C-3094.9-62.473-3095.861-62.486-3096.826-62.486Zm-7.5-.132h-.593c-.795,0-.868.1-.811.875.046.636.068,1.276.069,1.914q.01,6.828,0,13.655c0,.434-.074.869-.118,1.3-.049.489.061.822.657.816,1.355-.015,2.711,0,4.066-.009.595,0,.776-.251.682-.843a5.525,5.525,0,0,1-.113-.842q-.01-6.994,0-13.987c0-.678.071-1.358.13-2.035.055-.62-.176-.884-.829-.858C-3102.234-62.59-3103.282-62.619-3104.328-62.618Zm16.02,0v0h-.265c-.986,0-1.014.035-.959,1,.034.594.081,1.188.082,1.783q.01,7.024,0,14.048a3.672,3.672,0,0,1-.061.721c-.164.807-.014,1.013.792,1.018,1.047.006,2.092,0,3.139,0,.458,0,.616-.276.6-.692-.042-1.252-.125-2.5-.12-3.757q.026-6.746.105-13.49c.006-.527-.274-.639-.705-.637C-3086.568-62.619-3087.438-62.621-3088.308-62.621Zm-1.268-25.741a4.189,4.189,0,0,0,.021.987.875.875,0,0,0,.464.515,3.981,3.981,0,0,0,2.2-.008,2.558,2.558,0,0,0,1.992-2.053,2.472,2.472,0,0,0-1.483-2.434,2.195,2.195,0,0,0-2.611.7A2.942,2.942,0,0,0-3089.576-88.362Zm-12.465,1.52a6.588,6.588,0,0,0,1.139-.017c.192-.038.491-.235.5-.375a14.368,14.368,0,0,0,0-2.281,2.455,2.455,0,0,0-2.031-2,2.444,2.444,0,0,0-2.361,1.377,2.167,2.167,0,0,0,.526,2.586A2.656,2.656,0,0,0-3102.041-86.842Z" transform="translate(3137.271 130.669)" fill="#b76bd6" stroke="#b76bd6" stroke-width="2"/>
      <path id="Path_25241" data-name="Path 25241" d="M-3079.857-109.076a27.191,27.191,0,0,1-1.626,9.549,26.987,26.987,0,0,1-6.73,10.334c-.175.168-.367.319-.557.469a1.253,1.253,0,0,1-1.781.033,1.477,1.477,0,0,1,.117-1.935c.831-.886,1.728-1.717,2.5-2.65a24.4,24.4,0,0,0-3.125-34.351c-6.221-5.192-13.377-7.08-21.266-5.251-8.629,2-14.551,7.359-17.763,15.6a23.158,23.158,0,0,0-.9,13.892,24.4,24.4,0,0,0,6.839,12.112,10.428,10.428,0,0,1,.873.9,1.218,1.218,0,0,1-.065,1.679,1.143,1.143,0,0,1-1.618.077,33.992,33.992,0,0,1-3.373-3.543,26.169,26.169,0,0,1-5.222-21.67c2.038-10.456,8.25-17.575,18.366-20.836a26.922,26.922,0,0,1,33.96,17.182A26.234,26.234,0,0,1-3079.857-109.076Z" transform="translate(3148.765 149.436)" fill="#622feb" stroke="#622feb" stroke-width="2"/>
      <path id="Path_25242" data-name="Path 25242" d="M-3159.1-105.118c.834.21,1.882.468,2.926.737q2.4.618,4.8,1.251a1.186,1.186,0,0,1,.986,1.571,1.122,1.122,0,0,1-1.5.819c-1.27-.278-2.524-.624-3.783-.947-1.345-.345-2.691-.686-4.031-1.051a1.165,1.165,0,0,1-.89-1.406C-3160.493-104.8-3160.055-105.139-3159.1-105.118Z" transform="translate(3160.609 135.646)" fill="#622feb" stroke="#622feb" stroke-width="2"/>
      <path id="Path_25243" data-name="Path 25243" d="M-3018.06-104.075a1.114,1.114,0,0,1-.883,1.225c-2.527.7-5.052,1.415-7.583,2.1a1.17,1.17,0,0,1-1.589-.761,1.223,1.223,0,0,1,1-1.636q3.469-.974,6.942-1.94a4.034,4.034,0,0,1,.908-.162A1.083,1.083,0,0,1-3018.06-104.075Z" transform="translate(3101.464 135.704)" fill="#622feb" stroke="#622feb" stroke-width="2"/>
      <path id="Path_25244" data-name="Path 25244" d="M-3068.772-160.278a1.15,1.15,0,0,1,1.214,1.564c-.319,1.4-.694,2.781-1.048,4.17q-.4,1.571-.812,3.138a1.2,1.2,0,0,1-1.606,1.032c-.7-.163-1.008-.761-.789-1.625q.935-3.688,1.891-7.37A1.064,1.064,0,0,1-3068.772-160.278Z" transform="translate(3120.985 160.28)" fill="#b76bd6" stroke="#b76bd6" stroke-width="2"/>
      <path id="Path_25245" data-name="Path 25245" d="M-3104.47-150.555a1.037,1.037,0,0,1-1.035-.848c-.672-2.4-1.364-4.8-2-7.207-.292-1.112.316-1.827,1.372-1.625a1.328,1.328,0,0,1,.892.716c.745,2.47,1.437,4.959,2.1,7.453C-3102.911-151.186-3103.458-150.548-3104.47-150.555Z" transform="translate(3136.925 160.275)" fill="#b76bd6" stroke="#b76bd6" stroke-width="2"/>
      <path id="Path_25246" data-name="Path 25246" d="M-3035.4-138.055a5.665,5.665,0,0,1-.617,1.076q-2.172,2.27-4.394,4.494a1.377,1.377,0,0,1-1.957.157,1.43,1.43,0,0,1,.154-1.967c1.444-1.488,2.9-2.96,4.351-4.443a1.322,1.322,0,0,1,1.628-.335C-3035.886-138.89-3035.688-138.427-3035.4-138.055Z" transform="translate(3107.947 150.878)" fill="#b76bd6" stroke="#b76bd6" stroke-width="2"/>
      <path id="Path_25247" data-name="Path 25247" d="M-3140.031-139.293a4.736,4.736,0,0,1,.993.572c1.5,1.437,2.978,2.9,4.452,4.365a1.38,1.38,0,0,1,.169,1.956,1.386,1.386,0,0,1-1.917-.1c-1.51-1.46-3.012-2.928-4.492-4.418a1.819,1.819,0,0,1-.471-.914C-3141.44-138.656-3140.919-139.2-3140.031-139.293Z" transform="translate(3151.995 150.907)" fill="#b76bd6" stroke="#b76bd6" stroke-width="2"/>
      <path id="Path_25248" data-name="Path 25248" d="M-3147.714-71.021c.985-.009,1.354.252,1.458.886a1.231,1.231,0,0,1-.946,1.521c-1.418.412-2.851.776-4.276,1.164-.339.093-.674.2-1.01.309a1.313,1.313,0,0,1-1.709-.695,1.222,1.222,0,0,1,.941-1.66q2.248-.677,4.507-1.315C-3148.348-70.924-3147.929-70.978-3147.714-71.021Z" transform="translate(3157.782 120.418)" fill="#622feb" stroke="#622feb" stroke-width="2"/>
      <path id="Path_25249" data-name="Path 25249" d="M-3029.682-70.915c.657.16,1.581.372,2.5.615,1,.266,2,.538,2.991.852a1.177,1.177,0,0,1,.834,1.48,1.234,1.234,0,0,1-1.523.822c-.454-.093-.9-.2-1.354-.318-1.368-.348-2.739-.691-4.1-1.055a1.283,1.283,0,0,1-.946-1.415C-3031.2-70.6-3030.74-70.945-3029.682-70.915Z" transform="translate(3102.86 120.372)" fill="#622feb" stroke="#622feb" stroke-width="2"/>
    </g>
  </g>
</svg>
