<svg id="Layer_1" data-name="Layer 1" xmlns="http://www.w3.org/2000/svg" viewBox="0 0 285.43 248.87"><defs><style>.cls-1{fill:#f5f5f5;}.cls-2{fill:#407bff;}.cls-11,.cls-3,.cls-5,.cls-7,.cls-8,.cls-9{fill:#fff;}.cls-12,.cls-3{opacity:0.4;}.cls-11,.cls-3,.cls-4,.cls-5,.cls-7,.cls-8{isolation:isolate;}.cls-10,.cls-4,.cls-7{opacity:0.2;}.cls-5{opacity:0.7;}.cls-6{fill:#263238;}.cls-8{opacity:0.8;}.cls-11{opacity:0.3;}</style></defs><title>Robot_with_Drone</title><g id="freepik--Shadow--inject-46"><ellipse id="freepik--path--inject-46" class="cls-1" cx="142.71" cy="237.55" rx="142.71" ry="11.32"/></g><g id="freepik--Drone--inject-153"><ellipse class="cls-2" cx="260.23" cy="12.52" rx="19.07" ry="2.67"/><ellipse class="cls-3" cx="260.23" cy="12.52" rx="19.07" ry="2.67"/><path class="cls-2" d="M242.21,38.79c1.12-.1,2.27-.11,3.38-.29l1.69-.23,1.66-.33a13.31,13.31,0,0,0,1.66-.38c.55-.15,1.1-.27,1.65-.44a39.13,39.13,0,0,0,6.32-2.53,31.12,31.12,0,0,0,3.34-2H259a1.76,1.76,0,1,1,0-3.51h13.24a1.76,1.76,0,1,1,0,3.51H267.6l-.75,1.76a1.27,1.27,0,0,1-1.68.68,1.29,1.29,0,0,1-.68-.68l-.34-.79a32.25,32.25,0,0,1-4.44,3.08,40.79,40.79,0,0,1-6.59,3.09c-.57.21-1.15.38-1.75.57a17.77,17.77,0,0,1-1.76.52l-1.75.45-1.76.35c-1.19.26-2.41.35-3.62.52s-2.43.16-3.64.25v-3.6C240,38.8,241.09,38.84,242.21,38.79Z" transform="translate(-5.43 -15.71)"/><path class="cls-4" d="M242.21,38.79c1.12-.1,2.27-.11,3.38-.29l1.69-.23,1.66-.33a13.31,13.31,0,0,0,1.66-.38c.55-.15,1.1-.27,1.65-.44a39.13,39.13,0,0,0,6.32-2.53,31.12,31.12,0,0,0,3.34-2H259a1.76,1.76,0,1,1,0-3.51h13.24a1.76,1.76,0,1,1,0,3.51H267.6l-.75,1.76a1.27,1.27,0,0,1-1.68.68,1.29,1.29,0,0,1-.68-.68l-.34-.79a32.25,32.25,0,0,1-4.44,3.08,40.79,40.79,0,0,1-6.59,3.09c-.57.21-1.15.38-1.75.57a17.77,17.77,0,0,1-1.76.52l-1.75.45-1.76.35c-1.19.26-2.41.35-3.62.52s-2.43.16-3.64.25v-3.6C240,38.8,241.09,38.84,242.21,38.79Z" transform="translate(-5.43 -15.71)"/><ellipse class="cls-2" cx="163.23" cy="12.52" rx="19.07" ry="2.67"/><ellipse class="cls-3" cx="163.23" cy="12.52" rx="19.07" ry="2.67"/><path class="cls-2" d="M192.11,38.79c-1.13-.1-2.27-.11-3.38-.29L187,38.27l-1.67-.33a14,14,0,0,1-1.65-.38c-.55-.15-1.1-.27-1.65-.44a39,39,0,0,1-6.31-2.53,30.3,30.3,0,0,1-3.35-2h2.87a1.76,1.76,0,0,0,0-3.51H162.05a1.76,1.76,0,1,0,0,3.51h4.67l.75,1.76a1.28,1.28,0,0,0,2.36,0l.34-.79a33.15,33.15,0,0,0,4.44,3.08,41.19,41.19,0,0,0,6.59,3.09c.57.21,1.15.38,1.76.57a17.77,17.77,0,0,0,1.76.52l1.75.45,1.76.35c1.19.26,2.41.35,3.61.52s2.44.16,3.66.25v-3.6C194.37,38.8,193.24,38.84,192.11,38.79Z" transform="translate(-5.43 -15.71)"/><path class="cls-4" d="M192.11,38.79c-1.13-.1-2.27-.11-3.38-.29L187,38.27l-1.67-.33a14,14,0,0,1-1.65-.38c-.55-.15-1.1-.27-1.65-.44a39,39,0,0,1-6.31-2.53,30.3,30.3,0,0,1-3.35-2h2.87a1.76,1.76,0,0,0,0-3.51H162.05a1.76,1.76,0,1,0,0,3.51h4.67l.75,1.76a1.28,1.28,0,0,0,2.36,0l.34-.79a33.15,33.15,0,0,0,4.44,3.08,41.19,41.19,0,0,0,6.59,3.09c.57.21,1.15.38,1.76.57a17.77,17.77,0,0,0,1.76.52l1.75.45,1.76.35c1.19.26,2.41.35,3.61.52s2.44.16,3.66.25v-3.6C194.37,38.8,193.24,38.84,192.11,38.79Z" transform="translate(-5.43 -15.71)"/><ellipse class="cls-2" cx="147.3" cy="2.95" rx="21.14" ry="2.95"/><ellipse class="cls-5" cx="147.3" cy="2.95" rx="21.14" ry="2.95"/><path class="cls-2" d="M145.4,23.49h14.67A1.93,1.93,0,0,0,162,21.58h0a1.93,1.93,0,0,0-1.93-1.92H145.4a1.92,1.92,0,0,0-1.92,1.92h0A1.92,1.92,0,0,0,145.4,23.49Z" transform="translate(-5.43 -15.71)"/><path class="cls-2" d="M155.37,22.39,154,25.48a1.43,1.43,0,0,1-1.85.78,1.45,1.45,0,0,1-.78-.78l-1.3-3.08Z" transform="translate(-5.43 -15.71)"/><path class="cls-2" d="M154.62,21.78a38.29,38.29,0,0,0,5.5,6.29A37.24,37.24,0,0,0,166.84,33a36.47,36.47,0,0,0,3.71,1.83c.63.25,1.29.46,1.93.68.32.12.64.24,1,.34l1,.23a30.3,30.3,0,0,0,8.05.93v4.39a34.09,34.09,0,0,1-9.13-1.58l-1.11-.33L171.19,39c-.71-.3-1.43-.57-2.13-.88a37.85,37.85,0,0,1-4-2.25,40.36,40.36,0,0,1-7-5.74c-1-1.08-2-2.22-2.95-3.4A34.12,34.12,0,0,1,152.52,23Z" transform="translate(-5.43 -15.71)"/><path class="cls-2" d="M187.73,71.39H175.49a4.45,4.45,0,0,1-4-2.47l-.57-1.12a1.32,1.32,0,0,1,2.36-1.18l.57,1.13a1.83,1.83,0,0,0,1.64,1h12.24a1.84,1.84,0,0,0,1.64-1l.57-1.13a1.32,1.32,0,0,1,2.41,1.06l-.06.12-.57,1.12A4.42,4.42,0,0,1,187.73,71.39Z" transform="translate(-5.43 -15.71)"/><path class="cls-2" d="M186.57,71.39a1.32,1.32,0,0,1-1.32-1.31,1.33,1.33,0,0,1,.22-.73l11.24-17A1.32,1.32,0,0,1,199,53.68a.83.83,0,0,1-.08.12l-11.23,17A1.33,1.33,0,0,1,186.57,71.39Z" transform="translate(-5.43 -15.71)"/><path class="cls-2" d="M175.48,71.39a1.22,1.22,0,0,1-.71-.22,1.31,1.31,0,0,1-.39-1.81h0l11.31-17.28a1.32,1.32,0,0,1,1.81-.44,1.3,1.3,0,0,1,.44,1.8.35.35,0,0,1-.05.08L176.62,70.79A1.31,1.31,0,0,1,175.48,71.39Z" transform="translate(-5.43 -15.71)"/><path class="cls-2" d="M245.29,71.39H233.1a4.45,4.45,0,0,1-4-2.47l-.57-1.12a1.32,1.32,0,0,1,2.36-1.18l.57,1.13a1.83,1.83,0,0,0,1.64,1h12.24a1.84,1.84,0,0,0,1.64-1l.57-1.13A1.32,1.32,0,0,1,250,67.68l-.06.12-.57,1.12A4.45,4.45,0,0,1,245.29,71.39Z" transform="translate(-5.43 -15.71)"/><path class="cls-2" d="M234.24,71.39a1.33,1.33,0,0,1-1.1-.59l-11.24-17A1.32,1.32,0,0,1,224,52.23a.83.83,0,0,1,.08.12l11.24,17a1.32,1.32,0,0,1-.37,1.82,1.28,1.28,0,0,1-.73.22Z" transform="translate(-5.43 -15.71)"/><path class="cls-2" d="M245.3,71.39a1.3,1.3,0,0,1-1.1-.6L232.92,53.51A1.32,1.32,0,0,1,235.08,52a.35.35,0,0,0,0,.08L246.4,69.35a1.32,1.32,0,0,1-.38,1.82h0A1.19,1.19,0,0,1,245.3,71.39Z" transform="translate(-5.43 -15.71)"/><rect class="cls-6" x="200.24" y="37.08" width="3.13" height="8.25"/><path class="cls-2" d="M237.36,36.66A127.28,127.28,0,0,0,210.42,35a127.05,127.05,0,0,0-26.92,1.64,3.38,3.38,0,0,0-2.69,3.2v9.56a3.36,3.36,0,0,0,2.69,3.19,127.05,127.05,0,0,0,26.92,1.64,127.28,127.28,0,0,0,26.94-1.64A3.38,3.38,0,0,0,240,49.42V39.87A3.37,3.37,0,0,0,237.36,36.66Z" transform="translate(-5.43 -15.71)"/><path class="cls-7" d="M237.36,36.66A127.28,127.28,0,0,0,210.42,35a127.05,127.05,0,0,0-26.92,1.64,3.38,3.38,0,0,0-2.69,3.2v9.56a3.36,3.36,0,0,0,2.69,3.19,127.05,127.05,0,0,0,26.92,1.64,127.28,127.28,0,0,0,26.94-1.64A3.38,3.38,0,0,0,240,49.42V39.87A3.37,3.37,0,0,0,237.36,36.66Z" transform="translate(-5.43 -15.71)"/><path class="cls-2" d="M211.67,56.85a5.73,5.73,0,1,1-8-1.06,5.73,5.73,0,0,1,8,1.06Z" transform="translate(-5.43 -15.71)"/><path class="cls-2" d="M205.06,61.92c.88,1.13.88,2.57,0,3.21s-2.23.27-3.1-.88-.88-2.57,0-3.22S204.19,60.8,205.06,61.92Z" transform="translate(-5.43 -15.71)"/><path class="cls-7" d="M205.06,61.92c.88,1.13.88,2.57,0,3.21s-2.23.27-3.1-.88-.88-2.57,0-3.22S204.19,60.8,205.06,61.92Z" transform="translate(-5.43 -15.71)"/><path class="cls-6" d="M204.52,62.33a1.38,1.38,0,0,1-.79,1.79,1.38,1.38,0,0,1-1.34-2.39A1.59,1.59,0,0,1,204.52,62.33Z" transform="translate(-5.43 -15.71)"/><path class="cls-6" d="M238.1,47.44a.44.44,0,0,1-.44-.44V41.4a.44.44,0,0,1,.88,0V47A.44.44,0,0,1,238.1,47.44Z" transform="translate(-5.43 -15.71)"/><path class="cls-6" d="M236.66,47.44a.44.44,0,0,1-.44-.44V41.4a.44.44,0,0,1,.44-.44.44.44,0,0,1,.44.44V47A.44.44,0,0,1,236.66,47.44Z" transform="translate(-5.43 -15.71)"/><path class="cls-6" d="M235.22,47.44a.44.44,0,0,1-.44-.44V41.4a.44.44,0,0,1,.44-.44.44.44,0,0,1,.44.44V47A.43.43,0,0,1,235.22,47.44Z" transform="translate(-5.43 -15.71)"/><path class="cls-7" d="M191.71,42.31a1.27,1.27,0,0,0,1.18.81h18A1.25,1.25,0,0,0,212,42.5l4.12-7.08a128.57,128.57,0,0,0-26.89.42Z" transform="translate(-5.43 -15.71)"/><path class="cls-7" d="M225.84,36.66c-2.44-.41-4.9-.75-7.36-1l-4.62,7.9a3.4,3.4,0,0,1-3,1.71h-18a3.45,3.45,0,0,1-3.19-2.2L187,36.1c-1.18.17-2.36.34-3.52.54a3.38,3.38,0,0,0-2.68,3.2V49.4a3.38,3.38,0,0,0,2.68,3.2,127.55,127.55,0,0,0,42.35,0,3.39,3.39,0,0,0,2.69-3.2V39.87A3.38,3.38,0,0,0,225.84,36.66Zm-9.18,13.17a1.25,1.25,0,1,1,1.25-1.25,1.25,1.25,0,0,1-1.25,1.25Zm4.84,0a1.25,1.25,0,1,1,1.25-1.25,1.25,1.25,0,0,1-1.25,1.25Z" transform="translate(-5.43 -15.71)"/><ellipse class="cls-2" cx="252.34" cy="2.95" rx="21.14" ry="2.95"/><ellipse class="cls-5" cx="252.34" cy="2.95" rx="21.14" ry="2.95"/><path class="cls-2" d="M265.11,23.49H250.44a1.93,1.93,0,0,1-1.93-1.91h0a1.93,1.93,0,0,1,1.93-1.92h14.67A1.92,1.92,0,0,1,267,21.58h0A1.92,1.92,0,0,1,265.11,23.49Z" transform="translate(-5.43 -15.71)"/><path class="cls-2" d="M255.14,22.39l1.35,3.09a1.43,1.43,0,0,0,1.85.78,1.45,1.45,0,0,0,.78-.78l1.3-3.08Z" transform="translate(-5.43 -15.71)"/><path class="cls-2" d="M258,23a31.93,31.93,0,0,1-2.59,3.74,43.28,43.28,0,0,1-3,3.4,40.44,40.44,0,0,1-11,8c-.69.32-1.41.59-2.12.87l-1.06.44-1.11.34A34.55,34.55,0,0,1,228,41.36V37a30.76,30.76,0,0,0,8-.92l1-.24c.33-.1.64-.22,1-.33.64-.23,1.3-.43,1.93-.69A31.65,31.65,0,0,0,243.62,33a36.57,36.57,0,0,0,6.74-4.91,37.77,37.77,0,0,0,5.49-6.29Z" transform="translate(-5.43 -15.71)"/></g><g id="freepik--City--inject-153"><path class="cls-2" d="M49.25,75.65l152.17-13a1.86,1.86,0,0,1,2.49.47,2.77,2.77,0,0,1,.69,2.79L195,191.06Z" transform="translate(-5.43 -15.71)"/><path class="cls-5" d="M49.25,75.65l152.17-13a1.86,1.86,0,0,1,2.49.47,2.77,2.77,0,0,1,.69,2.79L195,191.06Z" transform="translate(-5.43 -15.71)"/><rect class="cls-2" x="41.08" y="59.49" width="148.49" height="120.63" rx="4.34"/><rect class="cls-8" x="41.08" y="59.49" width="148.49" height="120.63" rx="4.34"/><path class="cls-9" d="M120.22,152.84a19.41,19.41,0,1,1,19.41-19.41h0A19.44,19.44,0,0,1,120.22,152.84Zm0-37.94a18.54,18.54,0,1,0,18.53,18.54h0A18.56,18.56,0,0,0,120.22,114.9Z" transform="translate(-5.43 -15.71)"/><polygon class="cls-9" points="46.78 82.5 45.91 82.5 45.91 64.71 63.69 64.71 63.69 65.59 46.78 65.59 46.78 82.5"/><polygon class="cls-9" points="63.69 174.53 45.91 174.53 45.91 156.74 46.78 156.74 46.78 173.65 63.69 173.65 63.69 174.53"/><polygon class="cls-9" points="183.68 174.53 165.89 174.53 165.89 173.65 182.8 173.65 182.8 156.74 183.68 156.74 183.68 174.53"/><polygon class="cls-9" points="183.68 82.5 182.8 82.5 182.8 65.59 165.89 65.59 165.89 64.71 183.68 64.71 183.68 82.5"/><path class="cls-2" d="M190.39,190.19v5.62H174.14v.68h-2.06v-.68h-1.21v.68h-2v-.68h-1.21v.68h-2.05v-.68h-7v.5H156.5v-.5h-1.2v.5h-2.05v-.5h-102a4.71,4.71,0,0,1-4-2.21,4.14,4.14,0,0,1-.55-1.21,4.72,4.72,0,0,1-.19-1.34V175h5.9V162H50.84v-2.53h1.57v-3.24H66.87V123h3.61v-5.06h17V123H90v11.22h8v31H102V119.23h3.44V114.9h8V100.07h4.39V89.6h5.36V83.87l1.91-4.82V89.58h5.31v10.48h4.39v14.82h7.9v4.33h3.43v40.13h5.22V128.2l1.91,2.89v12.29h6.87v46.81h2.53v-56h2.53V117.43l1.76-3.85v7.28L180,127v7.22h6.14v56Z" transform="translate(-5.43 -15.71)"/><path class="cls-3" d="M190.39,190.19v5.62H174.14v.68h-2.06v-.68h-1.21v.68h-2v-.68h-1.21v.68h-2.05v-.68h-7v.5H156.5v-.5h-1.2v.5h-2.05v-.5h-102a4.71,4.71,0,0,1-4-2.21,4.14,4.14,0,0,1-.55-1.21,4.72,4.72,0,0,1-.19-1.34V175h5.9V162H50.84v-2.53h1.57v-3.24H66.87V123h3.61v-5.06h17V123H90v11.22h8v31H102V119.23h3.44V114.9h8V100.07h4.39V89.6h5.36V83.87l1.91-4.82V89.58h5.31v10.48h4.39v14.82h7.9v4.33h3.43v40.13h5.22V128.2l1.91,2.89v12.29h6.87v46.81h2.53v-56h2.53V117.43l1.76-3.85v7.28L180,127v7.22h6.14v56Z" transform="translate(-5.43 -15.71)"/><g class="cls-10"><rect class="cls-9" x="63.99" y="109.04" width="2.05" height="2.05"/><rect class="cls-9" x="63.99" y="112.47" width="2.05" height="2.05"/><rect class="cls-9" x="63.99" y="115.9" width="2.05" height="2.05"/><rect class="cls-9" x="63.99" y="119.34" width="2.05" height="2.05"/><rect class="cls-9" x="63.99" y="122.78" width="2.05" height="2.05"/><rect class="cls-9" x="63.99" y="126.21" width="2.05" height="2.05"/><rect class="cls-9" x="63.99" y="129.64" width="2.05" height="2.05"/><rect class="cls-9" x="63.99" y="133.07" width="2.05" height="2.05"/><rect class="cls-9" x="63.99" y="143.38" width="2.05" height="2.05"/><rect class="cls-9" x="63.99" y="146.81" width="2.05" height="2.05"/><rect class="cls-9" x="67.25" y="109.04" width="2.05" height="2.05"/><rect class="cls-9" x="67.25" y="112.47" width="2.05" height="2.05"/><rect class="cls-9" x="67.25" y="115.9" width="2.05" height="2.05"/><rect class="cls-9" x="67.25" y="119.34" width="2.05" height="2.05"/><rect class="cls-9" x="67.25" y="122.78" width="2.05" height="2.05"/><rect class="cls-9" x="67.25" y="126.21" width="2.05" height="2.05"/><rect class="cls-9" x="67.25" y="129.64" width="2.05" height="2.05"/><rect class="cls-9" x="67.25" y="133.07" width="2.05" height="2.05"/><rect class="cls-9" x="67.25" y="146.81" width="2.05" height="2.05"/><rect class="cls-9" x="70.5" y="109.04" width="2.05" height="2.05"/><rect class="cls-9" x="70.5" y="112.47" width="2.05" height="2.05"/><rect class="cls-9" x="70.5" y="115.9" width="2.05" height="2.05"/><rect class="cls-9" x="70.5" y="119.34" width="2.05" height="2.05"/><rect class="cls-9" x="70.5" y="122.78" width="2.05" height="2.05"/><rect class="cls-9" x="70.5" y="126.21" width="2.05" height="2.05"/><rect class="cls-9" x="70.5" y="129.64" width="2.05" height="2.05"/><rect class="cls-9" x="70.5" y="133.07" width="2.05" height="2.05"/><rect class="cls-9" x="73.75" y="109.04" width="2.05" height="2.05"/><rect class="cls-9" x="73.75" y="112.47" width="2.05" height="2.05"/><rect class="cls-9" x="73.75" y="115.9" width="2.05" height="2.05"/><rect class="cls-9" x="73.75" y="119.34" width="2.05" height="2.05"/><rect class="cls-9" x="73.75" y="122.78" width="2.05" height="2.05"/><rect class="cls-9" x="73.75" y="126.21" width="2.05" height="2.05"/><rect class="cls-9" x="73.75" y="133.07" width="2.05" height="2.05"/><rect class="cls-9" x="73.75" y="136.51" width="2.05" height="2.05"/><rect class="cls-9" x="73.75" y="146.81" width="2.05" height="2.05"/><rect class="cls-9" x="73.75" y="150.25" width="2.05" height="2.05"/><rect class="cls-9" x="73.75" y="153.68" width="2.05" height="2.05"/><rect class="cls-9" x="73.75" y="157.11" width="2.05" height="2.05"/><rect class="cls-9" x="73.75" y="160.55" width="2.05" height="2.05"/><rect class="cls-9" x="73.75" y="163.98" width="2.05" height="2.05"/><rect class="cls-9" x="73.75" y="167.42" width="2.05" height="2.05"/><rect class="cls-9" x="77.01" y="109.04" width="2.05" height="2.05"/><rect class="cls-9" x="77.01" y="112.47" width="2.05" height="2.05"/><rect class="cls-9" x="77.01" y="115.9" width="2.05" height="2.05"/><rect class="cls-9" x="77.01" y="119.34" width="2.05" height="2.05"/><rect class="cls-9" x="77.01" y="122.78" width="2.05" height="2.05"/><rect class="cls-9" x="77.01" y="126.21" width="2.05" height="2.05"/><rect class="cls-9" x="77.01" y="136.51" width="2.05" height="2.05"/><rect class="cls-9" x="77.01" y="139.94" width="2.05" height="2.05"/><rect class="cls-9" x="77.01" y="143.38" width="2.05" height="2.05"/><rect class="cls-9" x="77.01" y="146.81" width="2.05" height="2.05"/><rect class="cls-9" x="77.01" y="150.25" width="2.05" height="2.05"/><rect class="cls-9" x="77.01" y="153.68" width="2.05" height="2.05"/><rect class="cls-9" x="77.01" y="157.11" width="2.05" height="2.05"/><rect class="cls-9" x="77.01" y="160.55" width="2.05" height="2.05"/><rect class="cls-9" x="77.01" y="163.98" width="2.05" height="2.05"/><rect class="cls-9" x="77.01" y="167.42" width="2.05" height="2.05"/><rect class="cls-9" x="77.01" y="170.85" width="2.05" height="2.05"/><rect class="cls-9" x="77.01" y="177.72" width="2.05" height="2.05"/><rect class="cls-9" x="80.26" y="109.04" width="2.05" height="2.05"/><rect class="cls-9" x="80.26" y="112.47" width="2.05" height="2.05"/><rect class="cls-9" x="80.26" y="115.9" width="2.05" height="2.05"/><rect class="cls-9" x="80.26" y="119.34" width="2.05" height="2.05"/><rect class="cls-9" x="80.26" y="122.78" width="2.05" height="2.05"/><rect class="cls-9" x="80.26" y="126.21" width="2.05" height="2.05"/><rect class="cls-9" x="80.26" y="136.51" width="2.05" height="2.05"/><rect class="cls-9" x="80.26" y="139.94" width="2.05" height="2.05"/><rect class="cls-9" x="80.26" y="143.38" width="2.05" height="2.05"/><rect class="cls-9" x="80.26" y="146.81" width="2.05" height="2.05"/><rect class="cls-9" x="80.26" y="157.11" width="2.05" height="2.05"/><rect class="cls-9" x="80.26" y="160.55" width="2.05" height="2.05"/><rect class="cls-9" x="80.26" y="163.98" width="2.05" height="2.05"/><rect class="cls-9" x="80.26" y="167.42" width="2.05" height="2.05"/><rect class="cls-9" x="80.26" y="170.85" width="2.05" height="2.05"/><rect class="cls-9" x="80.26" y="177.72" width="2.05" height="2.05"/><rect class="cls-9" x="109.78" y="87" width="2.05" height="2.05"/><rect class="cls-9" x="109.78" y="90.43" width="2.05" height="2.05"/><rect class="cls-9" x="109.78" y="93.88" width="2.05" height="2.05"/><rect class="cls-9" x="109.78" y="97.31" width="2.05" height="2.05"/><rect class="cls-9" x="109.78" y="100.74" width="2.05" height="2.05"/><rect class="cls-9" x="109.78" y="104.17" width="2.05" height="2.05"/><rect class="cls-9" x="109.78" y="107.61" width="2.05" height="2.05"/><rect class="cls-9" x="109.78" y="117.91" width="2.05" height="2.05"/><rect class="cls-9" x="109.78" y="121.35" width="2.05" height="2.05"/><rect class="cls-9" x="109.78" y="124.78" width="2.05" height="2.05"/><rect class="cls-9" x="113.03" y="87" width="2.05" height="2.05"/><rect class="cls-9" x="113.03" y="90.43" width="2.05" height="2.05"/><rect class="cls-9" x="113.03" y="93.88" width="2.05" height="2.05"/><rect class="cls-9" x="113.03" y="97.31" width="2.05" height="2.05"/><rect class="cls-9" x="113.03" y="100.74" width="2.05" height="2.05"/><rect class="cls-9" x="113.03" y="104.17" width="2.05" height="2.05"/><rect class="cls-9" x="113.03" y="107.61" width="2.05" height="2.05"/><rect class="cls-9" x="116.29" y="87" width="2.05" height="2.05"/><rect class="cls-9" x="116.29" y="90.43" width="2.05" height="2.05"/><rect class="cls-9" x="116.29" y="93.88" width="2.05" height="2.05"/><rect class="cls-9" x="116.29" y="97.31" width="2.05" height="2.05"/><rect class="cls-9" x="116.29" y="100.74" width="2.05" height="2.05"/><rect class="cls-9" x="116.29" y="104.17" width="2.05" height="2.05"/><rect class="cls-9" x="116.29" y="107.61" width="2.05" height="2.05"/><rect class="cls-9" x="119.55" y="87" width="2.05" height="2.05"/><rect class="cls-9" x="119.55" y="90.43" width="2.05" height="2.05"/><rect class="cls-9" x="119.55" y="93.88" width="2.05" height="2.05"/><rect class="cls-9" x="119.55" y="97.31" width="2.05" height="2.05"/><rect class="cls-9" x="119.55" y="100.74" width="2.05" height="2.05"/><rect class="cls-9" x="119.55" y="104.17" width="2.05" height="2.05"/><rect class="cls-9" x="119.55" y="107.61" width="2.05" height="2.05"/><rect class="cls-9" x="119.55" y="111.04" width="2.05" height="2.05"/><rect class="cls-9" x="119.55" y="114.47" width="2.05" height="2.05"/><rect class="cls-9" x="119.55" y="117.91" width="2.05" height="2.05"/><rect class="cls-9" x="119.55" y="121.35" width="2.05" height="2.05"/><rect class="cls-9" x="122.79" y="87" width="2.05" height="2.05"/><rect class="cls-9" x="122.79" y="90.43" width="2.05" height="2.05"/><rect class="cls-9" x="122.79" y="93.88" width="2.05" height="2.05"/><rect class="cls-9" x="122.79" y="97.31" width="2.05" height="2.05"/><rect class="cls-9" x="122.79" y="100.74" width="2.05" height="2.05"/><rect class="cls-9" x="122.79" y="104.17" width="2.05" height="2.05"/><rect class="cls-9" x="122.79" y="107.61" width="2.05" height="2.05"/><rect class="cls-9" x="122.79" y="111.04" width="2.05" height="2.05"/><rect class="cls-9" x="122.79" y="114.47" width="2.05" height="2.05"/><rect class="cls-9" x="122.79" y="117.91" width="2.05" height="2.05"/><rect class="cls-9" x="122.79" y="121.35" width="2.05" height="2.05"/><rect class="cls-9" x="122.79" y="124.78" width="2.05" height="2.05"/><rect class="cls-9" x="122.79" y="135.08" width="2.05" height="2.05"/><rect class="cls-9" x="122.79" y="138.52" width="2.05" height="2.05"/><rect class="cls-9" x="126.05" y="87" width="2.05" height="2.05"/><rect class="cls-9" x="126.05" y="90.43" width="2.05" height="2.05"/><rect class="cls-9" x="126.05" y="93.88" width="2.05" height="2.05"/><rect class="cls-9" x="126.05" y="104.17" width="2.05" height="2.05"/><rect class="cls-9" x="126.05" y="107.61" width="2.05" height="2.05"/><rect class="cls-9" x="126.05" y="111.04" width="2.05" height="2.05"/><rect class="cls-9" x="126.05" y="114.47" width="2.05" height="2.05"/><rect class="cls-9" x="126.05" y="117.91" width="2.05" height="2.05"/><rect class="cls-9" x="126.05" y="121.35" width="2.05" height="2.05"/><rect class="cls-9" x="126.05" y="124.78" width="2.05" height="2.05"/><rect class="cls-9" x="126.05" y="135.08" width="2.05" height="2.05"/><rect class="cls-9" x="126.05" y="138.52" width="2.05" height="2.05"/><rect class="cls-9" x="126.05" y="141.95" width="2.05" height="2.05"/><rect class="cls-9" x="160.15" y="120.36" width="2.05" height="2.05"/><rect class="cls-9" x="160.15" y="123.8" width="2.05" height="2.05"/><rect class="cls-9" x="160.15" y="127.23" width="2.05" height="2.05"/><rect class="cls-9" x="160.15" y="130.67" width="2.05" height="2.05"/><rect class="cls-9" x="160.15" y="134.1" width="2.05" height="2.05"/><rect class="cls-9" x="160.15" y="137.53" width="2.05" height="2.05"/><rect class="cls-9" x="160.15" y="140.97" width="2.05" height="2.05"/><rect class="cls-9" x="160.15" y="144.4" width="2.05" height="2.05"/><rect class="cls-9" x="160.15" y="147.83" width="2.05" height="2.05"/><rect class="cls-9" x="160.15" y="151.27" width="2.05" height="2.05"/><rect class="cls-9" x="160.15" y="154.71" width="2.05" height="2.05"/><rect class="cls-9" x="160.15" y="158.14" width="2.05" height="2.05"/><rect class="cls-9" x="160.15" y="161.57" width="2.05" height="2.05"/><rect class="cls-9" x="160.15" y="165" width="2.05" height="2.05"/><rect class="cls-9" x="160.15" y="168.44" width="2.05" height="2.05"/><rect class="cls-9" x="160.15" y="171.87" width="2.05" height="2.05"/><rect class="cls-9" x="160.15" y="175.31" width="2.05" height="2.05"/><rect class="cls-9" x="160.14" y="178.74" width="2.05" height="2.05"/><rect class="cls-9" x="163.4" y="120.36" width="2.05" height="2.05"/><rect class="cls-9" x="163.4" y="123.8" width="2.05" height="2.05"/><rect class="cls-9" x="163.4" y="127.23" width="2.05" height="2.05"/><rect class="cls-9" x="163.4" y="130.67" width="2.05" height="2.05"/><rect class="cls-9" x="163.4" y="134.1" width="2.05" height="2.05"/><rect class="cls-9" x="163.4" y="137.53" width="2.05" height="2.05"/><rect class="cls-9" x="163.4" y="140.97" width="2.05" height="2.05"/><rect class="cls-9" x="163.4" y="144.4" width="2.05" height="2.05"/><rect class="cls-9" x="163.4" y="147.83" width="2.05" height="2.05"/><rect class="cls-9" x="163.4" y="151.27" width="2.05" height="2.05"/><rect class="cls-9" x="163.4" y="154.71" width="2.05" height="2.05"/><rect class="cls-9" x="163.4" y="158.14" width="2.05" height="2.05"/><rect class="cls-9" x="163.4" y="161.57" width="2.05" height="2.05"/><rect class="cls-9" x="163.4" y="165" width="2.05" height="2.05"/><rect class="cls-9" x="163.4" y="168.44" width="2.05" height="2.05"/><rect class="cls-9" x="163.4" y="171.87" width="2.05" height="2.05"/><rect class="cls-9" x="163.4" y="175.31" width="2.05" height="2.05"/><rect class="cls-9" x="163.41" y="178.74" width="2.05" height="2.05"/><rect class="cls-9" x="166.65" y="120.36" width="2.05" height="2.05"/><rect class="cls-9" x="166.65" y="123.8" width="2.05" height="2.05"/><rect class="cls-9" x="166.65" y="127.23" width="2.05" height="2.05"/><rect class="cls-9" x="166.65" y="130.67" width="2.05" height="2.05"/><rect class="cls-9" x="166.65" y="134.1" width="2.05" height="2.05"/><rect class="cls-9" x="166.65" y="137.53" width="2.05" height="2.05"/><rect class="cls-9" x="166.65" y="140.97" width="2.05" height="2.05"/><rect class="cls-9" x="166.65" y="144.4" width="2.05" height="2.05"/><rect class="cls-9" x="166.65" y="147.83" width="2.05" height="2.05"/><rect class="cls-9" x="166.65" y="151.27" width="2.05" height="2.05"/><rect class="cls-9" x="166.65" y="154.71" width="2.05" height="2.05"/><rect class="cls-9" x="166.65" y="158.14" width="2.05" height="2.05"/><rect class="cls-9" x="166.65" y="161.57" width="2.05" height="2.05"/><rect class="cls-9" x="166.65" y="165" width="2.05" height="2.05"/><rect class="cls-9" x="166.65" y="168.44" width="2.05" height="2.05"/><rect class="cls-9" x="166.65" y="171.87" width="2.05" height="2.05"/><rect class="cls-9" x="166.65" y="175.31" width="2.05" height="2.05"/><rect class="cls-9" x="166.65" y="178.74" width="2.05" height="2.05"/><rect class="cls-9" x="169.91" y="120.36" width="2.05" height="2.05"/><rect class="cls-9" x="169.91" y="123.8" width="2.05" height="2.05"/><rect class="cls-9" x="169.91" y="127.23" width="2.05" height="2.05"/><rect class="cls-9" x="169.91" y="130.67" width="2.05" height="2.05"/><rect class="cls-9" x="169.91" y="134.1" width="2.05" height="2.05"/><rect class="cls-9" x="169.91" y="137.53" width="2.05" height="2.05"/><rect class="cls-9" x="169.91" y="140.97" width="2.05" height="2.05"/><rect class="cls-9" x="169.91" y="144.4" width="2.05" height="2.05"/><rect class="cls-9" x="169.91" y="147.83" width="2.05" height="2.05"/><rect class="cls-9" x="169.91" y="151.27" width="2.05" height="2.05"/><rect class="cls-9" x="169.91" y="154.71" width="2.05" height="2.05"/><rect class="cls-9" x="169.91" y="158.14" width="2.05" height="2.05"/><rect class="cls-9" x="169.91" y="161.57" width="2.05" height="2.05"/><rect class="cls-9" x="169.91" y="165" width="2.05" height="2.05"/><rect class="cls-9" x="169.91" y="168.44" width="2.05" height="2.05"/><rect class="cls-9" x="173.16" y="120.36" width="2.05" height="2.05"/><rect class="cls-9" x="173.16" y="123.8" width="2.05" height="2.05"/><rect class="cls-9" x="173.16" y="127.23" width="2.05" height="2.05"/><rect class="cls-9" x="173.16" y="130.67" width="2.05" height="2.05"/><rect class="cls-9" x="173.16" y="134.1" width="2.05" height="2.05"/><rect class="cls-9" x="173.16" y="137.53" width="2.05" height="2.05"/><rect class="cls-9" x="173.16" y="140.97" width="2.05" height="2.05"/><rect class="cls-9" x="173.16" y="144.4" width="2.05" height="2.05"/><rect class="cls-9" x="173.16" y="147.83" width="2.05" height="2.05"/><rect class="cls-9" x="173.16" y="151.27" width="2.05" height="2.05"/><rect class="cls-9" x="173.16" y="154.71" width="2.05" height="2.05"/><rect class="cls-9" x="173.16" y="158.14" width="2.05" height="2.05"/><rect class="cls-9" x="173.16" y="161.57" width="2.05" height="2.05"/><rect class="cls-9" x="176.42" y="120.36" width="2.05" height="2.05"/><rect class="cls-9" x="176.42" y="123.8" width="2.05" height="2.05"/><rect class="cls-9" x="176.42" y="127.23" width="2.05" height="2.05"/><rect class="cls-9" x="176.42" y="130.67" width="2.05" height="2.05"/><rect class="cls-9" x="176.42" y="134.1" width="2.05" height="2.05"/><rect class="cls-9" x="176.42" y="137.53" width="2.05" height="2.05"/><rect class="cls-9" x="176.42" y="140.97" width="2.05" height="2.05"/><rect class="cls-9" x="176.42" y="144.4" width="2.05" height="2.05"/><rect class="cls-9" x="176.42" y="147.83" width="2.05" height="2.05"/><rect class="cls-9" x="176.42" y="151.27" width="2.05" height="2.05"/><rect class="cls-9" x="176.42" y="154.71" width="2.05" height="2.05"/><rect class="cls-9" x="176.42" y="158.14" width="2.05" height="2.05"/><rect class="cls-9" x="49.78" y="143.38" width="2.05" height="2.05"/><rect class="cls-9" x="49.78" y="146.81" width="2.05" height="2.05"/><rect class="cls-9" x="49.78" y="150.25" width="2.05" height="2.05"/><rect class="cls-9" x="49.78" y="153.68" width="2.05" height="2.05"/><rect class="cls-9" x="49.78" y="157.11" width="2.05" height="2.05"/><rect class="cls-9" x="49.78" y="160.55" width="2.05" height="2.05"/><rect class="cls-9" x="49.78" y="163.98" width="2.05" height="2.05"/><rect class="cls-9" x="49.78" y="167.42" width="2.05" height="2.05"/><rect class="cls-9" x="49.78" y="170.85" width="2.05" height="2.05"/><rect class="cls-9" x="49.78" y="174.28" width="2.05" height="2.05"/><rect class="cls-9" x="49.78" y="177.72" width="2.05" height="2.05"/><rect class="cls-9" x="53.03" y="143.38" width="2.05" height="2.05"/><rect class="cls-9" x="53.03" y="146.81" width="2.05" height="2.05"/><rect class="cls-9" x="53.03" y="150.25" width="2.05" height="2.05"/><rect class="cls-9" x="53.03" y="153.68" width="2.05" height="2.05"/><rect class="cls-9" x="53.03" y="157.11" width="2.05" height="2.05"/><rect class="cls-9" x="53.03" y="160.55" width="2.05" height="2.05"/><rect class="cls-9" x="53.03" y="163.98" width="2.05" height="2.05"/><rect class="cls-9" x="53.03" y="167.42" width="2.05" height="2.05"/><rect class="cls-9" x="53.03" y="170.85" width="2.05" height="2.05"/><rect class="cls-9" x="53.03" y="174.28" width="2.05" height="2.05"/><rect class="cls-9" x="53.03" y="177.72" width="2.05" height="2.05"/><rect class="cls-9" x="56.28" y="143.38" width="2.05" height="2.05"/><rect class="cls-9" x="56.28" y="146.81" width="2.05" height="2.05"/><rect class="cls-9" x="56.28" y="150.25" width="2.05" height="2.05"/><rect class="cls-9" x="56.28" y="153.68" width="2.05" height="2.05"/><rect class="cls-9" x="56.28" y="157.11" width="2.05" height="2.05"/><rect class="cls-9" x="56.28" y="160.55" width="2.05" height="2.05"/><rect class="cls-9" x="56.28" y="163.98" width="2.05" height="2.05"/><rect class="cls-9" x="56.28" y="167.42" width="2.05" height="2.05"/><rect class="cls-9" x="56.28" y="170.85" width="2.05" height="2.05"/><rect class="cls-9" x="56.28" y="174.28" width="2.05" height="2.05"/><rect class="cls-9" x="56.28" y="177.72" width="2.05" height="2.05"/><rect class="cls-9" x="41.08" y="162.96" width="0.75" height="2.05"/><rect class="cls-9" x="41.08" y="166.39" width="0.75" height="2.05"/><rect class="cls-9" x="41.08" y="169.83" width="0.75" height="2.05"/><rect class="cls-9" x="41.08" y="173.27" width="0.75" height="2.05"/><path class="cls-9" d="M47.25,192.4v1.21a4.26,4.26,0,0,1-.55-1.21Z" transform="translate(-5.43 -15.71)"/><rect class="cls-9" x="147.86" y="130.49" width="2.05" height="2.05"/><rect class="cls-9" x="147.86" y="133.93" width="2.05" height="2.05"/><rect class="cls-9" x="147.86" y="137.36" width="2.05" height="2.05"/><rect class="cls-9" x="147.86" y="140.79" width="2.05" height="2.05"/><rect class="cls-9" x="147.86" y="144.22" width="2.05" height="2.05"/><rect class="cls-9" x="147.86" y="147.66" width="2.05" height="2.05"/><rect class="cls-9" x="147.86" y="151.09" width="2.05" height="2.05"/><rect class="cls-9" x="147.86" y="154.53" width="2.05" height="2.05"/><rect class="cls-9" x="147.86" y="157.96" width="2.05" height="2.05"/><rect class="cls-9" x="147.86" y="161.4" width="2.05" height="2.05"/><rect class="cls-9" x="147.86" y="164.83" width="2.05" height="2.05"/><rect class="cls-9" x="147.86" y="171.69" width="2.05" height="2.05"/><rect class="cls-9" x="147.86" y="175.14" width="2.05" height="2.05"/><rect class="cls-9" x="147.86" y="178.57" width="2.05" height="2.05"/><rect class="cls-9" x="151.11" y="130.49" width="2.05" height="2.05"/><rect class="cls-9" x="151.11" y="133.93" width="2.05" height="2.05"/><rect class="cls-9" x="151.11" y="137.36" width="2.05" height="2.05"/><rect class="cls-9" x="151.11" y="140.79" width="2.05" height="2.05"/><rect class="cls-9" x="151.11" y="144.22" width="2.05" height="2.05"/><rect class="cls-9" x="151.11" y="147.66" width="2.05" height="2.05"/><rect class="cls-9" x="151.11" y="151.09" width="2.05" height="2.05"/><rect class="cls-9" x="151.11" y="154.53" width="2.05" height="2.05"/><rect class="cls-9" x="151.11" y="157.96" width="2.05" height="2.05"/><rect class="cls-9" x="151.11" y="161.4" width="2.05" height="2.05"/><rect class="cls-9" x="151.11" y="164.83" width="2.05" height="2.05"/><rect class="cls-9" x="151.11" y="168.26" width="2.05" height="2.05"/><rect class="cls-9" x="151.11" y="171.69" width="2.05" height="2.05"/><rect class="cls-9" x="151.11" y="175.14" width="2.05" height="2.05"/><rect class="cls-9" x="151.11" y="178.57" width="2.05" height="2.05"/><rect class="cls-9" x="131.83" y="107.25" width="2.05" height="2.05"/><rect class="cls-9" x="131.83" y="110.68" width="2.05" height="2.05"/><rect class="cls-9" x="131.83" y="114.11" width="2.05" height="2.05"/><rect class="cls-9" x="131.83" y="117.54" width="2.05" height="2.05"/><rect class="cls-9" x="131.83" y="120.99" width="2.05" height="2.05"/><rect class="cls-9" x="131.83" y="124.42" width="2.05" height="2.05"/><rect class="cls-9" x="131.83" y="127.85" width="2.05" height="2.05"/><rect class="cls-9" x="131.83" y="131.28" width="2.05" height="2.05"/><rect class="cls-9" x="131.83" y="134.72" width="2.05" height="2.05"/><rect class="cls-9" x="131.83" y="138.15" width="2.05" height="2.05"/><rect class="cls-9" x="135.08" y="107.25" width="2.05" height="2.05"/><rect class="cls-9" x="135.08" y="110.68" width="2.05" height="2.05"/><rect class="cls-9" x="135.08" y="114.11" width="2.05" height="2.05"/><rect class="cls-9" x="135.08" y="117.54" width="2.05" height="2.05"/><rect class="cls-9" x="135.08" y="120.99" width="2.05" height="2.05"/><rect class="cls-9" x="135.08" y="124.42" width="2.05" height="2.05"/><rect class="cls-9" x="135.08" y="127.85" width="2.05" height="2.05"/><rect class="cls-9" x="135.08" y="131.28" width="2.05" height="2.05"/><rect class="cls-9" x="135.08" y="134.72" width="2.05" height="2.05"/></g></g><polygon class="cls-6" points="155.29 71.65 156.13 71.65 158.96 93.27 157.26 93.27 155.29 71.65"/><path class="cls-6" d="M161.08,109v-.1a.77.77,0,0,1,.78-.75h3.32a1,1,0,0,1,.94.85l.17,1.88h-5Z" transform="translate(-5.43 -15.71)"/><path class="cls-6" d="M158.29,124.69q-.54-6-1.1-12a2,2,0,0,1,1.54-2.12,40.37,40.37,0,0,1,15.18,0,2.52,2.52,0,0,1,1.92,2.12l1.1,12a1.09,1.09,0,0,1,0,.18,1.58,1.58,0,0,1-1.6,1.56H160.17A2,2,0,0,1,158.29,124.69Z" transform="translate(-5.43 -15.71)"/><path class="cls-7" d="M154.79,124.69q-.54-6-1.1-12a2,2,0,0,1,1.54-2.12,40.37,40.37,0,0,1,15.18,0,2.54,2.54,0,0,1,1.92,2.12q.55,6,1.09,12a1.34,1.34,0,0,1,0,.2,1.56,1.56,0,0,1-1.6,1.54H156.69A2,2,0,0,1,154.79,124.69Z" transform="translate(-5.43 -15.71)"/><g id="freepik--Character--inject-46"><path class="cls-6" d="M200.27,130.56H191.8s-11.2,19.09-20.92,18c-7.69-.9-11.84-14.92-11.84-14.92l-5.28.3s2.73,18.18,15.51,21.36C186.51,159.56,200.27,130.56,200.27,130.56Z" transform="translate(-5.43 -15.71)"/><path class="cls-7" d="M200.27,130.56a70.15,70.15,0,0,1-4.3,7.49l-.46.71c-.91,1.37-1.95,2.82-3.08,4.27l-.53.67a50.33,50.33,0,0,1-3.63,4.08l-.61.6a36.23,36.23,0,0,1-4.28,3.56l-.71.48a23.44,23.44,0,0,1-3.89,2l-.8.29a15,15,0,0,1-5.77.91,6,6,0,0,1-.85-.05,12.52,12.52,0,0,1-2.12-.36,14.5,14.5,0,0,1-3.83-1.54,6,6,0,0,1-.74-.44,17.55,17.55,0,0,1-3.74-3.24c-.19-.21-.38-.43-.56-.65a25.52,25.52,0,0,1-2.75-4.15c-.14-.25-.28-.51-.4-.76a39,39,0,0,1-3.49-10.58l5.28-.29a39.29,39.29,0,0,0,3,7.07,5.52,5.52,0,0,0,.42.75,21.45,21.45,0,0,0,2.09,3,7.46,7.46,0,0,0,.56.66,12,12,0,0,0,2,1.83,5.11,5.11,0,0,0,.73.48,7.19,7.19,0,0,0,3,1.08h.3a6,6,0,0,0,.85,0,8.84,8.84,0,0,0,2.72-.55c.27-.09.53-.2.79-.31a15.77,15.77,0,0,0,2.57-1.42c.24-.15.47-.31.7-.48a31.29,31.29,0,0,0,3.07-2.58c.21-.19.42-.39.62-.6,1.1-1.08,2.14-2.24,3.1-3.39l.55-.66c1-1.29,2-2.55,2.8-3.68l.49-.69c1.48-2.14,2.36-3.64,2.36-3.64Z" transform="translate(-5.43 -15.71)"/><path class="cls-2" d="M159.8,135.93l-4.94,2.73s-4-8.1-2.39-15.22l8.79-2.2A32.25,32.25,0,0,1,159.8,135.93Z" transform="translate(-5.43 -15.71)"/><path class="cls-4" d="M196,138.05l-.46.71-6.59-3.87.49-.69Z" transform="translate(-5.43 -15.71)"/><path class="cls-4" d="M192.43,143l-.53.67-6.33-4.5.55-.66Z" transform="translate(-5.43 -15.71)"/><path class="cls-4" d="M188.27,147.78l-.61.6-5.81-5.18c.21-.19.42-.39.62-.6Z" transform="translate(-5.43 -15.71)"/><path class="cls-4" d="M183.38,151.94l-.71.48-4.59-6.14c.24-.15.47-.31.7-.48Z" transform="translate(-5.43 -15.71)"/><path class="cls-4" d="M178.8,154.47l-.8.29L174.74,148c.27-.09.53-.2.79-.31Z" transform="translate(-5.43 -15.71)"/><path class="cls-4" d="M172.21,155.67a6,6,0,0,1-.85,0l-.21-7.07a6,6,0,0,0,.85,0Z" transform="translate(-5.43 -15.71)"/><path class="cls-4" d="M167.8,147.44l-2.43,6.28a6,6,0,0,1-.74-.44l2.44-6.32A5.11,5.11,0,0,0,167.8,147.44Z" transform="translate(-5.43 -15.71)"/><path class="cls-4" d="M165.1,145.13,160.93,150c-.19-.21-.39-.43-.56-.65l4.17-4.92C164.72,144.7,164.91,144.92,165.1,145.13Z" transform="translate(-5.43 -15.71)"/><path class="cls-4" d="M162.45,141.43l-4.83,3.77c-.14-.25-.28-.51-.4-.77l4.81-3.79A7.33,7.33,0,0,0,162.45,141.43Z" transform="translate(-5.43 -15.71)"/><ellipse class="cls-6" cx="167.61" cy="204.92" rx="23.64" ry="30.31"/><ellipse class="cls-4" cx="173.27" cy="204.92" rx="16.62" ry="21.31"/><path class="cls-2" d="M263,205l-18.46,19.39-59-2.7L172.2,207.1l8.25-19a3,3,0,0,1,2.77-1.82H198a3,3,0,0,1,2.21,1l.9,1,4.11,4.41a3,3,0,0,0,2.21,1H218.9a2.89,2.89,0,0,0,1.63-.47l9.91-6.34a3.06,3.06,0,0,1,1.62-.47H252.4a3,3,0,0,1,2.74,1.74Z" transform="translate(-5.43 -15.71)"/><path class="cls-4" d="M224.59,207.2l9.93-16.71a3.06,3.06,0,0,1,2.62-1.49h14.32a3,3,0,0,1,2.81,1.87l6.06,14.47-8.18,14.25-21.23-.79-6.33-12.39" transform="translate(-5.43 -15.71)"/><path class="cls-4" d="M230.44,186.74l-8.56,14.34a3.37,3.37,0,0,1-2.9,1.65H181.8a2.08,2.08,0,0,1-2.09-2.09,2,2,0,0,1,.16-.8l4.2-10.07a2.62,2.62,0,0,1,2.39-1.59h14.66l4.12,4.41a3,3,0,0,0,2.21,1H218.9a2.89,2.89,0,0,0,1.63-.47Z" transform="translate(-5.43 -15.71)"/><path class="cls-6" d="M246.85,238.35H185.08a9,9,0,0,1-6.94-3.22L167.8,222.88a8.92,8.92,0,0,1-2.13-5.84v-8.43a3.63,3.63,0,0,1,3.64-3.64h77.51a3.64,3.64,0,0,1,3.64,3.64h0v26.1A3.64,3.64,0,0,1,246.85,238.35Z" transform="translate(-5.43 -15.71)"/><path class="cls-11" d="M250.49,208.61v26.1a3.63,3.63,0,0,1-3.64,3.64H185.08a9,9,0,0,1-6.94-3.22L167.8,222.88a8.92,8.92,0,0,1-2.13-5.84v-8.43a3.63,3.63,0,0,1,3.64-3.64h77.51a3.63,3.63,0,0,1,3.66,3.61Z" transform="translate(-5.43 -15.71)"/><path class="cls-4" d="M250.49,208.61v26.1a3.63,3.63,0,0,1-3.64,3.64h-8.77a9,9,0,0,1-6.94-3.22L220.8,222.88a8.92,8.92,0,0,1-2.13-5.84v-8.43a3.63,3.63,0,0,1,3.64-3.64h24.51a3.63,3.63,0,0,1,3.66,3.61Z" transform="translate(-5.43 -15.71)"/><path class="cls-6" d="M195.67,238.35,186.23,226a10.53,10.53,0,0,0-7.27-3.84,2.79,2.79,0,0,0-1.67.45h0l-.93.69h0c-.84.62-.81,1.84.27,3.25L186,238.78a2.07,2.07,0,0,0,1.69.83h9.48a1.28,1.28,0,0,0,1.28-1.25h-2.76Z" transform="translate(-5.43 -15.71)"/><path class="cls-7" d="M178,222.87h0c-2.3,0-2.9,1.65-1.34,3.68L186,238.77a2.07,2.07,0,0,0,1.69.83h8.13a1.69,1.69,0,0,1-1.39-.68l-9.5-12.37A10.12,10.12,0,0,0,178,222.87Z" transform="translate(-5.43 -15.71)"/><path class="cls-6" d="M209.87,238.35,200.43,226a10.53,10.53,0,0,0-7.27-3.84,2.79,2.79,0,0,0-1.67.45h0l-.93.69h0c-.84.62-.81,1.84.27,3.25l9.35,12.22a2.1,2.1,0,0,0,1.69.83h9.48a1.28,1.28,0,0,0,1.28-1.25h-2.76Z" transform="translate(-5.43 -15.71)"/><path class="cls-7" d="M192.17,222.87h0c-2.3,0-2.89,1.65-1.34,3.68l9.35,12.22a2.1,2.1,0,0,0,1.69.83H210a1.69,1.69,0,0,1-1.39-.68l-9.49-12.37A10.19,10.19,0,0,0,192.17,222.87Z" transform="translate(-5.43 -15.71)"/><path class="cls-6" d="M224.07,238.35,214.63,226a10.53,10.53,0,0,0-7.27-3.84,2.79,2.79,0,0,0-1.67.45h0l-.93.69h0c-.84.62-.81,1.84.27,3.25l9.35,12.22a2.1,2.1,0,0,0,1.69.83h9.48a1.28,1.28,0,0,0,1.28-1.25h-2.76Z" transform="translate(-5.43 -15.71)"/><path class="cls-7" d="M206.37,222.87h0c-2.3,0-2.89,1.65-1.34,3.68l9.35,12.22a2.1,2.1,0,0,0,1.69.83h8.16a1.71,1.71,0,0,1-1.39-.68l-9.49-12.37A10.15,10.15,0,0,0,206.37,222.87Z" transform="translate(-5.43 -15.71)"/><ellipse class="cls-6" cx="253.61" cy="204.92" rx="23.64" ry="30.31"/><ellipse class="cls-2" cx="259.27" cy="204.92" rx="16.62" ry="21.31"/><path class="cls-4" d="M279.86,229.34c-2.59,7.42-8.4,12.59-15.16,12.59-9.18,0-16.62-9.54-16.62-21.31,0-8.29,3.69-15.47,9.08-19a26,26,0,0,0-1.46,8.73c0,11.77,7.44,21.31,16.62,21.31A13.54,13.54,0,0,0,279.86,229.34Z" transform="translate(-5.43 -15.71)"/><path class="cls-6" d="M197.72,173.94v20.63a1.91,1.91,0,0,0,1.92,1.92h21.87a1.91,1.91,0,0,0,1.45-.67l7.21-8.34a3.52,3.52,0,0,1,2.65-1.21h2.92V173.94Z" transform="translate(-5.43 -15.71)"/><path class="cls-11" d="M235.74,173.94v12.33H232.8a3.52,3.52,0,0,0-2,.61,3,3,0,0,0-.68.6l-2.42,2.8-.74.85-2.93,3.4-.75.86-.37.43a1.91,1.91,0,0,1-1.45.67H199.64a1.91,1.91,0,0,1-1.92-1.92V173.94Z" transform="translate(-5.43 -15.71)"/><rect class="cls-4" x="192.29" y="161.82" width="38.02" height="0.86"/><rect class="cls-4" x="192.29" y="166.07" width="38.02" height="0.86"/><path class="cls-4" d="M235.74,186v.24H232.8a3.52,3.52,0,0,0-2,.61H197.72V186Z" transform="translate(-5.43 -15.71)"/><polygon class="cls-4" points="222.32 174.58 221.58 175.43 192.29 175.43 192.29 174.58 222.32 174.58"/><path class="cls-4" d="M224.08,194.53l-.75.86H197.9a1.89,1.89,0,0,1-.18-.82h0Z" transform="translate(-5.43 -15.71)"/><path class="cls-4" d="M235.74,173.94v4.57c-6,1.5-23.22,5.55-38,6V173.94Z" transform="translate(-5.43 -15.71)"/><rect class="cls-6" x="196.68" y="95.41" width="29.07" height="16.08"/><rect class="cls-11" x="196.68" y="95.41" width="29.07" height="16.08"/><rect class="cls-4" x="196.68" y="100.97" width="29.07" height="0.8"/><rect class="cls-4" x="196.68" y="104.48" width="29.07" height="0.8"/><rect class="cls-4" x="196.68" y="107.98" width="29.07" height="0.8"/><path class="cls-4" d="M231.18,111.11v4.09c-7.4,2.65-19.64,6.41-29.07,6.07V111.11Z" transform="translate(-5.43 -15.71)"/><path class="cls-2" d="M243.21,65.31H192.36a11.12,11.12,0,0,0-11.12,11.12v28.49A11.11,11.11,0,0,0,192.36,116h50.85a11.13,11.13,0,0,0,11.12-11.11V76.43A11.12,11.12,0,0,0,243.21,65.31Z" transform="translate(-5.43 -15.71)"/><path class="cls-4" d="M254.33,76.43v28.49A11.11,11.11,0,0,1,243.22,116h-20a11.11,11.11,0,0,0,11.12-11.1h0V76.43a11.12,11.12,0,0,0-11.11-11.11h20a11.12,11.12,0,0,1,11.12,11.1Z" transform="translate(-5.43 -15.71)"/><rect class="cls-6" x="180.13" y="54.52" width="43.84" height="40.9" rx="6.8"/><rect class="cls-6" x="241.9" y="35.54" width="1" height="33.12"/><path class="cls-2" d="M256.9,90.67a12.42,12.42,0,0,1-1,5,10.74,10.74,0,0,1-2,3,8.18,8.18,0,0,1-6,2.75c-5,0-9.06-4.85-9.06-10.85s4-10.8,9-10.8a8.37,8.37,0,0,1,6.06,2.77,11,11,0,0,1,2,3A12.62,12.62,0,0,1,256.9,90.67Z" transform="translate(-5.43 -15.71)"/><g class="cls-12"><path d="M251,98.46c-3.55,0-6.43-3.49-6.43-7.79s2.88-7.78,6.43-7.78a6.06,6.06,0,0,1,4.89,2.75,11,11,0,0,0-2-3,6.75,6.75,0,0,0-2.92-.7c-4.1,0-7.43,3.94-7.43,8.78s3.33,8.79,7.43,8.79a6.22,6.22,0,0,0,2.89-.69,10.74,10.74,0,0,0,2-3A6,6,0,0,1,251,98.46Z" transform="translate(-5.43 -15.71)"/></g><path class="cls-9" d="M217.8,84.38c0,1.76-.78,3.18-1.75,3.18s-1.76-1.42-1.76-3.18.79-3.18,1.76-3.18S217.8,82.62,217.8,84.38Z" transform="translate(-5.43 -15.71)"/><path class="cls-9" d="M198.8,84.36c0,1.76-.79,3.18-1.76,3.18s-1.75-1.42-1.75-3.18.78-3.18,1.75-3.18S198.8,82.6,198.8,84.36Z" transform="translate(-5.43 -15.71)"/><path class="cls-3" d="M206.45,99.13a55.43,55.43,0,0,1,4.81,6l1.22-.58c5.49-2.7,7.15-5.76,7.32-8.34a8.14,8.14,0,0,0-.72-3.67,8,8,0,0,0-1.1-1.83c-2,3.17-7,6.07-9.67,7.52C207.18,98.8,206.45,99.13,206.45,99.13Z" transform="translate(-5.43 -15.71)"/><path class="cls-9" d="M208.31,98.2l1.46,1.72c5.17-2.56,8.46-5,9.31-7.41a8,8,0,0,0-1.1-1.83C215.93,93.84,211,96.74,208.31,98.2Z" transform="translate(-5.43 -15.71)"/><path class="cls-2" d="M212.48,104.51c5.49-2.7,7.15-5.76,7.32-8.34a19.85,19.85,0,0,0-5.51,4.2A7.31,7.31,0,0,0,212.48,104.51Z" transform="translate(-5.43 -15.71)"/><path class="cls-2" d="M252.15,136.08v29.81a10.68,10.68,0,0,1-10.68,10.68H194a10.68,10.68,0,0,1-10.68-10.68V136.08A10.68,10.68,0,0,1,194,125.4h47.46a10.7,10.7,0,0,1,10.69,10.67Z" transform="translate(-5.43 -15.71)"/><path class="cls-4" d="M252.15,136.08v29.81a10.68,10.68,0,0,1-10.68,10.68H236a10.68,10.68,0,0,1-10.68-10.68V136.08A10.68,10.68,0,0,1,236,125.4h5.46a10.7,10.7,0,0,1,10.69,10.67Z" transform="translate(-5.43 -15.71)"/><polygon class="cls-6" points="171.99 116.78 171.99 108.38 168.66 102.3 169.05 111.49 171.99 116.78"/><path class="cls-6" d="M152.49,123.2l1.09-1.79,1.78-.93v-2.06l3.3-3.26,2.17,3.16-1,.88-1.29-.56-.25,1.47h1.66l1.62,4.73-1,.77.43,2.32-2.47,1.58-2.57-1,.64-1.59S152.49,127.29,152.49,123.2Z" transform="translate(-5.43 -15.71)"/><path class="cls-6" d="M239.62,132.55h0a4.6,4.6,0,0,1,4.32,6c-2.66,7.9-10.44,20.61-33,20.61-24.89,0-39.25-22.29-39.25-22.29l5.71-4.43S190,151,210.7,151c17.14,0,22.81-10.18,24.59-15.43A4.53,4.53,0,0,1,239.62,132.55Z" transform="translate(-5.43 -15.71)"/><path class="cls-11" d="M243.94,138.6a30.29,30.29,0,0,1-1.25,3.12c-.11.26-.23.52-.37.78a28.79,28.79,0,0,1-3,4.82c-.17.24-.35.46-.53.67a27.09,27.09,0,0,1-5.77,5.29l-.71.48a31,31,0,0,1-6.87,3.28l-.82.27a39.88,39.88,0,0,1-7.7,1.58l-.85.09c-1.61.15-3.31.23-5.1.23-.85,0-1.68,0-2.5-.07l-.86-.07A40.3,40.3,0,0,1,201,158l-.84-.21a43.57,43.57,0,0,1-7.35-2.74l-.76-.38a46.39,46.39,0,0,1-6.76-4.09c-.24-.16-.47-.33-.7-.5a55.38,55.38,0,0,1-5.91-5l-.61-.6a49.9,49.9,0,0,1-6.31-7.52l5.71-4.43a42.82,42.82,0,0,0,5.54,6.33l.62.59a46.68,46.68,0,0,0,5,4.09c.23.17.46.34.7.5a43,43,0,0,0,5.91,3.44l.78.37a35.59,35.59,0,0,0,5.87,2.08c.27.08.55.15.83.21a32.45,32.45,0,0,0,5.47.86l.86.06h1.74a36.71,36.71,0,0,0,4.44-.25,4.83,4.83,0,0,0,.85-.12,27.9,27.9,0,0,0,5.76-1.36l.81-.3a23.08,23.08,0,0,0,4.62-2.47c.24-.17.47-.32.69-.51a20.3,20.3,0,0,0,3.83-3.75c.19-.23.35-.46.51-.69A22.29,22.29,0,0,0,234.4,138c.11-.26.23-.53.35-.79.24-.56.44-1.1.6-1.59a4.57,4.57,0,0,1,8.64,3Z" transform="translate(-5.43 -15.71)"/><path class="cls-6" d="M172.64,121s-5.58-3.7-6.07-3.5a47.23,47.23,0,0,0-3.86,3.47l.86,1.37-1.95,2.16.6.93L160.8,128l3.46,4.53h4.16Z" transform="translate(-5.43 -15.71)"/><path class="cls-2" d="M172.64,138.2l5.76-4.42s-4.47-12.25-5.76-12.83-9.07,6.15-9.07,7.21S169.71,136.53,172.64,138.2Z" transform="translate(-5.43 -15.71)"/><path class="cls-4" d="M242.69,141.72c-.11.26-.23.52-.37.78l-8-4.5c.12-.27.24-.53.35-.79Z" transform="translate(-5.43 -15.71)"/><path class="cls-4" d="M239.31,147.32c-.17.24-.35.46-.53.67l-7.08-5.72c.19-.23.36-.46.52-.69Z" transform="translate(-5.43 -15.71)"/><path class="cls-4" d="M233,153.28l-.71.48-5.12-7.23c.24-.17.47-.33.69-.51Z" transform="translate(-5.43 -15.71)"/><path class="cls-4" d="M225.43,157l-.82.27-2.86-8,.81-.3Z" transform="translate(-5.43 -15.71)"/><path class="cls-4" d="M216.91,158.89l-.85.09-.9-8.18a4.71,4.71,0,0,0,.85-.12Z" transform="translate(-5.43 -15.71)"/><path class="cls-4" d="M209,151l-.52,8.13-.86-.07.52-8.12Z" transform="translate(-5.43 -15.71)"/><path class="cls-4" d="M202.65,150.09,201,158l-.84-.21,1.71-7.88C202.09,150,202.37,150,202.65,150.09Z" transform="translate(-5.43 -15.71)"/><path class="cls-4" d="M196,147.8,192.8,155l-.76-.38,3.17-7.21Z" transform="translate(-5.43 -15.71)"/><path class="cls-4" d="M189.26,144l-4,6.56c-.24-.16-.47-.33-.7-.5l4-6.56C188.8,143.66,189,143.83,189.26,144Z" transform="translate(-5.43 -15.71)"/><path class="cls-4" d="M183.58,139.4l-5,5.63-.61-.6,4.94-5.62Z" transform="translate(-5.43 -15.71)"/></g><g id="freepik--Device--inject-146"><g id="freepik--freepik--Drone--inject-2--inject-146"><path class="cls-2" d="M74.94,57c0,1-4.59,1.88-10.25,1.88S54.45,58.08,54.45,57,59,55.17,64.69,55.17,74.94,56,74.94,57Z" transform="translate(-5.43 -15.71)"/><path class="cls-3" d="M74.94,57c0,1-4.59,1.88-10.25,1.88S54.45,58.08,54.45,57,59,55.17,64.69,55.17,74.94,56,74.94,57Z" transform="translate(-5.43 -15.71)"/><path class="cls-2" d="M79.1,64.48V67c-.65-.06-1.3-.06-1.95-.18a18.56,18.56,0,0,1-2-.36l-.94-.25-.94-.31a8.41,8.41,0,0,1-.95-.36c-.32-.14-.63-.26-.94-.41A19.8,19.8,0,0,1,67.89,63a17.21,17.21,0,0,1-2.38-2.16l-.19.55a.83.83,0,0,1-.36.48c-.35.2-.76,0-.91-.48l-.4-1.23H61.14a1.27,1.27,0,0,1,0-2.46h7.11a1.27,1.27,0,0,1,0,2.46H66.71a16.55,16.55,0,0,0,1.8,1.38,17.45,17.45,0,0,0,3.39,1.78c.29.12.59.2.88.31a7.15,7.15,0,0,0,.9.27l.89.23.91.16c.6.13,1.21.13,1.81.2S78.51,64.47,79.1,64.48Z" transform="translate(-5.43 -15.71)"/><path class="cls-4" d="M79.1,64.48V67c-.65-.06-1.3-.06-1.95-.18a18.56,18.56,0,0,1-2-.36l-.94-.25-.94-.31a8.41,8.41,0,0,1-.95-.36c-.32-.14-.63-.26-.94-.41A19.8,19.8,0,0,1,67.89,63a17.21,17.21,0,0,1-2.38-2.16l-.19.55a.83.83,0,0,1-.36.48c-.35.2-.76,0-.91-.48l-.4-1.23H61.14a1.27,1.27,0,0,1,0-2.46h7.11a1.27,1.27,0,0,1,0,2.46H66.71a16.55,16.55,0,0,0,1.8,1.38,17.45,17.45,0,0,0,3.39,1.78c.29.12.59.2.88.31a7.15,7.15,0,0,0,.9.27l.89.23.91.16c.6.13,1.21.13,1.81.2S78.51,64.47,79.1,64.48Z" transform="translate(-5.43 -15.71)"/><path class="cls-2" d="M127.05,57c0,1-4.58,1.88-10.24,1.88s-10.25-.84-10.25-1.88,4.59-1.87,10.25-1.87S127.05,56,127.05,57Z" transform="translate(-5.43 -15.71)"/><path class="cls-3" d="M127.05,57c0,1-4.58,1.88-10.24,1.88s-10.25-.84-10.25-1.88,4.59-1.87,10.25-1.87S127.05,56,127.05,57Z" transform="translate(-5.43 -15.71)"/><path class="cls-2" d="M102.39,64.48V67c.66-.06,1.32-.06,2-.18a18.38,18.38,0,0,0,1.94-.36l.95-.25.94-.31a7.6,7.6,0,0,0,.94-.36c.33-.14.65-.26.95-.41A19.8,19.8,0,0,0,113.61,63,17.87,17.87,0,0,0,116,60.81l.18.55a.8.8,0,0,0,.37.48c.35.2.75,0,.9-.48l.4-1.23h2.51a1.27,1.27,0,0,0,0-2.46h-7.11a1.27,1.27,0,0,0,0,2.46h1.54a15.64,15.64,0,0,1-1.8,1.38,18.32,18.32,0,0,1-3.39,1.78c-.29.12-.59.2-.89.31a6.87,6.87,0,0,1-.88.27l-.9.23-.9.16c-.6.13-1.22.13-1.82.2s-1.22,0-1.82,0Z" transform="translate(-5.43 -15.71)"/><path class="cls-4" d="M102.39,64.48V67c.66-.06,1.32-.06,2-.18a18.38,18.38,0,0,0,1.94-.36l.95-.25.94-.31a7.6,7.6,0,0,0,.94-.36c.33-.14.65-.26.95-.41A19.8,19.8,0,0,0,113.61,63,17.87,17.87,0,0,0,116,60.81l.18.55a.8.8,0,0,0,.37.48c.35.2.75,0,.9-.48l.4-1.23h2.51a1.27,1.27,0,0,0,0-2.46h-7.11a1.27,1.27,0,0,0,0,2.46h1.54a15.64,15.64,0,0,1-1.8,1.38,18.32,18.32,0,0,1-3.39,1.78c-.29.12-.59.2-.89.31a6.87,6.87,0,0,1-.88.27l-.9.23-.9.16c-.6.13-1.22.13-1.82.2s-1.22,0-1.82,0Z" transform="translate(-5.43 -15.71)"/><path class="cls-2" d="M136.72,50.32c0,1.15-5.08,2.07-11.36,2.07S114,51.47,114,50.32s5.08-2.07,11.35-2.07S136.72,49.18,136.72,50.32Z" transform="translate(-5.43 -15.71)"/><path class="cls-5" d="M136.72,50.32c0,1.15-5.08,2.07-11.36,2.07S114,51.47,114,50.32s5.08-2.07,11.35-2.07S136.72,49.18,136.72,50.32Z" transform="translate(-5.43 -15.71)"/><path class="cls-2" d="M130.34,52.38h0a1.23,1.23,0,0,0-1-1.35h-7.88a1.22,1.22,0,0,0-1,1.35h0a1.22,1.22,0,0,0,1,1.34h7.88A1.23,1.23,0,0,0,130.34,52.38Z" transform="translate(-5.43 -15.71)"/><path class="cls-2" d="M126.78,53l-.69,2.15a.93.93,0,0,1-.42.55c-.39.21-.84,0-1-.55L124,53Z" transform="translate(-5.43 -15.71)"/><path class="cls-2" d="M125.48,53.39A25.08,25.08,0,0,1,124.09,56c-.5.83-1,1.63-1.59,2.39a23.82,23.82,0,0,1-3.77,4A21.54,21.54,0,0,1,116.59,64c-.37.21-.76.4-1.14.61l-.57.31-.6.24a14.71,14.71,0,0,1-4.9,1.1V63.2a12.77,12.77,0,0,0,4.32-.65l.54-.17.52-.23c.34-.16.69-.3,1-.48a16.89,16.89,0,0,0,2-1.29,21,21,0,0,0,3.62-3.45,26.07,26.07,0,0,0,2.95-4.41l1.13.87Z" transform="translate(-5.43 -15.71)"/><path class="cls-2" d="M104.42,85.63l-.31-.79,0-.08a1.06,1.06,0,0,1,.36-1.22c.36-.21.78,0,.94.47l.3.79a1,1,0,0,0,.88.71h6.58a1,1,0,0,0,.88-.71l.31-.79a.64.64,0,0,1,.9-.39,1,1,0,0,1,.36,1.22l-.31.79a2.41,2.41,0,0,1-2.14,1.73h-6.58A2.41,2.41,0,0,1,104.42,85.63Z" transform="translate(-5.43 -15.71)"/><path class="cls-2" d="M106.6,87l-6-12a.2.2,0,0,1,0-.08,1.09,1.09,0,0,1,.25-1.27.63.63,0,0,1,1,.34l6,11.93a1.23,1.23,0,0,1,.11.51c0,.52-.31.93-.7.93a.69.69,0,0,1-.59-.41Z" transform="translate(-5.43 -15.71)"/><path class="cls-2" d="M112.53,86.94,106.47,74.8s0,0,0,0a1.09,1.09,0,0,1,.24-1.27.62.62,0,0,1,1,.31l6.07,12.14h0a1.1,1.1,0,0,1-.21,1.26.56.56,0,0,1-.39.16A.69.69,0,0,1,112.53,86.94Z" transform="translate(-5.43 -15.71)"/><path class="cls-2" d="M73.47,85.63l-.31-.79,0-.08a1.06,1.06,0,0,1,.36-1.22c.36-.21.78,0,.94.47l.3.79a1,1,0,0,0,.88.71h6.58a1,1,0,0,0,.88-.71l.31-.79a.64.64,0,0,1,.9-.39,1,1,0,0,1,.36,1.22l-.31.79a2.41,2.41,0,0,1-2.14,1.73H75.64a2.42,2.42,0,0,1-2.17-1.73Z" transform="translate(-5.43 -15.71)"/><path class="cls-2" d="M81.58,87.36a.58.58,0,0,1-.4-.16A1.11,1.11,0,0,1,81,85.92L87,74l0-.09a.6.6,0,0,1,1-.19A1.11,1.11,0,0,1,88.2,75l-6,12a.69.69,0,0,1-.58.41Z" transform="translate(-5.43 -15.71)"/><path class="cls-2" d="M75.25,87.2h0A1.1,1.1,0,0,1,75,85.93L81.1,73.79l0-.05a.61.61,0,0,1,1-.23,1.11,1.11,0,0,1,.17,1.29l-6,12.14a.7.7,0,0,1-.6.42A.54.54,0,0,1,75.25,87.2Z" transform="translate(-5.43 -15.71)"/><rect class="cls-6" x="89.81" y="58.59" width="1.68" height="5.8"/><path class="cls-2" d="M78.46,65.22v6.71a2.29,2.29,0,0,0,1.44,2.24,52.64,52.64,0,0,0,14.47,1.15,52.64,52.64,0,0,0,14.47-1.15,2.28,2.28,0,0,0,1.44-2.24V65.21A2.28,2.28,0,0,0,108.84,63a53,53,0,0,0-14.47-1.16A53,53,0,0,0,79.9,63,2.28,2.28,0,0,0,78.46,65.22Z" transform="translate(-5.43 -15.71)"/><path class="cls-7" d="M78.46,65.22v6.71a2.29,2.29,0,0,0,1.44,2.24,52.64,52.64,0,0,0,14.47,1.15,52.64,52.64,0,0,0,14.47-1.15,2.28,2.28,0,0,0,1.44-2.24V65.21A2.28,2.28,0,0,0,108.84,63a53,53,0,0,0-14.47-1.16A53,53,0,0,0,79.9,63,2.28,2.28,0,0,0,78.46,65.22Z" transform="translate(-5.43 -15.71)"/><path class="cls-2" d="M94.94,75.88C96.5,75,98.31,76,99,78s0,4.41-1.61,5.29-3.37-.06-4.05-2.1,0-4.41,1.61-5.29Z" transform="translate(-5.43 -15.71)"/><path class="cls-2" d="M98.39,81.77a1.75,1.75,0,0,1-.85,2,1.1,1.1,0,0,1-1.68-.52,1.72,1.72,0,0,1,.84-2A1.1,1.1,0,0,1,98.39,81.77Z" transform="translate(-5.43 -15.71)"/><path class="cls-7" d="M98.39,81.77a1.75,1.75,0,0,1-.85,2,1.1,1.1,0,0,1-1.68-.52,1.72,1.72,0,0,1,.84-2A1.1,1.1,0,0,1,98.39,81.77Z" transform="translate(-5.43 -15.71)"/><path class="cls-6" d="M98,82.05a1.18,1.18,0,0,1-.2,1.14.63.63,0,0,1-1-.13,1.19,1.19,0,0,1,.1-1.37A.74.74,0,0,1,98,82.05Z" transform="translate(-5.43 -15.71)"/><path class="cls-6" d="M79.26,70.23V66.3a.25.25,0,1,1,.48,0v3.93a.28.28,0,0,1-.24.31C79.37,70.54,79.27,70.4,79.26,70.23Z" transform="translate(-5.43 -15.71)"/><path class="cls-6" d="M80,70.23V66.3c0-.17.1-.31.23-.31a.28.28,0,0,1,.24.31v3.93a.28.28,0,0,1-.24.31C80.14,70.54,80,70.4,80,70.23Z" transform="translate(-5.43 -15.71)"/><path class="cls-6" d="M80.81,70.23V66.3a.28.28,0,0,1,.24-.31c.13,0,.23.14.23.31v3.93c0,.17-.1.31-.23.31A.28.28,0,0,1,80.81,70.23Z" transform="translate(-5.43 -15.71)"/><path class="cls-7" d="M105.76,62.39a52.6,52.6,0,0,0-14.45-.29l2.21,5a.68.68,0,0,0,.59.44h9.68a.72.72,0,0,0,.63-.57Z" transform="translate(-5.43 -15.71)"/><path class="cls-7" d="M84.63,65.22v6.69a2.29,2.29,0,0,0,1.45,2.25,52.59,52.59,0,0,0,22.75,0,2.29,2.29,0,0,0,1.44-2.25V65.2A2.28,2.28,0,0,0,108.83,63c-.62-.15-1.26-.27-1.89-.39l-1.44,4.89A1.93,1.93,0,0,1,103.79,69H94.11a1.82,1.82,0,0,1-1.59-1.2L90,62.25c-1.32.19-2.64.43-4,.72a2.29,2.29,0,0,0-1.46,2.25Zm6.39,7a.8.8,0,0,1-.67-.88.69.69,0,1,1,1.34,0,.8.8,0,0,1-.67.88Zm-2.61,0a.8.8,0,0,1-.66-.88.69.69,0,1,1,1.34,0,.8.8,0,0,1-.67.88Z" transform="translate(-5.43 -15.71)"/><path class="cls-2" d="M80.29,50.32c0,1.15-5.08,2.07-11.35,2.07s-11.36-.92-11.36-2.07,5.08-2.07,11.36-2.07S80.29,49.18,80.29,50.32Z" transform="translate(-5.43 -15.71)"/><path class="cls-5" d="M80.29,50.32c0,1.15-5.08,2.07-11.35,2.07s-11.36-.92-11.36-2.07,5.08-2.07,11.36-2.07S80.29,49.18,80.29,50.32Z" transform="translate(-5.43 -15.71)"/><path class="cls-2" d="M64,52.38h0A1.22,1.22,0,0,1,65,51h7.88a1.23,1.23,0,0,1,1,1.35h0a1.23,1.23,0,0,1-1,1.34H65A1.22,1.22,0,0,1,64,52.38Z" transform="translate(-5.43 -15.71)"/><path class="cls-2" d="M67.51,53l.7,2.15a.93.93,0,0,0,.42.55c.39.21.83,0,1-.55L70.35,53Z" transform="translate(-5.43 -15.71)"/><path class="cls-2" d="M70,52.5a26,26,0,0,0,3,4.42,21.31,21.31,0,0,0,3.61,3.45,17.18,17.18,0,0,0,2,1.28c.34.18.69.33,1,.49l.52.23.53.17a12.8,12.8,0,0,0,4.32.64v3.09A14.59,14.59,0,0,1,80,65.16l-.6-.23-.57-.31c-.38-.2-.77-.39-1.14-.62a19.87,19.87,0,0,1-2.13-1.58,24.25,24.25,0,0,1-3.78-4A28.23,28.23,0,0,1,70.23,56a22.63,22.63,0,0,1-1.39-2.63Z" transform="translate(-5.43 -15.71)"/></g></g></svg>