<svg xmlns="http://www.w3.org/2000/svg" xmlns:xlink="http://www.w3.org/1999/xlink" width="1920" height="1138" viewBox="0 0 1920 1138">
  <defs>
    <clipPath id="clip-path">
      <rect id="Rectangle_18466" data-name="Rectangle 18466" width="1920" height="1138" transform="translate(0 -4)" fill="#fff" stroke="#707070" stroke-width="1"/>
    </clipPath>
    <linearGradient id="linear-gradient" x1="0.5" x2="0.5" y2="1" gradientUnits="objectBoundingBox">
      <stop offset="0" stop-color="#622feb"/>
      <stop offset="1" stop-color="#b76bd6"/>
    </linearGradient>
  </defs>
  <g id="Mask_Group_35" data-name="Mask Group 35" transform="translate(0 4)" clip-path="url(#clip-path)">
    <path id="Path_2254" data-name="Path 2254" d="M-266.175-291.773s-18.487,936.947,25.249,963.007c46.315,27.6,92.543,55.352,140.415,80.2,41.693,21.641,84.438,40.88,129.562,54.394,30.632,9.175,61.842,15.536,93.8,16.954a442.656,442.656,0,0,0,53.41-.534,320.1,320.1,0,0,0,57.387-9.208c34.221-9.012,64.889-24.736,90.922-48.869,19.1-17.705,34-38.68,46.03-61.707,14.715-28.162,24.6-58.059,32.212-88.832A773.081,773.081,0,0,0,418.2,530.039c2.212-16.593,3.771-33.283,5.422-49.955,1.847-18.665,3.138-37.367,4.66-56.051,1.414-17.366,2.328-34.767,3.9-52.131,2.112-23.3,5.245-46.431,9.055-69.506a735.827,735.827,0,0,1,26.991-110.062c5.608-17.059,12.518-33.624,19.154-50.292,2.4-2.668,3.105-6.2,4.593-9.315C507.8,99.6,526.423,68.274,549.79,39.807a351.46,351.46,0,0,1,49.824-50.148,329.834,329.834,0,0,1,74.428-46A361.807,361.807,0,0,1,746.319-80c28.372-5.973,57.154-9.456,85.732-14.173,26.129-4.312,52.25-8.679,78.264-13.693,42.2-8.135,83.981-17.88,124.926-30.99,46.373-14.847,91.031-33.664,132.991-58.538,37.164-22.032,71.613-47.652,102.326-78.151C1278.463-283.391,180.429-318.932-266.175-291.773Z" transform="translate(238.6 270.172)" fill="url(#linear-gradient)"/>
  </g>
</svg>
