<svg xmlns="http://www.w3.org/2000/svg" xmlns:xlink="http://www.w3.org/1999/xlink" width="1920" height="1565" viewBox="0 0 1920 1565">
  <defs>
    <clipPath id="clip-path">
      <rect id="Rectangle_18467" data-name="Rectangle 18467" width="1920" height="1565" transform="translate(0 -4)" fill="#fff" stroke="#707070" stroke-width="1"/>
    </clipPath>
    <linearGradient id="linear-gradient" x1="0.5" x2="0.5" y2="1" gradientUnits="objectBoundingBox">
      <stop offset="0" stop-color="#622feb"/>
      <stop offset="1" stop-color="#b76bd6"/>
    </linearGradient>
  </defs>
  <g id="Mask_Group_36" data-name="Mask Group 36" transform="translate(0 4)" clip-path="url(#clip-path)">
    <path id="Path_2227" data-name="Path 2227" d="M1360.286-665.769c-186.426-.015-1448.4-8.077-1946.3,18.846-27.158,347.314-30.375,1028.475-32.934,1083.57a70.98,70.98,0,0,1,7.629-.857c15.426-.124,30.8.043,46.206,1.573A452.39,452.39,0,0,1-489,451.9c45.2,12.508,88.041,29.962,129.91,49.5,46.541,21.719,91.592,45.742,136.678,69.71,47.744,25.383,95.4,50.91,144.747,73.763,42.979,19.9,87.043,37.6,133.559,50.028,31.577,8.439,63.75,14.289,96.7,15.593A511.321,511.321,0,0,0,207.654,710a366.848,366.848,0,0,0,59.158-8.469c35.277-8.289,66.891-22.751,93.727-44.947,19.688-16.284,35.048-35.576,47.45-56.755,15.169-25.9,25.36-53.4,33.206-81.7a642.515,642.515,0,0,0,15.859-76.884c2.28-15.261,3.887-30.612,5.589-45.946,1.9-17.167,3.235-34.368,4.8-51.553,1.458-15.972,2.4-31.977,4.021-47.947,2.177-21.431,5.407-42.7,9.334-63.928a617.234,617.234,0,0,1,27.824-101.229c5.781-15.69,12.9-30.925,19.745-46.256,2.479-2.454,3.2-5.7,4.735-8.567,16.307-30.469,35.51-59.28,59.6-85.463a345.171,345.171,0,0,1,51.361-46.123,349.138,349.138,0,0,1,76.724-42.309A405.519,405.519,0,0,1,795.3-119.83c29.247-5.494,58.917-8.7,88.377-13.036,26.935-3.966,53.862-7.982,80.679-12.594,43.5-7.482,86.572-16.445,128.78-28.5,47.8-13.655,93.84-30.962,137.094-53.84,38.311-20.264,73.822-43.828,105.483-71.879,8.149-7.22,16.382-14.362,24.578-21.539v-72.66C1357.492-395.993,1363.488-665.768,1360.286-665.769Z" transform="translate(585.6 647.047)" stroke="#707070" stroke-linejoin="round" stroke-width="1" fill="url(#linear-gradient)"/>
  </g>
</svg>
