<svg xmlns="http://www.w3.org/2000/svg" xmlns:xlink="http://www.w3.org/1999/xlink" width="1920" height="1541" viewBox="0 0 1920 1541">
  <defs>
    <clipPath id="clip-path">
      <rect id="Rectangle_18470" data-name="Rectangle 18470" width="1920" height="1541" fill="#fff" stroke="#707070" stroke-width="1"/>
    </clipPath>
    <clipPath id="clip-path-2">
      <rect id="Rectangle_18468" data-name="Rectangle 18468" width="2474" height="1754" transform="translate(0 -0.02)" fill="#9352de" stroke="#707070" stroke-width="1"/>
    </clipPath>
  </defs>
  <g id="Mask_Group_38" data-name="Mask Group 38" clip-path="url(#clip-path)">
    <g id="Mask_Group_37" data-name="Mask Group 37" transform="translate(-261 -199.98)" opacity="0.08" clip-path="url(#clip-path-2)">
      <path id="Path_25216" data-name="Path 25216" d="M-338.314-459.365C-373.322-23.083-446.6,724.741-392.631,749.284-332.639,776.567-165.919,882.3-107.8,912.413c61.542,31.885,122.969,63.951,186.581,92.659,55.4,25,112.2,47.23,172.159,62.844,40.7,10.6,82.174,17.949,124.645,19.588a676.292,676.292,0,0,0,70.97-.617c25.8-1.715,51.236-4.909,76.255-10.638,45.472-10.412,86.223-28.578,120.815-56.46C669,999.332,688.8,975.1,704.785,948.494c19.553-32.537,32.689-67.078,42.8-102.631,9.061-31.853,15.463-64.112,20.442-96.579,2.939-19.171,5.011-38.453,7.2-57.715,2.454-21.565,4.17-43.172,6.192-64.758,1.879-20.064,3.093-40.168,5.184-60.229,2.806-26.921,6.969-53.644,12.032-80.3a759.87,759.87,0,0,1,35.865-127.16c7.452-19.709,16.634-38.847,25.451-58.1,3.2-3.082,4.126-7.161,6.1-10.762,21.02-38.274,45.772-74.465,76.822-107.355a441.254,441.254,0,0,1,66.205-57.938,453.648,453.648,0,0,1,98.9-53.147,533.156,533.156,0,0,1,96.04-27.329c37.7-6.9,75.945-10.925,113.919-16.375,34.72-4.982,69.429-10.027,104-15.82,56.069-9.4,111.592-20.658,166-35.8,61.62-17.153,18.653-407.112,74.408-435.85C1711.732-484.819,303.488-493.185-338.314-459.365Z" transform="translate(575.512 624.826)" fill="#9352de"/>
    </g>
  </g>
</svg>
