<svg xmlns="http://www.w3.org/2000/svg" width="113.62" height="183.096" viewBox="0 0 113.62 183.096">
  <g id="Group_40856" data-name="Group 40856" transform="translate(-693.176 -3287.904)">
    <text id="define_" data-name="define " transform="translate(694.796 3463)" fill="#3a3a3a" font-size="33" font-family="SegoeUI-Bold, Segoe UI" font-weight="700"><tspan x="0" y="0">Define </tspan></text>
    <g id="Group_40846" data-name="Group 40846" transform="translate(693.176 3287.904)">
      <path id="Path_25227" data-name="Path 25227" d="M-1365.894-254.234c-1.426-.469-2.7-1.334-3.849-1.186a9.949,9.949,0,0,1-9.957-4.223c-.971-1.288-2.359-2.255-3.386-3.508a2.907,2.907,0,0,1-.749-2.267c.229-.58,1.331-1.052,2.1-1.133a51.567,51.567,0,0,1,5.181-.051c0-1.8-.111-3.479.05-5.133a2.883,2.883,0,0,1,1.089-2.12,2.7,2.7,0,0,1,2.266.689c2.332,2.162,4.9,4.218,6.648,6.807,1.048,1.551.952,4.011.99,6.068.031,1.72.378,3.026,1.334,3.529,4.626-2.153,8.694-4.731,13.136-6a29.82,29.82,0,0,1,37.974,30.509,27.418,27.418,0,0,1-10.012,19.858,10.775,10.775,0,0,0-4.129,9.1c.112,3.549.067,7.1.012,10.657a13.447,13.447,0,0,1-13.581,13.507,39.348,39.348,0,0,1-7.3-.287,13.342,13.342,0,0,1-11.077-13.349c-.051-3.922-.03-7.846,0-11.768a8.431,8.431,0,0,0-3.181-7.022,29.066,29.066,0,0,1-4.144-41.568A12.281,12.281,0,0,0-1365.894-254.234Zm2.519,3.1a25.242,25.242,0,0,0,2.545,36.13c3.589,3.053,5.444,6.689,5.23,11.413-.1,2.187-.017,4.382-.017,6.6h24.876c0-1.789.1-3.479-.018-5.152-.392-5.507,1.615-9.727,5.826-13.42,6.761-5.929,9.469-13.731,8.091-22.6a26.506,26.506,0,0,0-32.247-21.513,26.178,26.178,0,0,0-11.788,5.986l18.534,17.792-2.138,2.875Zm32.495,58h-24.84l.511,3.367h2.553q9.436,0,18.872-.006C-1330.669-189.774-1330.656-189.775-1330.88-193.138Zm-2.662,7.05h-19.225C-1348.859-181.185-1337.452-181.183-1333.542-186.089Zm-44.037-76.8c2.067,3.277,4.7,4.708,8.3,3.591,1.136-3.769-.363-6.348-3.526-8.253C-1373.323-263.308-1373.323-263.308-1377.579-262.89Z" transform="translate(1383.893 289.271)" fill="#622feb"/>
      <path id="Path_25228" data-name="Path 25228" d="M-1211.583-233.637V-304.6h-49.661v21.031h-3.583c0-2.068,0-4.113,0-6.158,0-4.663-.011-9.326,0-13.989.01-3.388,1.188-4.611,4.483-4.613q23.983-.015,47.965,0c3.175,0,4.4,1.249,4.4,4.473q.013,34.641,0,69.282c0,3-1.242,4.394-4.027,4.4q-19.652.044-39.3.013a7.74,7.74,0,0,1-.962-.132v-3.346Z" transform="translate(1317.924 308.336)" fill="#622feb"/>
      <path id="Path_25229" data-name="Path 25229" d="M-1194.7-276.822h-29.92v-3.333h29.92Z" transform="translate(1295.641 292.721)" fill="#b76bd6"/>
      <path id="Path_25230" data-name="Path 25230" d="M-1224.755-249.006v-3.29h30v3.29Z" transform="translate(1295.718 277.285)" fill="#b76bd6"/>
      <path id="Path_25231" data-name="Path 25231" d="M-1194.761-224.336v3.3h-30v-3.3Z" transform="translate(1295.721 261.793)" fill="#b76bd6"/>
      <path id="Path_25232" data-name="Path 25232" d="M-1190.345-196.454v3.3h-26.441v-3.3Z" transform="translate(1291.303 246.344)" fill="#b76bd6"/>
      <path id="Path_25233" data-name="Path 25233" d="M-1216.757-165.322v-3.3h26.441v3.3Z" transform="translate(1291.286 230.921)" fill="#b76bd6"/>
      <path id="Path_25234" data-name="Path 25234" d="M-1240.68-276.9v-3.286h3.273v3.286Z" transform="translate(1304.542 292.737)" fill="#b76bd6"/>
      <path id="Path_25235" data-name="Path 25235" d="M-1240.508-252.441h3.195v3.352h-3.195Z" transform="translate(1304.446 277.366)" fill="#b76bd6"/>
      <path id="Path_25236" data-name="Path 25236" d="M-1329.021-226.453l-1.73-2.716c8.361-5.966,20.957-4,27.751,4.218a21.3,21.3,0,0,1-1.756,29.153,21.312,21.312,0,0,1-29.039.2c-7.623-7.041-9.284-19.647-3.434-26.937l2.722,1.723c-2.818,5.149-3.55,10.458-1.387,15.991a17.311,17.311,0,0,0,7.667,8.905,17.726,17.726,0,0,0,21.921-3.4,17.719,17.719,0,0,0,1.373-22.31C-1310.307-229.126-1318.737-230.848-1329.021-226.453Z" transform="translate(1359.985 266.388)" fill="#b76bd6"/>
      <path id="Path_25237" data-name="Path 25237" d="M-1320.156-207.417c-1.893,6.683-.381,11.446,4.337,14.214a10.648,10.648,0,0,0,12.718-1.583,10.585,10.585,0,0,0,1.92-12.842c-2.707-4.809-7.217-6.282-14.3-4.531l-1.4-2.789a13.92,13.92,0,0,1,17.787,4.013,14.223,14.223,0,0,1-1.62,18.8,14.179,14.179,0,0,1-18.678.771c-5.283-4.244-6.918-12.043-3.539-17.466Z" transform="translate(1351.094 257.522)" fill="#622feb"/>
      <path id="Path_25238" data-name="Path 25238" d="M-1308.511-193.3h3.192c.71,2.021,1.881,4.04,4.452,3.286a4.738,4.738,0,0,0,2.742-2.967c.553-2.352-1.244-3.525-3.288-4.136v-3.149a6.794,6.794,0,0,1,7,6.737,7.152,7.152,0,0,1-6.67,7.239C-1305.1-186.049-1308.267-188.952-1308.511-193.3Z" transform="translate(1342.126 248.457)" fill="#b76bd6"/>
    </g>
  </g>
</svg>
