<svg xmlns="http://www.w3.org/2000/svg" width="114" height="182.27" viewBox="0 0 114 182.27">
  <g id="Group_40858" data-name="Group 40858" transform="translate(-1293.872 -3287.906)">
    <text id="design_" data-name="design " transform="translate(1350.872 3462.176)" fill="#3a3a3a" font-size="32" font-family="SegoeUI-Bold, Segoe UI" font-weight="700"><tspan x="-56.039" y="0">Design </tspan></text>
    <g id="Group_40851" data-name="Group 40851" transform="translate(1299.458 3287.906)">
      <g id="Group_40850" data-name="Group 40850" transform="translate(5.909)">
        <path id="Path_25250" data-name="Path 25250" d="M-4383.851-131.1a1.6,1.6,0,0,0,1.6,1.627c1.038.021,2.076.027,3.113,0a1.568,1.568,0,0,0,1.545-1.669,1.556,1.556,0,0,0-1.55-1.582c-.518-.018-1.038,0-1.556,0s-1.037-.013-1.556,0A1.587,1.587,0,0,0-4383.851-131.1Z" transform="translate(4428.408 154.516)" fill="#b76bd6"/>
        <path id="Path_25251" data-name="Path 25251" d="M-4387.6-165.288a1.527,1.527,0,0,0,1.847.133,1.665,1.665,0,0,0,.8-1.684,5.137,5.137,0,0,0-2.729-2.655c-.069-.011-.138-.029-.173-.037a1.633,1.633,0,0,0-1.512.92,1.5,1.5,0,0,0,.174,1.723A13.584,13.584,0,0,0-4387.6-165.288Z" transform="translate(4430.736 169.531)" fill="#b76bd6"/>
        <path id="Path_25252" data-name="Path 25252" d="M-4374.942-153.049a1.353,1.353,0,0,0,.276.055l.132.154a6.96,6.96,0,0,0,1.285-1.05,1.364,1.364,0,0,0-.118-1.767,14.342,14.342,0,0,0-1.59-1.6,1.553,1.553,0,0,0-1.908-.088,1.524,1.524,0,0,0-.7,1.708A4.832,4.832,0,0,0-4374.942-153.049Z" transform="translate(4425.876 164.675)" fill="#b76bd6"/>
        <path id="Path_25253" data-name="Path 25253" d="M-4302.825-117.051a7.443,7.443,0,0,0-2.025,2.018,1.594,1.594,0,0,0,1.4,2.367c1.029.018,2.972-1.9,2.977-2.932A1.568,1.568,0,0,0-4302.825-117.051Z" transform="translate(4396.262 148.211)" fill="#622feb"/>
        <path id="Path_25254" data-name="Path 25254" d="M-4312.638-102.822a1.461,1.461,0,0,0,.065-1.667,1.565,1.565,0,0,0-1.38-.847c-1.055-.054-3.008,1.908-3,2.985a1.525,1.525,0,0,0,.87,1.423,1.436,1.436,0,0,0,1.662-.091A14.443,14.443,0,0,0-4312.638-102.822Z" transform="translate(4401.104 143.333)" fill="#622feb"/>
        <path id="Path_25255" data-name="Path 25255" d="M-4302.666-105.168a1.511,1.511,0,0,0-1.93.316,1.573,1.573,0,0,0-.179,2.012,12.715,12.715,0,0,0,1.787,1.8,1.419,1.419,0,0,0,1.66.087,1.634,1.634,0,0,0,.866-1.6,1.384,1.384,0,0,0-.205-.633A17.126,17.126,0,0,0-4302.666-105.168Z" transform="translate(4396.253 143.357)" fill="#622feb"/>
        <path id="Path_25256" data-name="Path 25256" d="M-4375.841-164.9a1.455,1.455,0,0,0,.622-.2,16.991,16.991,0,0,0,1.987-1.981,1.552,1.552,0,0,0-.334-2.041,1.729,1.729,0,0,0-2.149,0,16.69,16.69,0,0,0-1.45,1.446,1.6,1.6,0,0,0-.266,1.84A1.679,1.679,0,0,0-4375.841-164.9Z" transform="translate(4425.86 169.516)" fill="#b76bd6"/>
        <path id="Path_25257" data-name="Path 25257" d="M-4386.95-157.5a4.352,4.352,0,0,0-2.444,2.3,1.587,1.587,0,0,0,1.426,2.221c1.011.057,3.049-1.936,3.037-2.97A1.575,1.575,0,0,0-4386.95-157.5Z" transform="translate(4430.733 164.653)" fill="#b76bd6"/>
        <path id="Path_25258" data-name="Path 25258" d="M-4314.216-116.818a1.593,1.593,0,0,0-2.244.015,1.6,1.6,0,0,0-.161,2.183,12.787,12.787,0,0,0,1.66,1.638,1.445,1.445,0,0,0,1.728.107,1.777,1.777,0,0,0,.929-1.49,4.782,4.782,0,0,0-.514-1.048A13.477,13.477,0,0,0-4314.216-116.818Z" transform="translate(4401.116 148.203)" fill="#622feb"/>
        <path id="Path_25259" data-name="Path 25259" d="M-4432.591-153.065a2.35,2.35,0,0,0,2.026-1.949,1.643,1.643,0,0,0-1.618-1.7,2.174,2.174,0,0,0-2.041,1.96A1.657,1.657,0,0,0-4432.591-153.065Z" transform="translate(4448.966 164.3)" fill="#622feb"/>
        <path id="Path_25260" data-name="Path 25260" d="M-4310.84-85.907a2.283,2.283,0,0,0-2,2.036,1.651,1.651,0,0,0,1.631,1.616,2.2,2.2,0,0,0,2.03-1.985A1.666,1.666,0,0,0-4310.84-85.907Z" transform="translate(4399.429 135.403)" fill="#b76bd6"/>
        <path id="Path_25261" data-name="Path 25261" d="M-4440.906-153.063a1.655,1.655,0,0,0,1.645-1.674,2.162,2.162,0,0,0-2.029-1.967,1.568,1.568,0,0,0-1.6,1.611A2.206,2.206,0,0,0-4440.906-153.063Z" transform="translate(4452.501 164.296)" fill="#622feb"/>
        <path id="Path_25262" data-name="Path 25262" d="M-4441.3-144.388a2.269,2.269,0,0,0,2.049-2.06,1.651,1.651,0,0,0-1.643-1.6,2.162,2.162,0,0,0-1.992,2A1.629,1.629,0,0,0-4441.3-144.388Z" transform="translate(4452.501 160.763)" fill="#622feb"/>
        <path id="Path_25263" data-name="Path 25263" d="M-4311.212-77.22a1.684,1.684,0,0,0-1.628,1.63,2.207,2.207,0,0,0,2,2.008,1.606,1.606,0,0,0,1.656-1.642A2.229,2.229,0,0,0-4311.212-77.22Z" transform="translate(4399.428 131.857)" fill="#b76bd6"/>
        <path id="Path_25264" data-name="Path 25264" d="M-4316.4-143.188a1.685,1.685,0,0,0,1.613-1.649,2.2,2.2,0,0,0-2-2.009,1.6,1.6,0,0,0-1.63,1.664A2.251,2.251,0,0,0-4316.4-143.188Z" transform="translate(4401.706 160.273)" fill="#622feb"/>
        <path id="Path_25265" data-name="Path 25265" d="M-4321.491-84.255a2.184,2.184,0,0,0,2.007,2,1.7,1.7,0,0,0,1.655-1.6,2.3,2.3,0,0,0-2-2.047A1.647,1.647,0,0,0-4321.491-84.255Z" transform="translate(4402.958 135.401)" fill="#b76bd6"/>
        <path id="Path_25266" data-name="Path 25266" d="M-4430.569-146.016a2.236,2.236,0,0,0-2-2.03,1.611,1.611,0,0,0-1.648,1.574,2.236,2.236,0,0,0,1.935,2.081A1.7,1.7,0,0,0-4430.569-146.016Z" transform="translate(4448.963 160.763)" fill="#622feb"/>
        <path id="Path_25267" data-name="Path 25267" d="M-4319.536-77.209a2.192,2.192,0,0,0-1.955,2.056,1.59,1.59,0,0,0,1.639,1.577,2.265,2.265,0,0,0,2.021-2A1.7,1.7,0,0,0-4319.536-77.209Z" transform="translate(4402.958 131.853)" fill="#b76bd6"/>
        <path id="Path_25268" data-name="Path 25268" d="M-4459.131-105.084a1.7,1.7,0,0,0,1.668,1.671,2.241,2.241,0,0,0,1.988-1.959,1.593,1.593,0,0,0-1.607-1.685A2.235,2.235,0,0,0-4459.131-105.084Z" transform="translate(4459.131 144.034)" fill="#622feb"/>
        <path id="Path_25269" data-name="Path 25269" d="M-4325.125-146.832a2.175,2.175,0,0,0-2,1.925,1.651,1.651,0,0,0,1.669,1.721,2.247,2.247,0,0,0,1.958-1.989A1.578,1.578,0,0,0-4325.125-146.832Z" transform="translate(4405.257 160.267)" fill="#622feb"/>
        <path id="Path_25270" data-name="Path 25270" d="M-4435.1-80.3a2.185,2.185,0,0,0-2,2.011,1.59,1.59,0,0,0,1.672,1.618,2.3,2.3,0,0,0,1.99-1.956A1.686,1.686,0,0,0-4435.1-80.3Z" transform="translate(4450.141 133.112)" fill="#b76bd6"/>
        <path id="Path_25271" data-name="Path 25271" d="M-4457.446-115.735a1.625,1.625,0,0,0-1.676,1.629,2.246,2.246,0,0,0,2.028,1.989,1.62,1.62,0,0,0,1.625-1.6A2.147,2.147,0,0,0-4457.446-115.735Z" transform="translate(4459.127 147.576)" fill="#622feb"/>
        <path id="Path_25272" data-name="Path 25272" d="M-4437.1-69.974a2.167,2.167,0,0,0,1.992,2.008,1.659,1.659,0,0,0,1.666-1.65,2.274,2.274,0,0,0-1.973-1.967A1.6,1.6,0,0,0-4437.1-69.974Z" transform="translate(4450.14 129.557)" fill="#b76bd6"/>
        <path id="Path_25273" data-name="Path 25273" d="M-4325.1-151.861a1.647,1.647,0,0,0,1.6-1.645,2.165,2.165,0,0,0-1.984-2,1.615,1.615,0,0,0-1.647,1.651A2.3,2.3,0,0,0-4325.1-151.861Z" transform="translate(4405.259 163.808)" fill="#622feb"/>
        <path id="Path_25274" data-name="Path 25274" d="M-4446.785-114.108a1.572,1.572,0,0,0-1.65-1.63,2.181,2.181,0,0,0-1.976,1.95,1.587,1.587,0,0,0,1.627,1.661A2.118,2.118,0,0,0-4446.785-114.108Z" transform="translate(4455.573 147.577)" fill="#622feb"/>
        <path id="Path_25275" data-name="Path 25275" d="M-4445.766-78.7a2.113,2.113,0,0,0,1.953,2.026,1.6,1.6,0,0,0,1.684-1.609,2.323,2.323,0,0,0-1.938-2.022A1.635,1.635,0,0,0-4445.766-78.7Z" transform="translate(4453.676 133.117)" fill="#b76bd6"/>
        <path id="Path_25276" data-name="Path 25276" d="M-4448.484-103.414a1.655,1.655,0,0,0,1.7-1.548,2.113,2.113,0,0,0-1.908-2.091,1.6,1.6,0,0,0-1.705,1.521A2.241,2.241,0,0,0-4448.484-103.414Z" transform="translate(4455.567 144.033)" fill="#622feb"/>
        <path id="Path_25277" data-name="Path 25277" d="M-4444.131-67.952a2.29,2.29,0,0,0,2-2.028,1.632,1.632,0,0,0-1.626-1.609,2.115,2.115,0,0,0-2.014,1.969A1.641,1.641,0,0,0-4444.131-67.952Z" transform="translate(4453.677 129.559)" fill="#b76bd6"/>
        <path id="Path_25278" data-name="Path 25278" d="M-4316.84-151.856a2.316,2.316,0,0,0,2.065-1.99,1.607,1.607,0,0,0-1.6-1.634,2.1,2.1,0,0,0-2.025,1.88A1.621,1.621,0,0,0-4316.84-151.856Z" transform="translate(4401.698 163.797)" fill="#622feb"/>
        <path id="Path_25279" data-name="Path 25279" d="M-4378.091-19.666c-.92-.018-1.84,0-2.759,0h-1.342c-.471,0-.944,0-1.415,0a1.716,1.716,0,0,0-1.914,1.635,1.7,1.7,0,0,0,1.879,1.667c1.84.01,3.679.007,5.52,0A1.72,1.72,0,0,0-4376.2-18,1.707,1.707,0,0,0-4378.091-19.666Z" transform="translate(4429.09 108.372)" fill="#622feb"/>
        <path id="Path_25280" data-name="Path 25280" d="M-4416.992-45.2a1.71,1.71,0,0,0,1.282-1.921,25.9,25.9,0,0,1-.208-3.535c.144-2.778.389-5.552.627-8.325a1.633,1.633,0,0,0-1.334-1.853c-1.062-.167-1.839.456-1.975,1.7-.283,2.579-.514,5.164-.718,7.269.142,2.1.192,3.706.377,5.3A1.552,1.552,0,0,0-4416.992-45.2Z" transform="translate(4442.883 125.18)" fill="#622feb"/>
      </g>
      <path id="Path_25281" data-name="Path 25281" d="M-4341.389-83.207q0,8.475,0,16.95a1.637,1.637,0,0,1-1.471,1.763,1.636,1.636,0,0,1-1.845-1.37,3.99,3.99,0,0,1-.07-.844q0-16.49,0-32.979c0-.852.093-1.689.967-2.12a1.691,1.691,0,0,1,2.42,1.648q.006,5.32,0,10.639Q-4341.39-86.363-4341.389-83.207Z" transform="translate(4418.37 141.965)" fill="#b76bd6"/>
      <path id="Path_25282" data-name="Path 25282" d="M-4360.19-83.232q0-8.44,0-16.879a1.719,1.719,0,0,1,1.575-1.837,1.688,1.688,0,0,1,1.788,1.531,4.675,4.675,0,0,1,.038.777q.005,16.489.006,32.978a2.07,2.07,0,0,1-.57,1.747,1.6,1.6,0,0,1-1.71.365,1.749,1.749,0,0,1-1.112-1.519,5.91,5.91,0,0,1-.01-.638V-83.232Z" transform="translate(4424.661 141.953)" fill="#b76bd6"/>
      <path id="Path_25283" data-name="Path 25283" d="M-4428.48-113a11.865,11.865,0,0,1,2.924-6.744,39.654,39.654,0,0,1,3.687-3.761,1.777,1.777,0,0,1,2.579-.118,1.664,1.664,0,0,1-.247,2.546,27.4,27.4,0,0,0-4,4.239,8.182,8.182,0,0,0-.612,8.736,1.661,1.661,0,0,1-.651,2.421,1.7,1.7,0,0,1-2.322-.833A13.115,13.115,0,0,1-4428.48-113Z" transform="translate(4452.531 150.999)" fill="#b76bd6"/>
      <path id="Path_25284" data-name="Path 25284" d="M-4405.55-129.3a14.626,14.626,0,0,0-1.369-4.349,6.448,6.448,0,0,0-.817-2.006h0a23.313,23.313,0,0,0-3.066-5.094,34.426,34.426,0,0,0-5.021-5.338,35.461,35.461,0,0,0-7.208-4.978,1.914,1.914,0,0,0-1.96-.023,1.769,1.769,0,0,0-.715,1.867,11.76,11.76,0,0,1-2.476,8.717c-1.581,2.1-3.5,3.89-5.227,5.85a17.639,17.639,0,0,0-4.542,8.589,15.267,15.267,0,0,0,.483,7.888,15.263,15.263,0,0,0,5.963,7.727,8.729,8.729,0,0,0,2.838,1.492c.44-.914.417-2.062,1.369-2.719.26-.624-.334-.619-.617-.774-3.705-2.02-6.17-4.937-6.688-9.243a11.884,11.884,0,0,1,2.084-8.389,66.247,66.247,0,0,1,5.364-6.122,20.14,20.14,0,0,0,4.286-6.7,14.577,14.577,0,0,0,.732-3.5,10.117,10.117,0,0,1,1.772,1.235,30.385,30.385,0,0,1,5.986,5.594c.925,1.144,1.739,2.368,2.573,3.577h0l.359.674a1.543,1.543,0,0,0,.5.946l.3.561a1.282,1.282,0,0,0,.243.531.961.961,0,0,0,.077.069l.242.456q.294.774.587,1.549a22.113,22.113,0,0,1,.877,3.522h0a15.545,15.545,0,0,1,.121,1.631,1.727,1.727,0,0,0-.022.619,3.79,3.79,0,0,1,0,.567,11.8,11.8,0,0,1-1.146,5.928,13.383,13.383,0,0,1-6.1,6.5c-.276.141-.653.214-.692.633a2.421,2.421,0,0,1,1.583,1.98c.048.2.04.427.22.58.091.109.165.217.343.1.654-.41,1.341-.769,1.97-1.212a17.25,17.25,0,0,0,5.572-6.439,16.054,16.054,0,0,0,1.751-6.678A24.627,24.627,0,0,0-4405.55-129.3Z" transform="translate(4456.517 162.109)" fill="#b76bd6"/>
      <path id="Path_25285" data-name="Path 25285" d="M-4360.857-86.264q0-20.58-.007-41.16a25.389,25.389,0,0,0-.192-3.814,11.015,11.015,0,0,0-10.358-9.064c-3.477-.062-6.956-.027-10.433-.009a1.879,1.879,0,0,0-.979.315,1.639,1.639,0,0,0-.591,1.831,1.652,1.652,0,0,0,1.579,1.1c2.245.011,4.49,0,6.735.005h1.833l1.845.037a7.7,7.7,0,0,1,7.147,6.6,42.556,42.556,0,0,1,.152,5.38q.016,21.291.005,42.581v3.2h-21.064v-.908q0-21.006-.005-42.013c0-1.368-.1-2.737-.1-4.106,0-1.866.081-3.732.093-5.6a9.764,9.764,0,0,0-2.209-6.358q-4.864-6.047-9.726-12.1c-1.092-1.357-2.154-1.319-3.211.08-2.865,3.789-5.687,7.61-8.619,11.346a11.558,11.558,0,0,0-2.6,7.665c.079,3.711.032,7.425.035,11.139q.011,10.466.015,20.932,0,9.651-.035,19.3c0,.2-.029.4-.043.581H-4424.2a50.262,50.262,0,0,0,.845-8.646,44.733,44.733,0,0,0-1.252-11.377c-.926-3.75-2.039-7.453-3.069-11.177a1.751,1.751,0,0,0-1.388-1.261,20.888,20.888,0,0,0-10.443.077,1.514,1.514,0,0,0-1.208,1.058c-.241.811-.451,1.631-.7,2.442-1.575,5.241-3.173,10.475-3.571,15.982a47.768,47.768,0,0,0,.152,9.2c.147,1.233.351,2.46.533,3.722h-21.514v-2.813h.009V-95.864h-.01q-.033-16.42-.018-32.841a9.367,9.367,0,0,1,.527-3.241,7.784,7.784,0,0,1,7.421-5.149c3.1-.011,6.2.03,9.3.038a1.632,1.632,0,0,0,1.791-1.6,1.662,1.662,0,0,0-1.8-1.673c-1.417.045-2.838-.008-4.257.016a61.384,61.384,0,0,0-7.148.212,10.866,10.866,0,0,0-9.059,10.041c-.1,1.906-.046,3.821-.042,5.732q.026,14.235.056,28.468h-.073v13.777h.014q-.005,3.425,0,6.851a12.762,12.762,0,0,0,.1,2.052,11.163,11.163,0,0,0,11.252,9.507q15.614,0,31.229,0c.243,0,.486.022.738.035-.27,2.841-.529,5.586-.795,8.389h-.979q-3.831,0-7.664,0a1.692,1.692,0,0,0-1.735,1.077c-.386,1,.315,2.246,1.908,2.241,13.3-.037,26.593-.021,39.889-.022.189,0,.379,0,.567-.015a1.573,1.573,0,0,0,1.657-1.773,1.618,1.618,0,0,0-1.8-1.507h-8.662c-.266-2.867-.522-5.627-.781-8.428h.693q15.684,0,31.369,0a11.127,11.127,0,0,0,11.254-11.231Q-4360.852-80.587-4360.857-86.264Zm-37.818-60.721,2.376,2.967h-4.619Zm-8.545,11.354c1.127-1.63,2.36-3.188,3.568-4.761a.841.841,0,0,1,.593-.261q4.541-.021,9.081.009a.953.953,0,0,1,.643.311q1.78,2.161,3.511,4.36a6.216,6.216,0,0,1,1.33,3.879c.011.922,0,1.843,0,2.835h-19.732C-4408.277-131.462-4408.564-133.688-4407.22-135.63Zm18.688,9.707v46.656h-19.69v-46.656Zm-49.37,17.517a.69.69,0,0,1,.465-.35,15.737,15.737,0,0,1,6.4-.047.726.726,0,0,1,.472.386c.361,1.116.679,2.246,1,3.344h-9.314C-4438.568-106.16-4438.257-107.29-4437.9-108.407Zm-3.812,16.807a51.788,51.788,0,0,1,1.588-9.266.791.791,0,0,1,.755-.678,38.083,38.083,0,0,1,10.316.005.745.745,0,0,1,.709.628,46.7,46.7,0,0,1,1.631,15.422c-.053.707-.078,1.419-.112,2.22l-.362,1.986h0c-.094.51-.189,1.019-.276,1.531a.518.518,0,0,1-.6.51q-6.171-.021-12.345,0c-.332,0-.488-.073-.566-.444A42.916,42.916,0,0,1-4441.715-91.6Zm18.461,36.317c.257-2.787.511-5.547.77-8.357h15.008c.26,2.817.515,5.559.774,8.357Zm52.286-11.8c-2.852.181-5.72.126-8.581.131-6.954.011-13.909-.007-20.863-.01q-9.433-.005-18.866,0-19.155,0-38.309,0a7.785,7.785,0,0,1-7.807-5.405,24.455,24.455,0,0,1-.578-3.558h101.758C-4363.482-71.823-4366.837-67.343-4370.968-67.082Z" transform="translate(4469.113 162.104)" fill="#622feb"/>
    </g>
  </g>
</svg>
