<svg xmlns="http://www.w3.org/2000/svg" width="230.778" height="218.015" viewBox="0 0 230.778 218.015">
  <g id="Group_41390" data-name="Group 41390" transform="matrix(-0.259, 0.966, -0.966, -0.259, 291.595, 65.74)">
    <g id="Group_56" data-name="Group 56" transform="translate(-0.063 62.964)">
      <path id="Path_283" data-name="Path 283" d="M176.573,520.248c-.27-1.323-.567-2.674-.853-4A73.363,73.363,0,0,0,155.856,479.8a65.563,65.563,0,0,0-15.115-11.227c-21.71-3.706-42.678-9.169-59.575-26.4-14.309-15.637-40.508-22.727-58.2-10.614-2.322,2.713-3.361,6.078-.885,9.607,3.654,5.2,11.657,5.781,16.979,8.044a39.688,39.688,0,0,1,16.984,13.8c4.14,5.936,6.218,12.9,9.124,19.506,3.258,7.4,8.039,13.094,15.471,16.011,3.555,1.4,7.333,1.768,10.736,3.653a29.226,29.226,0,0,1,8.677,7.625c9.208,11.631,10.1,28.077,19.592,39.407,5.4,6.45,13.376,9.643,21.151,11.637,7.286,1.88,13.8.136,19.657-4.7a44.133,44.133,0,0,0,11.72-15.208C175.248,534.362,176.061,527.369,176.573,520.248Z" transform="translate(-15.62 -419.481)" fill="#eec3ff"/>
      <path id="Path_284" data-name="Path 284" d="M111.9,443.06c21.024,17.226,47.114,22.689,74.127,26.4-.557-.24-1.108-.486-1.672-.713-9.155-3.727-19.2-5.2-28.659-8.18-18.746-5.9-31.733-19.164-48.765-27.45a85.374,85.374,0,0,0-28.15-7.948c-9.454-1-20.094-.951-29.168,1.772a27.147,27.147,0,0,0-10.136,5.511C61.495,420.333,94.095,427.422,111.9,443.06Z" transform="translate(-31.57 -420.362)" fill="#e6f3f8"/>
      <path id="Path_285" data-name="Path 285" d="M175.009,553.759c-4.036,5.763-9.373,10.81-15.8,13.5-7.665,3.219-15.464,1.367-23-1.415-7.84-2.911-14.539-7.493-19.235-14.754-8.544-13.241-9.394-32.807-23.679-41.621-3.788-2.344-8.284-2.6-12.3-4.38a31.378,31.378,0,0,1-10-6.884c-5.22-5.475-7.58-12.912-10.431-19.823-3.244-7.811-7.782-14.546-14.8-19.154-6.3-4.122-13.846-4.763-20.236-8.578-5.808-3.457-8.6-10.582-4.95-16.834,3.921-6.738,12.005-9.563,19.081-10.64a65.057,65.057,0,0,1,47.917,11.885c7.088,5.141,13.452,11.267,20.54,16.411a58.548,58.548,0,0,0,11.541,6.7c4.386,1.854,9,3.071,13.531,4.492a71.343,71.343,0,0,1,36.171,25.226,73.613,73.613,0,0,1,13.36,28.387,1.07,1.07,0,0,1,.156.472c.027.2.035.42.062.621a52.434,52.434,0,0,1,.922,11.619,1.132,1.132,0,0,1-.989,1.079c-.013.226-.031.47-.064.707C181.9,539.091,179.782,546.911,175.009,553.759Zm5.583-30.531c-.273-1.323-.573-2.673-.862-4a73.139,73.139,0,0,0-20.08-36.446,65.933,65.933,0,0,0-16.638-11.941c-7.438-3.727-15.6-5.2-23.283-8.18-15.23-5.9-25.78-19.164-39.617-27.45a59.777,59.777,0,0,0-22.869-7.948c-7.68-1-16.324-.951-23.7,1.772-5.481,2.008-13.991,8.264-9.129,15.118,3.694,5.2,11.784,5.781,17.163,8.044A40.035,40.035,0,0,1,58.75,466c4.184,5.936,6.285,12.9,9.223,19.506,3.294,7.4,8.127,13.094,15.639,16.011,3.594,1.4,7.413,1.768,10.853,3.653a29.45,29.45,0,0,1,8.771,7.625c9.308,11.631,10.206,28.077,19.8,39.407,5.454,6.45,13.521,9.643,21.38,11.637,7.365,1.88,13.946.136,19.87-4.7a44.2,44.2,0,0,0,11.847-15.208C179.253,537.342,180.075,530.349,180.592,523.228Z" transform="translate(-18.879 -422.461)" fill="#622feb"/>
      <path id="Path_286" data-name="Path 286" d="M12.971,432.591c31.844,14.293,61.714,31.744,87.661,52.934,25.784,21.058,47.99,45.339,65.28,71.876q7.25,11.125,13.333,22.755c1.992,3.812,3.983,7.625,5.842,11.483,1.937,4.014,3.453,8.422,6.4,11.977.26.312.959.27.938-.194-.163-3.715-1.8-7.263-3.294-10.744s-3.053-6.905-4.694-10.32a228.19,228.19,0,0,0-11.67-20.984,297.178,297.178,0,0,0-28.86-39.045c-21.623-24.829-47.967-46.68-77.59-64.685a307.641,307.641,0,0,0-53.006-25.694C12.881,431.789,12.557,432.4,12.971,432.591Z" transform="translate(-12.78 -413.018)" fill="#622feb"/>
    </g>
  </g>
</svg>
