<svg xmlns="http://www.w3.org/2000/svg" width="129" height="182.271" viewBox="0 0 129 182.271">
  <g id="Group_40855" data-name="Group 40855" transform="translate(-390 -3287.904)">
    <text id="discover" transform="translate(390 3462.176)" fill="#3a3a3a" font-size="32" font-family="SegoeUI-Bold, Segoe UI" font-weight="700"><tspan x="0" y="0">Discover</tspan></text>
    <g id="Group_40845" data-name="Group 40845" transform="translate(411.308 3287.904)">
      <g id="Group_40843" data-name="Group 40843">
        <path id="Path_25217" data-name="Path 25217" d="M-438.628,116.255c2,.317,4.009.548,5.982.967,6.843,1.452,12.787,4.774,18.4,8.838,5.641,4.085,9.964,9.173,11.963,15.9,2.286,7.689,3.181,15.526,1.223,23.462-1.222,4.953-4.084,9.028-7.15,12.974A31.975,31.975,0,0,0-415.06,193.9c-.659,4.881.036,9.648,1.045,14.39a32.178,32.178,0,0,0,4.913,12.28,9.819,9.819,0,0,1,1.04,2.093,1.806,1.806,0,0,1-1.834,2.715q-6.669.061-13.339.073-15.527.049-31.055.087c-2.182.006-2.472-.222-3.079-2.269a28.078,28.078,0,0,0-4.234-8.9q-.159-.214-.328-.421c-1.912-2.343-2.119-2.34-4.977-1.458-4.137,1.277-8.29,2.515-12.472,3.635-3.823,1.024-7.093-.889-8.386-4.641a11.4,11.4,0,0,1-.29-6.607c.465-1.885.252-2.38-1.259-3.283-2.812-1.68-3.022-2.213-2.09-5.384-.425-.347-.867-.7-1.3-1.065a2.5,2.5,0,0,1-.876-3.387c.362-.884.872-1.706,1.3-2.565.824-1.662.593-2.407-.995-3.305-.989-.559-2.01-1.071-2.956-1.7-2.595-1.713-3.13-4-1.43-6.587,1.4-2.137,3.1-4.089,4.446-6.256,1.764-2.83,3.3-5.8,4.969-8.69a1.318,1.318,0,0,0-.255-1.807c-.461-.443-.929-.879-1.407-1.3-2.113-1.875-2.8-4.163-1.632-6.723a89.349,89.349,0,0,0,3.85-11.49c2.1-7,5.869-12.935,12-17.12a35.483,35.483,0,0,1,14.152-5.358c5.42-.943,10.885-1.629,16.33-2.431a4.858,4.858,0,0,0,.6-.168ZM-454,221.756h41.209c-.625-1.153-1.213-2.122-1.691-3.143a52.265,52.265,0,0,1-4.174-15.909,32.614,32.614,0,0,1,4.043-21.176c1.782-3.021,3.954-5.814,5.978-8.691a24.925,24.925,0,0,0,4.372-9.746c1.173-6.24.47-12.4-1.037-18.488a24.649,24.649,0,0,0-8.563-13.554,73.394,73.394,0,0,0-8.113-5.682,36.8,36.8,0,0,0-21.591-5.419,113.853,113.853,0,0,0-17.192,2.429c-4.441.946-8.788,2.152-12.615,4.674-5.668,3.736-8.969,9.2-10.923,15.557-1.01,3.286-1.654,6.669-3.143,9.823-1.467,3.107-1.628,2.98,1.1,5.363a5.192,5.192,0,0,1,1.272,6.628,75.46,75.46,0,0,1-8.792,14.081c-.22.279-.4.591-.632.858-.689.789-.489,1.375.37,1.856.93.52,1.846,1.064,2.773,1.588,3.116,1.758,4,4.545,2.452,7.775-.333.694-.7,1.369-1.047,2.03a19.241,19.241,0,0,1,2.593,2.319c.9,1.15-.3,2.085-.688,3.066,4.017,3.055,4.139,3.507,3.377,8.574a9.139,9.139,0,0,0,.327,3.559c.568,2.174,2.123,2.956,4.323,2.427,8.652-2.082,16.969-5.208,25.332-8.181a20.986,20.986,0,0,0,4.539-2.523,4.28,4.28,0,0,0,1.969-3.383c.082-1.317.825-2.025,1.907-1.967,1.117.06,1.756.9,1.709,2.256-.1,2.723-1.585,4.653-3.629,6.228a25.1,25.1,0,0,1-7.529,3.682c-1.521.51-3.035,1.044-4.672,1.607A29.727,29.727,0,0,1-454,221.756Z" transform="translate(498.644 -116.255)" fill="#622feb"/>
        <path id="Path_25218" data-name="Path 25218" d="M-365.945,174.9c-.054,5.105-1.187,9.833-4.395,13.893-.807,1.022-1.9,1.816-2.795,2.772-1.819,1.935-3.718,3.814-5.358,5.893a10.956,10.956,0,0,0-2.217,6.989,12.775,12.775,0,0,1-1.567,6.671,12.112,12.112,0,0,1-2.675,3.109,1.757,1.757,0,0,1-2.972-1.473c.163-2.957-1.246-5.013-3.37-6.766-.987-.815-1.959-1.652-2.989-2.41-3.53-2.6-4.883-6.187-4.671-10.421a27.078,27.078,0,0,1,.776-4.718,1.313,1.313,0,0,0-.481-1.55,12.893,12.893,0,0,1-1.468-1.4,13.489,13.489,0,0,0-11.717-4.461c-4.883.415-9.742,1.105-14.614,1.654a16.284,16.284,0,0,1-7.28-.506c-4.588-1.592-6.832-5.095-7.126-9.682a28.3,28.3,0,0,1,7.436-21.347c2.836-3.168,6.637-4.82,10.673-5.921a117.431,117.431,0,0,1,17.3-3.066,35.7,35.7,0,0,1,15.086,1.148,43.584,43.584,0,0,1,17.083,10.355,22.322,22.322,0,0,1,6.406,13.193C-366.469,169.527-366.25,172.221-365.945,174.9Zm-25.73,13.168c.184-4.422,3.12-6.431,6.452-6.166,1.449.115,2.915.005,4.373.025a1.848,1.848,0,0,1,2.009,1.762,1.878,1.878,0,0,1-2.032,1.863c-1.209.024-2.421.06-3.627,0-3.525-.186-3.512.883-3.479,3.54.008.63.253.839.809,1.008a16.422,16.422,0,0,0,6.546.547,10.749,10.749,0,0,0,8.579-5.761c.511-.9.881-1.876,1.382-2.961-.931,0-1.6.006-2.277,0-1.427-.016-2.253-.706-2.237-1.86.015-1.126.791-1.763,2.186-1.776,1.018-.009,2.036,0,3.13,0v-3.642c-1.132,0-2.162.017-3.19,0-1.345-.027-2.144-.744-2.125-1.868.019-1.095.773-1.745,2.086-1.766.988-.016,1.976,0,2.95,0,.421-4.134-2.517-12.09-5.057-13.7,0,.429.022.819,0,1.205a5.438,5.438,0,0,1-4.839,5.133c-1.365.148-2.262-.413-2.4-1.5-.145-1.132.474-1.825,1.877-2.1a1.848,1.848,0,0,0,1.732-2.046q.039-1.813-.007-3.627a1.214,1.214,0,0,0-.285-.842c-1.023-.8-2.1-1.531-3.343-2.425,0,.773,0,1.295,0,1.816s.025,1.069-.012,1.6a1.8,1.8,0,0,1-1.9,1.866,1.747,1.747,0,0,1-1.724-1.9c-.029-.995-.009-1.991-.01-2.987,0-2.613.027-2.686-2.46-3.612-2.133-.795-4.337-1.4-6.575-2.107v5.2c.623,0,1.155-.02,1.686,0a1.783,1.783,0,0,1,1.852,1.791,1.818,1.818,0,0,1-1.84,1.826c-.851.045-1.706.014-2.56.014-2.42,0-2.865-.442-2.865-2.847v-6.161h-3.561c-.266,2.819-.613,3.458-1.842,3.5s-1.562-.5-2-3.223l-3.465.466c-.057,1.27-.125,2.5-1.667,2.74-1.06.163-1.575-.343-2.257-2.147l-8.9,1.928c0,1.375-.017,2.546,0,3.716a1.852,1.852,0,0,0,1.763,2.022c1.292.22,1.968.954,1.852,2.013a1.937,1.937,0,0,1-2.355,1.6,5.48,5.48,0,0,1-4.894-5.312c-.02-.773,0-1.547,0-2.466-3.676,1.621-5.979,4.37-7.841,7.806,1.387,0,2.592-.007,3.8,0,1.39.01,2.164.65,2.179,1.784.016,1.169-.785,1.842-2.229,1.848-1.809.008-3.619,0-5.546,0l-1.666,7.274c.844,0,1.371.008,1.9,0,1.335-.024,1.9-.528,2.131-1.877a1.837,1.837,0,0,1,2.013-1.739,1.934,1.934,0,0,1,1.6,2.269,5.463,5.463,0,0,1-5.335,4.981c-.623.017-1.246,0-2.013,0,.505,2.463,1.418,4.393,3.638,5.508.42-1.345,1.11-1.94,2.071-1.836,1.062.116,1.492.759,1.782,2.79l19.864-2.158c.22-1.791.675-2.483,1.841-2.416,2.089.119,1.813,1.793,1.9,3.179a17.5,17.5,0,0,1,8.636,5.125C-395.721,184.717-393.761,186.252-391.675,188.07Zm6.617,19.832.32-.026c.136-1.182.21-2.375.42-3.544a51.451,51.451,0,0,1,1.284-6.11,23.8,23.8,0,0,1,2.041-3.91,19.7,19.7,0,0,1-13.856-4.114c-1.2,4.4-.453,8.322,3.365,10.983A19.366,19.366,0,0,1-385.058,207.9Z" transform="translate(457.387 -134.552)" fill="#b76bd6"/>
        <path id="Path_25219" data-name="Path 25219" d="M-336.6,186.186a12.21,12.21,0,0,1-.009,1.383,1.715,1.715,0,0,1-1.707,1.583,1.649,1.649,0,0,1-1.781-1.366,14.323,14.323,0,0,1-.12-2.117,1.8,1.8,0,0,0-1.91-1.962c-1.134-.05-2.274-.049-3.408,0a1.856,1.856,0,0,0-1.959,2.045c-.021.567.02,1.138-.022,1.7a1.776,1.776,0,0,1-1.717,1.706A1.8,1.8,0,0,1-351.1,187.6c-.627-5,2.133-7.714,6.178-7.558.745.029,1.491,0,2.237,0C-338.739,180.052-336.574,182.226-336.6,186.186Z" transform="translate(393.236 -161.845)" fill="#622feb"/>
        <path id="Path_25220" data-name="Path 25220" d="M-389.35,218.434c0-3.491,1.49-5.684,4.387-6.236a12.761,12.761,0,0,1,3.177-.09,1.735,1.735,0,0,1,1.529,1.771,1.8,1.8,0,0,1-1.637,1.791c-.634.059-1.278,0-1.915.03a1.832,1.832,0,0,0-1.9,1.873c-.013.212,0,.426,0,.639,0,2.551.4,2.96,2.957,2.97.213,0,.427-.005.639.008a1.808,1.808,0,0,1,1.857,1.788,1.824,1.824,0,0,1-1.731,1.827C-387.3,225.386-389.7,222.11-389.35,218.434Z" transform="translate(420.541 -184.734)" fill="#622feb"/>
        <path id="Path_25221" data-name="Path 25221" d="M-274.566,210.193a5.536,5.536,0,0,1-6.146-5.635,5.479,5.479,0,0,1,5.176-5.258c.71-.03,1.424-.037,2.134,0a1.817,1.817,0,0,1,1.795,1.758,1.836,1.836,0,0,1-1.814,1.854c-.6.037-1.21-.013-1.813.021a1.834,1.834,0,0,0-1.832,1.835,1.837,1.837,0,0,0,1.88,1.785c.6.027,1.212-.023,1.813.023a1.834,1.834,0,0,1,1.769,1.795,1.836,1.836,0,0,1-1.847,1.819C-273.841,210.211-274.233,210.193-274.566,210.193Z" transform="translate(342.862 -175.6)" fill="#622feb"/>
        <path id="Path_25222" data-name="Path 25222" d="M-341.841,209.53c0,.142-.011.285,0,.427.346,3.948-1.935,7.126-7.073,6.73-1.253-.1-2.063-.8-2.052-1.86a1.8,1.8,0,0,1,2.091-1.77c3.4.173,3.494-1.011,3.4-3.544-.024-.639-.022-1.282.007-1.921a1.766,1.766,0,0,1,1.7-1.829,1.784,1.784,0,0,1,1.91,1.74c.057.671.011,1.351.011,2.026Z" transform="translate(393.078 -180.236)" fill="#622feb"/>
        <path id="Path_25223" data-name="Path 25223" d="M-246.034,235.29c0,.5.015,1,0,1.494a5.446,5.446,0,0,1-4.8,5.4,12.675,12.675,0,0,1-2.554.05,1.824,1.824,0,0,1-1.762-1.906,1.813,1.813,0,0,1,1.845-1.7c.461-.024.925,0,1.387-.011,1.543-.032,2.218-.689,2.245-2.213.019-1.031-.012-2.064.01-3.095a1.765,1.765,0,0,1,1.776-1.961,1.8,1.8,0,0,1,1.85,1.915C-246.007,233.937-246.034,234.614-246.034,235.29Z" transform="translate(324.592 -198.526)" fill="#622feb"/>
        <path id="Path_25224" data-name="Path 25224" d="M-300.18,240.4c-4.571.153-6.785-3.128-6.12-7.688a1.694,1.694,0,0,1,1.9-1.355,1.7,1.7,0,0,1,1.654,1.648c.073.6.011,1.207.031,1.811a1.8,1.8,0,0,0,1.918,1.943c.568.022,1.14-.023,1.705.019a1.8,1.8,0,0,1,1.808,1.851,1.783,1.783,0,0,1-1.871,1.768C-299.545,240.417-299.937,240.4-300.18,240.4Z" transform="translate(361.234 -198.529)" fill="#622feb"/>
      </g>
      <g id="Group_40844" data-name="Group 40844" transform="translate(23.164 54.565)">
        <path id="Path_25225" data-name="Path 25225" d="M-408.778,307.6c.52.1,1.049.176,1.558.318a8,8,0,0,1,5.758,6.914,7.95,7.95,0,0,1-5.309,8.3.311.311,0,0,0-.254.353c.013.835.016,1.671,0,2.506a2.4,2.4,0,0,1-2.141,2.337,2.4,2.4,0,0,1-2.569-1.784,2.828,2.828,0,0,1-.08-.684q-.01-2.292,0-4.585a2.4,2.4,0,0,1,2.44-2.48,3.2,3.2,0,0,0,3.155-3.329,3.227,3.227,0,0,0-3.4-3.064,3.206,3.206,0,0,0-3,3.137,2.4,2.4,0,0,1-1.729,2.356,2.4,2.4,0,0,1-3.07-2.3A8,8,0,0,1-411,307.756c.313-.06.627-.107.941-.16Z" transform="translate(417.415 -307.596)" fill="#b76bd6"/>
        <path id="Path_25226" data-name="Path 25226" d="M-395.406,391.294a2.4,2.4,0,0,1-2.374-2.436,2.4,2.4,0,0,1,2.422-2.361,2.4,2.4,0,0,1,2.374,2.436A2.4,2.4,0,0,1-395.406,391.294Z" transform="translate(403.38 -363.997)" fill="#b76bd6"/>
      </g>
    </g>
  </g>
</svg>
